%TF.GenerationSoftware,KiCad,Pcbnew,8.0.5*%
%TF.CreationDate,2024-12-06T09:36:11-05:00*%
%TF.ProjectId,Passive Cap Bank V1,50617373-6976-4652-9043-61702042616e,rev?*%
%TF.SameCoordinates,Original*%
%TF.FileFunction,Copper,L2,Bot*%
%TF.FilePolarity,Positive*%
%FSLAX46Y46*%
G04 Gerber Fmt 4.6, Leading zero omitted, Abs format (unit mm)*
G04 Created by KiCad (PCBNEW 8.0.5) date 2024-12-06 09:36:11*
%MOMM*%
%LPD*%
G01*
G04 APERTURE LIST*
%TA.AperFunction,ComponentPad*%
%ADD10R,1.600200X1.600200*%
%TD*%
%TA.AperFunction,ComponentPad*%
%ADD11C,1.600200*%
%TD*%
%TA.AperFunction,ComponentPad*%
%ADD12C,2.550000*%
%TD*%
%TA.AperFunction,ComponentPad*%
%ADD13R,2.550000X2.550000*%
%TD*%
%TA.AperFunction,ComponentPad*%
%ADD14C,1.508000*%
%TD*%
%TA.AperFunction,ComponentPad*%
%ADD15R,1.397000X1.397000*%
%TD*%
%TA.AperFunction,ComponentPad*%
%ADD16C,1.397000*%
%TD*%
%TA.AperFunction,ComponentPad*%
%ADD17C,2.184400*%
%TD*%
%TA.AperFunction,ComponentPad*%
%ADD18O,8.400000X4.200000*%
%TD*%
%TA.AperFunction,Conductor*%
%ADD19C,2.500000*%
%TD*%
%TA.AperFunction,Conductor*%
%ADD20C,1.250000*%
%TD*%
G04 APERTURE END LIST*
D10*
%TO.P,C1,1,+*%
%TO.N,V_15*%
X150000000Y-67000000D03*
D11*
%TO.P,C1,2,-*%
%TO.N,Net-(C1--)*%
X150000000Y-74999999D03*
%TD*%
D10*
%TO.P,C5,1,+*%
%TO.N,Net-(C4--)*%
X168500000Y-104999998D03*
D11*
%TO.P,C5,2,-*%
%TO.N,Net-(C5--)*%
X168500000Y-96999999D03*
%TD*%
D10*
%TO.P,C3,1,+*%
%TO.N,Net-(C2--)*%
X150000000Y-106999999D03*
D11*
%TO.P,C3,2,-*%
%TO.N,Net-(C3--)*%
X150000000Y-114999998D03*
%TD*%
D10*
%TO.P,C2,1,+*%
%TO.N,Net-(C1--)*%
X150000000Y-86999999D03*
D11*
%TO.P,C2,2,-*%
%TO.N,Net-(C2--)*%
X150000000Y-94999998D03*
%TD*%
D10*
%TO.P,C4,1,+*%
%TO.N,Net-(C3--)*%
X168500000Y-124999997D03*
D11*
%TO.P,C4,2,-*%
%TO.N,Net-(C4--)*%
X168500000Y-116999998D03*
%TD*%
D10*
%TO.P,C6,1,+*%
%TO.N,Net-(C5--)*%
X168467626Y-85007199D03*
D11*
%TO.P,C6,2,-*%
%TO.N,GND*%
X168467626Y-77007200D03*
%TD*%
D12*
%TO.P,J1,N*%
%TO.N,GND*%
X163000000Y-65500000D03*
D13*
%TO.P,J1,P*%
%TO.N,V_15*%
X163000000Y-60500000D03*
D14*
%TO.P,J1,S1*%
%TO.N,N/C*%
X173000000Y-68500000D03*
%TO.P,J1,S2*%
X173000000Y-57500000D03*
%TD*%
D15*
%TO.P,R14,1*%
%TO.N,Net-(D1-K)*%
X175891170Y-42730000D03*
D16*
%TO.P,R14,2*%
%TO.N,GND*%
X164788830Y-42730000D03*
%TD*%
D15*
%TO.P,D1,1,K*%
%TO.N,Net-(D1-K)*%
X170450000Y-50570000D03*
D16*
%TO.P,D1,2,A*%
%TO.N,Net-(D1-A)*%
X167910000Y-50570000D03*
%TD*%
D17*
%TO.P,R13,1*%
%TO.N,Net-(D1-A)*%
X157470000Y-54251000D03*
%TO.P,R13,3*%
%TO.N,GND*%
X157470000Y-44091000D03*
%TD*%
D18*
%TO.P,SW1,1,A*%
%TO.N,V_15*%
X188650000Y-68590000D03*
%TO.P,SW1,2,B*%
%TO.N,Net-(D1-A)*%
X188650000Y-58090000D03*
%TD*%
D19*
%TO.N,V_15*%
X188650000Y-68590000D02*
X183250000Y-68590000D01*
X175160000Y-60500000D02*
X163000000Y-60500000D01*
X183250000Y-68590000D02*
X175160000Y-60500000D01*
%TO.N,GND*%
X163000000Y-65500000D02*
X154630000Y-57130000D01*
X154630000Y-57130000D02*
X154630000Y-46931000D01*
X163427830Y-44091000D02*
X164788830Y-42730000D01*
X157470000Y-44091000D02*
X163427830Y-44091000D01*
X154630000Y-46931000D02*
X157470000Y-44091000D01*
D20*
%TO.N,Net-(D1-K)*%
X175891170Y-45128830D02*
X170450000Y-50570000D01*
X175891170Y-42730000D02*
X175891170Y-45128830D01*
D19*
%TO.N,Net-(D1-A)*%
X169963000Y-54380000D02*
X167910000Y-52327000D01*
X161151000Y-50570000D02*
X157470000Y-54251000D01*
X169963000Y-54380000D02*
X184940000Y-54380000D01*
X184940000Y-54380000D02*
X188650000Y-58090000D01*
X167910000Y-52327000D02*
X167910000Y-50570000D01*
X167910000Y-50570000D02*
X161151000Y-50570000D01*
%TD*%
M02*
