M48
; DRILL file {KiCad 8.0.5} date 2024-12-06T09:36:14-0500
; FORMAT={-:-/ absolute / inch / decimal}
; #@! TF.CreationDate,2024-12-06T09:36:14-05:00
; #@! TF.GenerationSoftware,Kicad,Pcbnew,8.0.5
; #@! TF.FileFunction,Plated,1,2,PTH
FMAT,2
INCH
; #@! TA.AperFunction,Plated,PTH,ComponentDrill
T1C0.0350
; #@! TA.AperFunction,Plated,PTH,ComponentDrill
T2C0.0394
; #@! TA.AperFunction,Plated,PTH,ComponentDrill
T3C0.0430
; #@! TA.AperFunction,Plated,PTH,ComponentDrill
T4C0.0472
; #@! TA.AperFunction,Plated,PTH,ComponentDrill
T5C0.0660
; #@! TA.AperFunction,Plated,PTH,ComponentDrill
T6C0.0669
%
G90
G05
T1
X6.4877Y-1.6823
X6.6106Y-1.9909
X6.7106Y-1.9909
X6.9248Y-1.6823
T2
X6.811Y-2.2638
X6.811Y-2.6969
T3
X5.9055Y-2.6378
X5.9055Y-2.9528
X5.9055Y-3.4252
X5.9055Y-3.7402
X5.9055Y-4.2126
X5.9055Y-4.5276
X6.6326Y-3.0318
X6.6326Y-3.3467
X6.6339Y-3.8189
X6.6339Y-4.1339
X6.6339Y-4.6063
X6.6339Y-4.9213
T5
X6.1996Y-1.7359
X6.1996Y-2.1359
T6
X6.4173Y-2.3819
X6.4173Y-2.5787
T4
G00X7.5374Y-2.287
M15
G01X7.3169Y-2.287
M16
G05
G00X7.5374Y-2.7004
M15
G01X7.3169Y-2.7004
M16
G05
M30
