%TF.GenerationSoftware,KiCad,Pcbnew,8.0.5*%
%TF.CreationDate,2024-12-06T09:36:11-05:00*%
%TF.ProjectId,Passive Cap Bank V1,50617373-6976-4652-9043-61702042616e,rev?*%
%TF.SameCoordinates,Original*%
%TF.FileFunction,Paste,Top*%
%TF.FilePolarity,Positive*%
%FSLAX46Y46*%
G04 Gerber Fmt 4.6, Leading zero omitted, Abs format (unit mm)*
G04 Created by KiCad (PCBNEW 8.0.5) date 2024-12-06 09:36:11*
%MOMM*%
%LPD*%
G01*
G04 APERTURE LIST*
G04 Aperture macros list*
%AMRoundRect*
0 Rectangle with rounded corners*
0 $1 Rounding radius*
0 $2 $3 $4 $5 $6 $7 $8 $9 X,Y pos of 4 corners*
0 Add a 4 corners polygon primitive as box body*
4,1,4,$2,$3,$4,$5,$6,$7,$8,$9,$2,$3,0*
0 Add four circle primitives for the rounded corners*
1,1,$1+$1,$2,$3*
1,1,$1+$1,$4,$5*
1,1,$1+$1,$6,$7*
1,1,$1+$1,$8,$9*
0 Add four rect primitives between the rounded corners*
20,1,$1+$1,$2,$3,$4,$5,0*
20,1,$1+$1,$4,$5,$6,$7,0*
20,1,$1+$1,$6,$7,$8,$9,0*
20,1,$1+$1,$8,$9,$2,$3,0*%
G04 Aperture macros list end*
%ADD10RoundRect,0.150000X-0.150000X0.350000X-0.150000X-0.350000X0.150000X-0.350000X0.150000X0.350000X0*%
%ADD11RoundRect,0.150000X0.150000X-0.350000X0.150000X0.350000X-0.150000X0.350000X-0.150000X-0.350000X0*%
%ADD12R,1.320800X3.454400*%
%ADD13R,1.330000X3.460000*%
G04 APERTURE END LIST*
D10*
%TO.C,Q3*%
X138142000Y-109307199D03*
X136082000Y-109307199D03*
X137112000Y-111507199D03*
%TD*%
D11*
%TO.C,Q5*%
X181520000Y-101807199D03*
X183580000Y-101807199D03*
X182550000Y-99607199D03*
%TD*%
D12*
%TO.C,R9*%
X180607200Y-104999999D03*
X186500000Y-104999999D03*
%TD*%
%TO.C,R5*%
X138058400Y-105999999D03*
X132165600Y-105999999D03*
%TD*%
%TO.C,R1*%
X138392800Y-65999999D03*
X132500000Y-65999999D03*
%TD*%
%TO.C,R11*%
X180107200Y-84999999D03*
X186000000Y-84999999D03*
%TD*%
D13*
%TO.C,R10*%
X186500000Y-96499999D03*
X180612000Y-96499999D03*
%TD*%
D11*
%TO.C,Q6*%
X179940000Y-81499999D03*
X182000000Y-81499999D03*
X180970000Y-79299999D03*
%TD*%
%TO.C,Q4*%
X180470000Y-121699999D03*
X182530000Y-121699999D03*
X181500000Y-119499999D03*
%TD*%
D10*
%TO.C,Q2*%
X138000000Y-88807199D03*
X135940000Y-88807199D03*
X136970000Y-91007199D03*
%TD*%
D12*
%TO.C,R3*%
X138000000Y-85499999D03*
X132107200Y-85499999D03*
%TD*%
D13*
%TO.C,R8*%
X186500000Y-116499999D03*
X180612000Y-116499999D03*
%TD*%
%TO.C,R12*%
X186000000Y-75999999D03*
X180112000Y-75999999D03*
%TD*%
D12*
%TO.C,R7*%
X180607200Y-124999999D03*
X186500000Y-124999999D03*
%TD*%
D13*
%TO.C,R2*%
X132500000Y-74499999D03*
X138388000Y-74499999D03*
%TD*%
%TO.C,R6*%
X132112000Y-114499999D03*
X138000000Y-114499999D03*
%TD*%
%TO.C,R4*%
X132000000Y-93999999D03*
X137888000Y-93999999D03*
%TD*%
D10*
%TO.C,Q1*%
X138530000Y-69299999D03*
X136470000Y-69299999D03*
X137500000Y-71499999D03*
%TD*%
M02*
