%TF.GenerationSoftware,KiCad,Pcbnew,8.0.5*%
%TF.CreationDate,2024-12-06T09:36:11-05:00*%
%TF.ProjectId,Passive Cap Bank V1,50617373-6976-4652-9043-61702042616e,rev?*%
%TF.SameCoordinates,Original*%
%TF.FileFunction,Profile,NP*%
%FSLAX46Y46*%
G04 Gerber Fmt 4.6, Leading zero omitted, Abs format (unit mm)*
G04 Created by KiCad (PCBNEW 8.0.5) date 2024-12-06 09:36:11*
%MOMM*%
%LPD*%
G01*
G04 APERTURE LIST*
%TA.AperFunction,Profile*%
%ADD10C,0.100000*%
%TD*%
%TA.AperFunction,Profile*%
%ADD11C,0.050000*%
%TD*%
G04 APERTURE END LIST*
D10*
X130650000Y-120250000D02*
G75*
G02*
X124350000Y-120250000I-3150000J0D01*
G01*
X124350000Y-120250000D02*
G75*
G02*
X130650000Y-120250000I3150000J0D01*
G01*
X138700000Y-49220000D02*
G75*
G02*
X135100000Y-49220000I-1800000J0D01*
G01*
X135100000Y-49220000D02*
G75*
G02*
X138700000Y-49220000I1800000J0D01*
G01*
X130650000Y-56250000D02*
G75*
G02*
X124350000Y-56250000I-3150000J0D01*
G01*
X124350000Y-56250000D02*
G75*
G02*
X130650000Y-56250000I3150000J0D01*
G01*
X194650000Y-120250000D02*
G75*
G02*
X188350000Y-120250000I-3150000J0D01*
G01*
X188350000Y-120250000D02*
G75*
G02*
X194650000Y-120250000I3150000J0D01*
G01*
X121500000Y-40250000D02*
X197500000Y-40250000D01*
X197500000Y-162250000D01*
X121500000Y-162250000D01*
X121500000Y-40250000D01*
X130650000Y-88250000D02*
G75*
G02*
X124350000Y-88250000I-3150000J0D01*
G01*
X124350000Y-88250000D02*
G75*
G02*
X130650000Y-88250000I3150000J0D01*
G01*
D11*
X173100000Y-146000000D02*
G75*
G02*
X170900000Y-146000000I-1100000J0D01*
G01*
X170900000Y-146000000D02*
G75*
G02*
X173100000Y-146000000I1100000J0D01*
G01*
X149100000Y-146000000D02*
G75*
G02*
X146900000Y-146000000I-1100000J0D01*
G01*
X146900000Y-146000000D02*
G75*
G02*
X149100000Y-146000000I1100000J0D01*
G01*
D10*
X194650000Y-152250000D02*
G75*
G02*
X188350000Y-152250000I-3150000J0D01*
G01*
X188350000Y-152250000D02*
G75*
G02*
X194650000Y-152250000I3150000J0D01*
G01*
X194650000Y-88250000D02*
G75*
G02*
X188350000Y-88250000I-3150000J0D01*
G01*
X188350000Y-88250000D02*
G75*
G02*
X194650000Y-88250000I3150000J0D01*
G01*
X130650000Y-152250000D02*
G75*
G02*
X124350000Y-152250000I-3150000J0D01*
G01*
X124350000Y-152250000D02*
G75*
G02*
X130650000Y-152250000I3150000J0D01*
G01*
M02*
