%TF.GenerationSoftware,KiCad,Pcbnew,8.0.5*%
%TF.CreationDate,2024-12-06T09:36:11-05:00*%
%TF.ProjectId,Passive Cap Bank V1,50617373-6976-4652-9043-61702042616e,rev?*%
%TF.SameCoordinates,Original*%
%TF.FileFunction,Legend,Bot*%
%TF.FilePolarity,Positive*%
%FSLAX46Y46*%
G04 Gerber Fmt 4.6, Leading zero omitted, Abs format (unit mm)*
G04 Created by KiCad (PCBNEW 8.0.5) date 2024-12-06 09:36:11*
%MOMM*%
%LPD*%
G01*
G04 APERTURE LIST*
%ADD10C,0.150000*%
%ADD11C,0.152400*%
%ADD12C,0.127000*%
%ADD13C,0.200000*%
G04 APERTURE END LIST*
D10*
X168123942Y-44827680D02*
X167790609Y-45303871D01*
X167552514Y-44827680D02*
X167552514Y-45827680D01*
X167552514Y-45827680D02*
X167933466Y-45827680D01*
X167933466Y-45827680D02*
X168028704Y-45780061D01*
X168028704Y-45780061D02*
X168076323Y-45732442D01*
X168076323Y-45732442D02*
X168123942Y-45637204D01*
X168123942Y-45637204D02*
X168123942Y-45494347D01*
X168123942Y-45494347D02*
X168076323Y-45399109D01*
X168076323Y-45399109D02*
X168028704Y-45351490D01*
X168028704Y-45351490D02*
X167933466Y-45303871D01*
X167933466Y-45303871D02*
X167552514Y-45303871D01*
X169076323Y-44827680D02*
X168504895Y-44827680D01*
X168790609Y-44827680D02*
X168790609Y-45827680D01*
X168790609Y-45827680D02*
X168695371Y-45684823D01*
X168695371Y-45684823D02*
X168600133Y-45589585D01*
X168600133Y-45589585D02*
X168504895Y-45541966D01*
X169933466Y-45494347D02*
X169933466Y-44827680D01*
X169695371Y-45875300D02*
X169457276Y-45161014D01*
X169457276Y-45161014D02*
X170076323Y-45161014D01*
X178595180Y-53728094D02*
X179595180Y-53728094D01*
X179595180Y-53728094D02*
X179595180Y-53489999D01*
X179595180Y-53489999D02*
X179547561Y-53347142D01*
X179547561Y-53347142D02*
X179452323Y-53251904D01*
X179452323Y-53251904D02*
X179357085Y-53204285D01*
X179357085Y-53204285D02*
X179166609Y-53156666D01*
X179166609Y-53156666D02*
X179023752Y-53156666D01*
X179023752Y-53156666D02*
X178833276Y-53204285D01*
X178833276Y-53204285D02*
X178738038Y-53251904D01*
X178738038Y-53251904D02*
X178642800Y-53347142D01*
X178642800Y-53347142D02*
X178595180Y-53489999D01*
X178595180Y-53489999D02*
X178595180Y-53728094D01*
X178595180Y-52204285D02*
X178595180Y-52775713D01*
X178595180Y-52489999D02*
X179595180Y-52489999D01*
X179595180Y-52489999D02*
X179452323Y-52585237D01*
X179452323Y-52585237D02*
X179357085Y-52680475D01*
X179357085Y-52680475D02*
X179309466Y-52775713D01*
X162165180Y-53582857D02*
X162641371Y-53916190D01*
X162165180Y-54154285D02*
X163165180Y-54154285D01*
X163165180Y-54154285D02*
X163165180Y-53773333D01*
X163165180Y-53773333D02*
X163117561Y-53678095D01*
X163117561Y-53678095D02*
X163069942Y-53630476D01*
X163069942Y-53630476D02*
X162974704Y-53582857D01*
X162974704Y-53582857D02*
X162831847Y-53582857D01*
X162831847Y-53582857D02*
X162736609Y-53630476D01*
X162736609Y-53630476D02*
X162688990Y-53678095D01*
X162688990Y-53678095D02*
X162641371Y-53773333D01*
X162641371Y-53773333D02*
X162641371Y-54154285D01*
X162165180Y-52630476D02*
X162165180Y-53201904D01*
X162165180Y-52916190D02*
X163165180Y-52916190D01*
X163165180Y-52916190D02*
X163022323Y-53011428D01*
X163022323Y-53011428D02*
X162927085Y-53106666D01*
X162927085Y-53106666D02*
X162879466Y-53201904D01*
X163165180Y-52297142D02*
X163165180Y-51678095D01*
X163165180Y-51678095D02*
X162784228Y-52011428D01*
X162784228Y-52011428D02*
X162784228Y-51868571D01*
X162784228Y-51868571D02*
X162736609Y-51773333D01*
X162736609Y-51773333D02*
X162688990Y-51725714D01*
X162688990Y-51725714D02*
X162593752Y-51678095D01*
X162593752Y-51678095D02*
X162355657Y-51678095D01*
X162355657Y-51678095D02*
X162260419Y-51725714D01*
X162260419Y-51725714D02*
X162212800Y-51773333D01*
X162212800Y-51773333D02*
X162165180Y-51868571D01*
X162165180Y-51868571D02*
X162165180Y-52154285D01*
X162165180Y-52154285D02*
X162212800Y-52249523D01*
X162212800Y-52249523D02*
X162260419Y-52297142D01*
X181057200Y-42256667D02*
X181104819Y-42399524D01*
X181104819Y-42399524D02*
X181104819Y-42637619D01*
X181104819Y-42637619D02*
X181057200Y-42732857D01*
X181057200Y-42732857D02*
X181009580Y-42780476D01*
X181009580Y-42780476D02*
X180914342Y-42828095D01*
X180914342Y-42828095D02*
X180819104Y-42828095D01*
X180819104Y-42828095D02*
X180723866Y-42780476D01*
X180723866Y-42780476D02*
X180676247Y-42732857D01*
X180676247Y-42732857D02*
X180628628Y-42637619D01*
X180628628Y-42637619D02*
X180581009Y-42447143D01*
X180581009Y-42447143D02*
X180533390Y-42351905D01*
X180533390Y-42351905D02*
X180485771Y-42304286D01*
X180485771Y-42304286D02*
X180390533Y-42256667D01*
X180390533Y-42256667D02*
X180295295Y-42256667D01*
X180295295Y-42256667D02*
X180200057Y-42304286D01*
X180200057Y-42304286D02*
X180152438Y-42351905D01*
X180152438Y-42351905D02*
X180104819Y-42447143D01*
X180104819Y-42447143D02*
X180104819Y-42685238D01*
X180104819Y-42685238D02*
X180152438Y-42828095D01*
X180104819Y-43161429D02*
X181104819Y-43399524D01*
X181104819Y-43399524D02*
X180390533Y-43590000D01*
X180390533Y-43590000D02*
X181104819Y-43780476D01*
X181104819Y-43780476D02*
X180104819Y-44018572D01*
X181104819Y-44923333D02*
X181104819Y-44351905D01*
X181104819Y-44637619D02*
X180104819Y-44637619D01*
X180104819Y-44637619D02*
X180247676Y-44542381D01*
X180247676Y-44542381D02*
X180342914Y-44447143D01*
X180342914Y-44447143D02*
X180390533Y-44351905D01*
D11*
%TO.C,R14*%
X166860200Y-41358400D02*
X166860200Y-44101600D01*
X166860200Y-44101600D02*
X173819800Y-44101600D01*
X173819800Y-41358400D02*
X166860200Y-41358400D01*
X173819800Y-44101600D02*
X173819800Y-41358400D01*
%TO.C,D1*%
X175314100Y-49935000D02*
X176076100Y-50570000D01*
X175314100Y-50062000D02*
X176076100Y-50570000D01*
X175314100Y-50189000D02*
X176076100Y-50570000D01*
X175314100Y-50316000D02*
X176076100Y-50570000D01*
X175314100Y-50443000D02*
X176076100Y-50570000D01*
X175314100Y-50697000D02*
X176076100Y-50570000D01*
X175314100Y-50824000D02*
X176076100Y-50570000D01*
X175314100Y-50951000D02*
X176076100Y-50570000D01*
X175314100Y-51078000D02*
X176076100Y-50570000D01*
X175314100Y-51205000D02*
X175314100Y-49935000D01*
X175314100Y-51205000D02*
X176076100Y-50570000D01*
X176076100Y-51205000D02*
X176076100Y-49935000D01*
X176330100Y-50570000D02*
X175060100Y-50570000D01*
X174806100Y-50570000D02*
G75*
G02*
X163553900Y-50570000I-5626100J0D01*
G01*
X163553900Y-50570000D02*
G75*
G02*
X174806100Y-50570000I5626100J0D01*
G01*
%TO.C,R13*%
X154739500Y-41043000D02*
X154739500Y-57299000D01*
X154739500Y-57299000D02*
X160200500Y-57299000D01*
X160200500Y-41043000D02*
X154739500Y-41043000D01*
X160200500Y-41170000D02*
X160200500Y-57172000D01*
X160200500Y-57299000D02*
X160200500Y-41043000D01*
X157597000Y-59077000D02*
G75*
G02*
X157343000Y-59077000I-127000J0D01*
G01*
X157343000Y-59077000D02*
G75*
G02*
X157597000Y-59077000I127000J0D01*
G01*
D12*
%TO.C,SW1*%
X181650000Y-42090000D02*
X181650000Y-74090000D01*
X181650000Y-74090000D02*
X195650000Y-74090000D01*
X195650000Y-42090000D02*
X181650000Y-42090000D01*
X195650000Y-74090000D02*
X195650000Y-42090000D01*
D13*
X188750000Y-74590000D02*
G75*
G02*
X188550000Y-74590000I-100000J0D01*
G01*
X188550000Y-74590000D02*
G75*
G02*
X188750000Y-74590000I100000J0D01*
G01*
%TD*%
M02*
