%TF.GenerationSoftware,KiCad,Pcbnew,8.0.5*%
%TF.CreationDate,2024-12-06T09:36:11-05:00*%
%TF.ProjectId,Passive Cap Bank V1,50617373-6976-4652-9043-61702042616e,rev?*%
%TF.SameCoordinates,Original*%
%TF.FileFunction,Soldermask,Bot*%
%TF.FilePolarity,Negative*%
%FSLAX46Y46*%
G04 Gerber Fmt 4.6, Leading zero omitted, Abs format (unit mm)*
G04 Created by KiCad (PCBNEW 8.0.5) date 2024-12-06 09:36:11*
%MOMM*%
%LPD*%
G01*
G04 APERTURE LIST*
G04 Aperture macros list*
%AMRoundRect*
0 Rectangle with rounded corners*
0 $1 Rounding radius*
0 $2 $3 $4 $5 $6 $7 $8 $9 X,Y pos of 4 corners*
0 Add a 4 corners polygon primitive as box body*
4,1,4,$2,$3,$4,$5,$6,$7,$8,$9,$2,$3,0*
0 Add four circle primitives for the rounded corners*
1,1,$1+$1,$2,$3*
1,1,$1+$1,$4,$5*
1,1,$1+$1,$6,$7*
1,1,$1+$1,$8,$9*
0 Add four rect primitives between the rounded corners*
20,1,$1+$1,$2,$3,$4,$5,0*
20,1,$1+$1,$4,$5,$6,$7,0*
20,1,$1+$1,$6,$7,$8,$9,0*
20,1,$1+$1,$8,$9,$2,$3,0*%
G04 Aperture macros list end*
%ADD10C,0.100000*%
%ADD11C,0.050000*%
%ADD12R,1.600200X1.600200*%
%ADD13C,1.600200*%
%ADD14C,2.754000*%
%ADD15RoundRect,0.102000X-1.275000X1.275000X-1.275000X-1.275000X1.275000X-1.275000X1.275000X1.275000X0*%
%ADD16C,1.712000*%
%ADD17R,1.397000X1.397000*%
%ADD18C,1.397000*%
%ADD19C,2.184400*%
%ADD20O,8.604000X4.404000*%
G04 APERTURE END LIST*
D10*
X152400000Y-63500000D02*
X146050000Y-63500000D01*
X146050000Y-96520000D01*
X132080000Y-96520000D01*
X132080000Y-83820000D01*
X123190000Y-83820000D01*
X123190000Y-60960000D01*
X132080000Y-60960000D01*
X132080000Y-52070000D01*
X123190000Y-52070000D01*
X123190000Y-41910000D01*
X152400000Y-41910000D01*
X152400000Y-63500000D01*
G36*
X152400000Y-63500000D02*
G01*
X146050000Y-63500000D01*
X146050000Y-96520000D01*
X132080000Y-96520000D01*
X132080000Y-83820000D01*
X123190000Y-83820000D01*
X123190000Y-60960000D01*
X132080000Y-60960000D01*
X132080000Y-52070000D01*
X123190000Y-52070000D01*
X123190000Y-41910000D01*
X152400000Y-41910000D01*
X152400000Y-63500000D01*
G37*
D11*
X131900000Y-41220000D02*
X152900000Y-41220000D01*
X152900000Y-57220000D01*
X131900000Y-57220000D01*
X131900000Y-41220000D01*
G36*
X131900000Y-41220000D02*
G01*
X152900000Y-41220000D01*
X152900000Y-57220000D01*
X131900000Y-57220000D01*
X131900000Y-41220000D01*
G37*
D12*
%TO.C,C1*%
X150000000Y-67000000D03*
D13*
X150000000Y-74999999D03*
%TD*%
D12*
%TO.C,C5*%
X168500000Y-104999998D03*
D13*
X168500000Y-96999999D03*
%TD*%
D12*
%TO.C,C3*%
X150000000Y-106999999D03*
D13*
X150000000Y-114999998D03*
%TD*%
D12*
%TO.C,C2*%
X150000000Y-86999999D03*
D13*
X150000000Y-94999998D03*
%TD*%
D12*
%TO.C,C4*%
X168500000Y-124999997D03*
D13*
X168500000Y-116999998D03*
%TD*%
D12*
%TO.C,C6*%
X168467626Y-85007199D03*
D13*
X168467626Y-77007200D03*
%TD*%
D14*
%TO.C,J1*%
X163000000Y-65500000D03*
D15*
X163000000Y-60500000D03*
D16*
X173000000Y-68500000D03*
X173000000Y-57500000D03*
%TD*%
D17*
%TO.C,R14*%
X175891170Y-42730000D03*
D18*
X164788830Y-42730000D03*
%TD*%
D17*
%TO.C,D1*%
X170450000Y-50570000D03*
D18*
X167910000Y-50570000D03*
%TD*%
D19*
%TO.C,R13*%
X157470000Y-54251000D03*
X157470000Y-44091000D03*
%TD*%
D20*
%TO.C,SW1*%
X188650000Y-68590000D03*
X188650000Y-58090000D03*
%TD*%
M02*
