M48
; DRILL file {KiCad 8.0.6} date 2025-01-23T15:53:39-0500
; FORMAT={-:-/ absolute / inch / decimal}
; #@! TF.CreationDate,2025-01-23T15:53:39-05:00
; #@! TF.GenerationSoftware,Kicad,Pcbnew,8.0.6
; #@! TF.FileFunction,Plated,1,2,PTH
FMAT,2
INCH
; #@! TA.AperFunction,Plated,PTH,ComponentDrill
T1C0.0350
; #@! TA.AperFunction,Plated,PTH,ComponentDrill
T2C0.0394
; #@! TA.AperFunction,Plated,PTH,ComponentDrill
T3C0.0430
; #@! TA.AperFunction,Plated,PTH,ComponentDrill
T4C0.0472
; #@! TA.AperFunction,Plated,PTH,ComponentDrill
T5C0.0660
; #@! TA.AperFunction,Plated,PTH,ComponentDrill
T6C0.0669
%
G90
G05
T1
X2.5557Y-2.7119
X2.7176Y-2.3776
X2.8176Y-2.3776
X2.9928Y-2.7119
T2
X4.6335Y-3.5618
X4.6335Y-3.9949
T3
X2.3425Y-4.9162
X2.3425Y-5.8217
X2.7362Y-4.9162
X2.7362Y-5.8217
X3.248Y-4.9162
X3.248Y-5.8217
X3.6417Y-4.9162
X3.6417Y-5.8217
X4.1535Y-4.9162
X4.1535Y-5.8217
X4.5472Y-4.9162
X4.5472Y-5.8217
T5
X3.5824Y-3.7549
X3.5824Y-4.1549
T6
X4.2398Y-3.6799
X4.2398Y-3.8768
T4
G00X3.7Y-2.3998
M15
G01X3.7Y-2.6202
M16
G05
G00X4.1134Y-2.3998
M15
G01X4.1134Y-2.6202
M16
G05
M30
