%TF.GenerationSoftware,KiCad,Pcbnew,8.0.8*%
%TF.CreationDate,2025-02-03T14:33:15-05:00*%
%TF.ProjectId,Passive Cap Bank V1,50617373-6976-4652-9043-61702042616e,1.0*%
%TF.SameCoordinates,Original*%
%TF.FileFunction,Paste,Bot*%
%TF.FilePolarity,Positive*%
%FSLAX46Y46*%
G04 Gerber Fmt 4.6, Leading zero omitted, Abs format (unit mm)*
G04 Created by KiCad (PCBNEW 8.0.8) date 2025-02-03 14:33:15*
%MOMM*%
%LPD*%
G01*
G04 APERTURE LIST*
G04 Aperture macros list*
%AMRoundRect*
0 Rectangle with rounded corners*
0 $1 Rounding radius*
0 $2 $3 $4 $5 $6 $7 $8 $9 X,Y pos of 4 corners*
0 Add a 4 corners polygon primitive as box body*
4,1,4,$2,$3,$4,$5,$6,$7,$8,$9,$2,$3,0*
0 Add four circle primitives for the rounded corners*
1,1,$1+$1,$2,$3*
1,1,$1+$1,$4,$5*
1,1,$1+$1,$6,$7*
1,1,$1+$1,$8,$9*
0 Add four rect primitives between the rounded corners*
20,1,$1+$1,$2,$3,$4,$5,0*
20,1,$1+$1,$4,$5,$6,$7,0*
20,1,$1+$1,$6,$7,$8,$9,0*
20,1,$1+$1,$8,$9,$2,$3,0*%
G04 Aperture macros list end*
%ADD10RoundRect,0.150000X0.350000X0.150000X-0.350000X0.150000X-0.350000X-0.150000X0.350000X-0.150000X0*%
%ADD11RoundRect,0.150000X-0.350000X-0.150000X0.350000X-0.150000X0.350000X0.150000X-0.350000X0.150000X0*%
%ADD12R,3.454400X1.320800*%
%ADD13R,3.460000X1.330000*%
G04 APERTURE END LIST*
D10*
%TO.C,Q3*%
X65710600Y-153650241D03*
X65710600Y-155710241D03*
X63510600Y-154680241D03*
%TD*%
D11*
%TO.C,Q5*%
X86284600Y-118852241D03*
X86284600Y-116792241D03*
X88484600Y-117822241D03*
%TD*%
D12*
%TO.C,R9*%
X82474600Y-120884241D03*
X82474600Y-114991441D03*
%TD*%
%TO.C,R5*%
X69774600Y-151618241D03*
X69774600Y-157511041D03*
%TD*%
%TO.C,R1*%
X115748600Y-151364241D03*
X115748600Y-157257041D03*
%TD*%
%TO.C,R11*%
X105588600Y-121138241D03*
X105588600Y-115245441D03*
%TD*%
D13*
%TO.C,R10*%
X92380600Y-114996241D03*
X92380600Y-120884241D03*
%TD*%
D11*
%TO.C,Q6*%
X109652600Y-119360241D03*
X109652600Y-117300241D03*
X111852600Y-118330241D03*
%TD*%
%TO.C,Q4*%
X63424600Y-119106241D03*
X63424600Y-117046241D03*
X65624600Y-118076241D03*
%TD*%
D10*
%TO.C,Q2*%
X88570600Y-153650241D03*
X88570600Y-155710241D03*
X86370600Y-154680241D03*
%TD*%
D12*
%TO.C,R3*%
X92634600Y-151872241D03*
X92634600Y-157765041D03*
%TD*%
D13*
%TO.C,R8*%
X69520600Y-115250241D03*
X69520600Y-121138241D03*
%TD*%
%TO.C,R12*%
X115748600Y-115250241D03*
X115748600Y-121138241D03*
%TD*%
D12*
%TO.C,R7*%
X59614600Y-121138241D03*
X59614600Y-115245441D03*
%TD*%
D13*
%TO.C,R2*%
X105334600Y-157252241D03*
X105334600Y-151364241D03*
%TD*%
%TO.C,R6*%
X59614600Y-157506241D03*
X59614600Y-151618241D03*
%TD*%
%TO.C,R4*%
X82728600Y-157506241D03*
X82728600Y-151618241D03*
%TD*%
D10*
%TO.C,Q1*%
X111430600Y-153142241D03*
X111430600Y-155202241D03*
X109230600Y-154172241D03*
%TD*%
M02*
