%TF.GenerationSoftware,KiCad,Pcbnew,8.0.8*%
%TF.CreationDate,2025-02-03T14:33:15-05:00*%
%TF.ProjectId,Passive Cap Bank V1,50617373-6976-4652-9043-61702042616e,1.0*%
%TF.SameCoordinates,Original*%
%TF.FileFunction,Copper,L1,Top*%
%TF.FilePolarity,Positive*%
%FSLAX46Y46*%
G04 Gerber Fmt 4.6, Leading zero omitted, Abs format (unit mm)*
G04 Created by KiCad (PCBNEW 8.0.8) date 2025-02-03 14:33:15*
%MOMM*%
%LPD*%
G01*
G04 APERTURE LIST*
%TA.AperFunction,WasherPad*%
%ADD10C,4.700000*%
%TD*%
%TA.AperFunction,ComponentPad*%
%ADD11R,2.600200X2.600200*%
%TD*%
%TA.AperFunction,ComponentPad*%
%ADD12R,1.600200X1.600200*%
%TD*%
%TA.AperFunction,ComponentPad*%
%ADD13C,2.600200*%
%TD*%
%TA.AperFunction,ComponentPad*%
%ADD14R,1.397000X1.397000*%
%TD*%
%TA.AperFunction,ComponentPad*%
%ADD15C,1.397000*%
%TD*%
%TA.AperFunction,ComponentPad*%
%ADD16O,4.200000X8.400000*%
%TD*%
%TA.AperFunction,ComponentPad*%
%ADD17C,2.550000*%
%TD*%
%TA.AperFunction,ComponentPad*%
%ADD18R,2.550000X2.550000*%
%TD*%
%TA.AperFunction,ComponentPad*%
%ADD19C,1.508000*%
%TD*%
%TA.AperFunction,ComponentPad*%
%ADD20C,2.184400*%
%TD*%
%TA.AperFunction,Conductor*%
%ADD21C,4.000000*%
%TD*%
%TA.AperFunction,Conductor*%
%ADD22C,1.250000*%
%TD*%
G04 APERTURE END LIST*
D10*
%TO.P,REF\u002A\u002A,*%
%TO.N,*%
X60020000Y-60000000D03*
%TD*%
%TO.P,REF\u002A\u002A,*%
%TO.N,*%
X115020000Y-60000000D03*
%TD*%
D11*
%TO.P,C1,1,+*%
%TO.N,V_15*%
X115500000Y-147872041D03*
D12*
X113500000Y-147872041D03*
D13*
%TO.P,C1,2,-*%
%TO.N,Net-(C1--)*%
X105500000Y-147872041D03*
%TD*%
D14*
%TO.P,R14,1*%
%TO.N,Net-(D1-K)*%
X64913630Y-68881500D03*
D15*
%TO.P,R14,2*%
%TO.N,GND*%
X76015970Y-68881500D03*
%TD*%
D11*
%TO.P,C5,1,+*%
%TO.N,Net-(C4--)*%
X82500000Y-124872041D03*
D12*
X84500000Y-124872041D03*
D13*
%TO.P,C5,2,-*%
%TO.N,Net-(C5--)*%
X92500000Y-124872041D03*
%TD*%
D11*
%TO.P,C3,1,+*%
%TO.N,Net-(C2--)*%
X69500000Y-147872041D03*
D12*
X67500000Y-147872041D03*
D13*
%TO.P,C3,2,-*%
%TO.N,Net-(C3--)*%
X59500000Y-147872041D03*
%TD*%
D14*
%TO.P,D1,1,K*%
%TO.N,Net-(D1-K)*%
X69026988Y-60390988D03*
D15*
%TO.P,D1,2,A*%
%TO.N,Net-(D1-A)*%
X71566988Y-60390988D03*
%TD*%
D11*
%TO.P,C2,1,+*%
%TO.N,Net-(C1--)*%
X92500000Y-147872041D03*
D12*
X90500000Y-147872041D03*
D13*
%TO.P,C2,2,-*%
%TO.N,Net-(C2--)*%
X82500000Y-147872041D03*
%TD*%
D11*
%TO.P,C4,1,+*%
%TO.N,Net-(C3--)*%
X59500000Y-124872041D03*
D12*
X61500000Y-124872041D03*
D13*
%TO.P,C4,2,-*%
%TO.N,Net-(C4--)*%
X69500000Y-124872041D03*
%TD*%
D10*
%TO.P,REF\u002A\u002A,*%
%TO.N,*%
X115020000Y-165000000D03*
%TD*%
%TO.P,REF\u002A\u002A,*%
%TO.N,*%
X76020000Y-136372041D03*
%TD*%
D16*
%TO.P,SW1,1,A*%
%TO.N,V_15*%
X104480000Y-63754000D03*
%TO.P,SW1,2,B*%
%TO.N,Net-(D1-A)*%
X93980000Y-63754000D03*
%TD*%
D11*
%TO.P,C6,1,+*%
%TO.N,Net-(C5--)*%
X105500000Y-124872041D03*
D12*
X107500000Y-124872041D03*
D13*
%TO.P,C6,2,-*%
%TO.N,GND*%
X115500000Y-124872041D03*
%TD*%
D17*
%TO.P,J1,N*%
%TO.N,GND*%
X107690000Y-98470000D03*
D18*
%TO.P,J1,P*%
%TO.N,V_15*%
X107690000Y-93470000D03*
D19*
%TO.P,J1,S1*%
%TO.N,N/C*%
X117690000Y-101470000D03*
%TO.P,J1,S2*%
X117690000Y-90470000D03*
%TD*%
D10*
%TO.P,REF\u002A\u002A,*%
%TO.N,*%
X115020000Y-107500000D03*
%TD*%
%TO.P,REF\u002A\u002A,*%
%TO.N,*%
X60040000Y-107500000D03*
%TD*%
%TO.P,REF\u002A\u002A,*%
%TO.N,*%
X60020000Y-165000000D03*
%TD*%
%TO.P,REF\u002A\u002A,*%
%TO.N,*%
X99020000Y-136372041D03*
%TD*%
D20*
%TO.P,R13,1*%
%TO.N,Net-(D1-A)*%
X90992000Y-95375000D03*
%TO.P,R13,3*%
%TO.N,GND*%
X90992000Y-105535000D03*
%TD*%
D21*
%TO.N,V_15*%
X121300000Y-99690000D02*
X115080000Y-93470000D01*
X107690000Y-66964000D02*
X104480000Y-63754000D01*
X121300000Y-142072041D02*
X121300000Y-99690000D01*
X115500000Y-147872041D02*
X121300000Y-142072041D01*
X107690000Y-93470000D02*
X107690000Y-66964000D01*
X113500000Y-147872041D02*
X115500000Y-147872041D01*
X115080000Y-93470000D02*
X107690000Y-93470000D01*
%TO.N,Net-(C1--)*%
X90500000Y-147872041D02*
X92500000Y-147872041D01*
X92500000Y-147872041D02*
X105500000Y-147872041D01*
%TO.N,Net-(C2--)*%
X67500000Y-147872041D02*
X69500000Y-147872041D01*
X69500000Y-147872041D02*
X82500000Y-147872041D01*
%TO.N,Net-(C3--)*%
X59500000Y-124872041D02*
X59500000Y-147872041D01*
X61500000Y-124872041D02*
X59500000Y-124872041D01*
%TO.N,Net-(C4--)*%
X82500000Y-124872041D02*
X69500000Y-124872041D01*
X84500000Y-124872041D02*
X82500000Y-124872041D01*
%TO.N,Net-(C5--)*%
X107500000Y-124872041D02*
X105500000Y-124872041D01*
X105500000Y-124872041D02*
X92500000Y-124872041D01*
D22*
%TO.N,GND*%
X76015970Y-90558970D02*
X76015970Y-68881500D01*
D21*
X107690000Y-98470000D02*
X100625000Y-105535000D01*
X115500000Y-124872041D02*
X100625000Y-109997041D01*
X100625000Y-109997041D02*
X100625000Y-105535000D01*
D22*
X90992000Y-105535000D02*
X76015970Y-90558970D01*
D21*
X100625000Y-105535000D02*
X90992000Y-105535000D01*
D22*
%TO.N,Net-(D1-K)*%
X64913630Y-68881500D02*
X64913630Y-64504346D01*
X64913630Y-64504346D02*
X69026988Y-60390988D01*
%TO.N,Net-(D1-A)*%
X78911194Y-60390988D02*
X88127103Y-69606897D01*
D21*
X88127103Y-92510103D02*
X88127103Y-69606897D01*
D22*
X71566988Y-60390988D02*
X78911194Y-60390988D01*
D21*
X90992000Y-95375000D02*
X88127103Y-92510103D01*
X88127103Y-69606897D02*
X93980000Y-63754000D01*
%TD*%
M02*
