%TF.GenerationSoftware,KiCad,Pcbnew,8.0.8*%
%TF.CreationDate,2025-02-03T14:33:15-05:00*%
%TF.ProjectId,Passive Cap Bank V1,50617373-6976-4652-9043-61702042616e,1.0*%
%TF.SameCoordinates,Original*%
%TF.FileFunction,Copper,L2,Bot*%
%TF.FilePolarity,Positive*%
%FSLAX46Y46*%
G04 Gerber Fmt 4.6, Leading zero omitted, Abs format (unit mm)*
G04 Created by KiCad (PCBNEW 8.0.8) date 2025-02-03 14:33:15*
%MOMM*%
%LPD*%
G01*
G04 APERTURE LIST*
G04 Aperture macros list*
%AMRoundRect*
0 Rectangle with rounded corners*
0 $1 Rounding radius*
0 $2 $3 $4 $5 $6 $7 $8 $9 X,Y pos of 4 corners*
0 Add a 4 corners polygon primitive as box body*
4,1,4,$2,$3,$4,$5,$6,$7,$8,$9,$2,$3,0*
0 Add four circle primitives for the rounded corners*
1,1,$1+$1,$2,$3*
1,1,$1+$1,$4,$5*
1,1,$1+$1,$6,$7*
1,1,$1+$1,$8,$9*
0 Add four rect primitives between the rounded corners*
20,1,$1+$1,$2,$3,$4,$5,0*
20,1,$1+$1,$4,$5,$6,$7,0*
20,1,$1+$1,$6,$7,$8,$9,0*
20,1,$1+$1,$8,$9,$2,$3,0*%
G04 Aperture macros list end*
%TA.AperFunction,WasherPad*%
%ADD10C,4.700000*%
%TD*%
%TA.AperFunction,ComponentPad*%
%ADD11R,2.600200X2.600200*%
%TD*%
%TA.AperFunction,ComponentPad*%
%ADD12R,1.600200X1.600200*%
%TD*%
%TA.AperFunction,ComponentPad*%
%ADD13C,2.600200*%
%TD*%
%TA.AperFunction,ComponentPad*%
%ADD14R,1.397000X1.397000*%
%TD*%
%TA.AperFunction,ComponentPad*%
%ADD15C,1.397000*%
%TD*%
%TA.AperFunction,ComponentPad*%
%ADD16O,4.200000X8.400000*%
%TD*%
%TA.AperFunction,ComponentPad*%
%ADD17C,2.550000*%
%TD*%
%TA.AperFunction,ComponentPad*%
%ADD18R,2.550000X2.550000*%
%TD*%
%TA.AperFunction,ComponentPad*%
%ADD19C,1.508000*%
%TD*%
%TA.AperFunction,SMDPad,CuDef*%
%ADD20RoundRect,0.150000X0.350000X0.150000X-0.350000X0.150000X-0.350000X-0.150000X0.350000X-0.150000X0*%
%TD*%
%TA.AperFunction,SMDPad,CuDef*%
%ADD21RoundRect,0.150000X-0.350000X-0.150000X0.350000X-0.150000X0.350000X0.150000X-0.350000X0.150000X0*%
%TD*%
%TA.AperFunction,SMDPad,CuDef*%
%ADD22R,3.454400X1.320800*%
%TD*%
%TA.AperFunction,SMDPad,CuDef*%
%ADD23R,3.460000X1.330000*%
%TD*%
%TA.AperFunction,ComponentPad*%
%ADD24C,2.184400*%
%TD*%
%TA.AperFunction,Conductor*%
%ADD25C,1.250000*%
%TD*%
G04 APERTURE END LIST*
D10*
%TO.P,REF\u002A\u002A,*%
%TO.N,*%
X60020000Y-60000000D03*
%TD*%
%TO.P,REF\u002A\u002A,*%
%TO.N,*%
X115020000Y-60000000D03*
%TD*%
D11*
%TO.P,C1,1,+*%
%TO.N,V_15*%
X115500000Y-147872041D03*
D12*
X113500000Y-147872041D03*
D13*
%TO.P,C1,2,-*%
%TO.N,Net-(C1--)*%
X105500000Y-147872041D03*
%TD*%
D14*
%TO.P,R14,1*%
%TO.N,Net-(D1-K)*%
X64913630Y-68881500D03*
D15*
%TO.P,R14,2*%
%TO.N,GND*%
X76015970Y-68881500D03*
%TD*%
D11*
%TO.P,C5,1,+*%
%TO.N,Net-(C4--)*%
X82500000Y-124872041D03*
D12*
X84500000Y-124872041D03*
D13*
%TO.P,C5,2,-*%
%TO.N,Net-(C5--)*%
X92500000Y-124872041D03*
%TD*%
D11*
%TO.P,C3,1,+*%
%TO.N,Net-(C2--)*%
X69500000Y-147872041D03*
D12*
X67500000Y-147872041D03*
D13*
%TO.P,C3,2,-*%
%TO.N,Net-(C3--)*%
X59500000Y-147872041D03*
%TD*%
D14*
%TO.P,D1,1,K*%
%TO.N,Net-(D1-K)*%
X69026988Y-60390988D03*
D15*
%TO.P,D1,2,A*%
%TO.N,Net-(D1-A)*%
X71566988Y-60390988D03*
%TD*%
D11*
%TO.P,C2,1,+*%
%TO.N,Net-(C1--)*%
X92500000Y-147872041D03*
D12*
X90500000Y-147872041D03*
D13*
%TO.P,C2,2,-*%
%TO.N,Net-(C2--)*%
X82500000Y-147872041D03*
%TD*%
D11*
%TO.P,C4,1,+*%
%TO.N,Net-(C3--)*%
X59500000Y-124872041D03*
D12*
X61500000Y-124872041D03*
D13*
%TO.P,C4,2,-*%
%TO.N,Net-(C4--)*%
X69500000Y-124872041D03*
%TD*%
D10*
%TO.P,REF\u002A\u002A,*%
%TO.N,*%
X115020000Y-165000000D03*
%TD*%
%TO.P,REF\u002A\u002A,*%
%TO.N,*%
X76020000Y-136372041D03*
%TD*%
D16*
%TO.P,SW1,1,A*%
%TO.N,V_15*%
X104480000Y-63754000D03*
%TO.P,SW1,2,B*%
%TO.N,Net-(D1-A)*%
X93980000Y-63754000D03*
%TD*%
D11*
%TO.P,C6,1,+*%
%TO.N,Net-(C5--)*%
X105500000Y-124872041D03*
D12*
X107500000Y-124872041D03*
D13*
%TO.P,C6,2,-*%
%TO.N,GND*%
X115500000Y-124872041D03*
%TD*%
D17*
%TO.P,J1,N*%
%TO.N,GND*%
X107690000Y-98470000D03*
D18*
%TO.P,J1,P*%
%TO.N,V_15*%
X107690000Y-93470000D03*
D19*
%TO.P,J1,S1*%
%TO.N,N/C*%
X117690000Y-101470000D03*
%TO.P,J1,S2*%
X117690000Y-90470000D03*
%TD*%
D10*
%TO.P,REF\u002A\u002A,*%
%TO.N,*%
X115020000Y-107500000D03*
%TD*%
%TO.P,REF\u002A\u002A,*%
%TO.N,*%
X60040000Y-107500000D03*
%TD*%
%TO.P,REF\u002A\u002A,*%
%TO.N,*%
X60020000Y-165000000D03*
%TD*%
%TO.P,REF\u002A\u002A,*%
%TO.N,*%
X99020000Y-136372041D03*
%TD*%
D20*
%TO.P,Q3,1,C*%
%TO.N,Net-(C2--)*%
X65710600Y-153650241D03*
%TO.P,Q3,2,B*%
%TO.N,Net-(Q3-B)*%
X65710600Y-155710241D03*
%TO.P,Q3,3,E*%
%TO.N,Net-(C3--)*%
X63510600Y-154680241D03*
%TD*%
D21*
%TO.P,Q5,1,C*%
%TO.N,Net-(C4--)*%
X86284600Y-118852241D03*
%TO.P,Q5,2,B*%
%TO.N,Net-(Q5-B)*%
X86284600Y-116792241D03*
%TO.P,Q5,3,E*%
%TO.N,Net-(C5--)*%
X88484600Y-117822241D03*
%TD*%
D22*
%TO.P,R9,1*%
%TO.N,Net-(C4--)*%
X82474600Y-120884241D03*
%TO.P,R9,2*%
%TO.N,Net-(Q5-B)*%
X82474600Y-114991441D03*
%TD*%
%TO.P,R5,1*%
%TO.N,Net-(C2--)*%
X69774600Y-151618241D03*
%TO.P,R5,2*%
%TO.N,Net-(Q3-B)*%
X69774600Y-157511041D03*
%TD*%
%TO.P,R1,1*%
%TO.N,V_15*%
X115748600Y-151364241D03*
%TO.P,R1,2*%
%TO.N,Net-(Q1-B)*%
X115748600Y-157257041D03*
%TD*%
%TO.P,R11,1*%
%TO.N,Net-(C5--)*%
X105588600Y-121138241D03*
%TO.P,R11,2*%
%TO.N,Net-(Q6-B)*%
X105588600Y-115245441D03*
%TD*%
D23*
%TO.P,R10,1*%
%TO.N,Net-(Q5-B)*%
X92380600Y-114996241D03*
%TO.P,R10,2*%
%TO.N,Net-(C5--)*%
X92380600Y-120884241D03*
%TD*%
D21*
%TO.P,Q6,1,C*%
%TO.N,Net-(C5--)*%
X109652600Y-119360241D03*
%TO.P,Q6,2,B*%
%TO.N,Net-(Q6-B)*%
X109652600Y-117300241D03*
%TO.P,Q6,3,E*%
%TO.N,GND*%
X111852600Y-118330241D03*
%TD*%
%TO.P,Q4,1,C*%
%TO.N,Net-(C3--)*%
X63424600Y-119106241D03*
%TO.P,Q4,2,B*%
%TO.N,Net-(Q4-B)*%
X63424600Y-117046241D03*
%TO.P,Q4,3,E*%
%TO.N,Net-(C4--)*%
X65624600Y-118076241D03*
%TD*%
D20*
%TO.P,Q2,1,C*%
%TO.N,Net-(C1--)*%
X88570600Y-153650241D03*
%TO.P,Q2,2,B*%
%TO.N,Net-(Q2-B)*%
X88570600Y-155710241D03*
%TO.P,Q2,3,E*%
%TO.N,Net-(C2--)*%
X86370600Y-154680241D03*
%TD*%
D22*
%TO.P,R3,1*%
%TO.N,Net-(C1--)*%
X92634600Y-151872241D03*
%TO.P,R3,2*%
%TO.N,Net-(Q2-B)*%
X92634600Y-157765041D03*
%TD*%
D23*
%TO.P,R8,1*%
%TO.N,Net-(Q4-B)*%
X69520600Y-115250241D03*
%TO.P,R8,2*%
%TO.N,Net-(C4--)*%
X69520600Y-121138241D03*
%TD*%
D24*
%TO.P,R13,1*%
%TO.N,Net-(D1-A)*%
X90992000Y-95375000D03*
%TO.P,R13,3*%
%TO.N,GND*%
X90992000Y-105535000D03*
%TD*%
D23*
%TO.P,R12,1*%
%TO.N,Net-(Q6-B)*%
X115748600Y-115250241D03*
%TO.P,R12,2*%
%TO.N,GND*%
X115748600Y-121138241D03*
%TD*%
D22*
%TO.P,R7,1*%
%TO.N,Net-(C3--)*%
X59614600Y-121138241D03*
%TO.P,R7,2*%
%TO.N,Net-(Q4-B)*%
X59614600Y-115245441D03*
%TD*%
D23*
%TO.P,R2,1*%
%TO.N,Net-(Q1-B)*%
X105334600Y-157252241D03*
%TO.P,R2,2*%
%TO.N,Net-(C1--)*%
X105334600Y-151364241D03*
%TD*%
%TO.P,R6,1*%
%TO.N,Net-(Q3-B)*%
X59614600Y-157506241D03*
%TO.P,R6,2*%
%TO.N,Net-(C3--)*%
X59614600Y-151618241D03*
%TD*%
%TO.P,R4,1*%
%TO.N,Net-(Q2-B)*%
X82728600Y-157506241D03*
%TO.P,R4,2*%
%TO.N,Net-(C2--)*%
X82728600Y-151618241D03*
%TD*%
D20*
%TO.P,Q1,1,C*%
%TO.N,V_15*%
X111430600Y-153142241D03*
%TO.P,Q1,2,B*%
%TO.N,Net-(Q1-B)*%
X111430600Y-155202241D03*
%TO.P,Q1,3,E*%
%TO.N,Net-(C1--)*%
X109230600Y-154172241D03*
%TD*%
D25*
%TO.N,V_15*%
X113208600Y-151364241D02*
X115748600Y-151364241D01*
X115748600Y-151364241D02*
X115748600Y-148120641D01*
X111430600Y-153142241D02*
X113208600Y-151364241D01*
X115748600Y-148120641D02*
X115500000Y-147872041D01*
%TO.N,Net-(C1--)*%
X105334600Y-148037441D02*
X105500000Y-147872041D01*
X92634600Y-148006641D02*
X92500000Y-147872041D01*
X90348600Y-151872241D02*
X92634600Y-151872241D01*
X105334600Y-151364241D02*
X105334600Y-148037441D01*
X108142600Y-154172241D02*
X105334600Y-151364241D01*
X109230600Y-154172241D02*
X108142600Y-154172241D01*
X88570600Y-153650241D02*
X90348600Y-151872241D01*
X92634600Y-151872241D02*
X92634600Y-148006641D01*
%TO.N,Net-(C2--)*%
X85790600Y-154680241D02*
X82728600Y-151618241D01*
X69774600Y-151618241D02*
X69774600Y-148146641D01*
X69774600Y-148146641D02*
X69500000Y-147872041D01*
X82728600Y-148100641D02*
X82500000Y-147872041D01*
X86370600Y-154680241D02*
X85790600Y-154680241D01*
X69774600Y-151618241D02*
X67742600Y-151618241D01*
X67742600Y-151618241D02*
X65710600Y-153650241D01*
X82728600Y-151618241D02*
X82728600Y-148100641D01*
%TO.N,Net-(C3--)*%
X59614600Y-121138241D02*
X59614600Y-124757441D01*
X63510600Y-154680241D02*
X62676600Y-154680241D01*
X59614600Y-121138241D02*
X62591800Y-121138241D01*
X62591800Y-121138241D02*
X63424600Y-120305441D01*
X59614600Y-124757441D02*
X59500000Y-124872041D01*
X59614600Y-147986641D02*
X59500000Y-147872041D01*
X59614600Y-151618241D02*
X59614600Y-147986641D01*
X63424600Y-120305441D02*
X63424600Y-119106241D01*
X62676600Y-154680241D02*
X59614600Y-151618241D01*
%TO.N,Net-(C4--)*%
X85451800Y-120884241D02*
X86284600Y-120051441D01*
X82474600Y-120884241D02*
X85451800Y-120884241D01*
X65624600Y-118076241D02*
X66458600Y-118076241D01*
X69520600Y-124851441D02*
X69500000Y-124872041D01*
X82474600Y-120884241D02*
X82474600Y-124846641D01*
X69520600Y-121138241D02*
X69520600Y-124851441D01*
X86284600Y-120051441D02*
X86284600Y-118852241D01*
X82474600Y-124846641D02*
X82500000Y-124872041D01*
X66458600Y-118076241D02*
X69520600Y-121138241D01*
%TO.N,Net-(C5--)*%
X107874600Y-121138241D02*
X109652600Y-119360241D01*
X92380600Y-120884241D02*
X92380600Y-124752641D01*
X89318600Y-117822241D02*
X92380600Y-120884241D01*
X105588600Y-124783441D02*
X105500000Y-124872041D01*
X88484600Y-117822241D02*
X89318600Y-117822241D01*
X105588600Y-121138241D02*
X105588600Y-124783441D01*
X105588600Y-121138241D02*
X107874600Y-121138241D01*
X92380600Y-124752641D02*
X92500000Y-124872041D01*
%TO.N,GND*%
X115748600Y-121138241D02*
X115748600Y-124623441D01*
X115748600Y-124623441D02*
X115500000Y-124872041D01*
X114660600Y-121138241D02*
X111852600Y-118330241D01*
X115748600Y-121138241D02*
X114660600Y-121138241D01*
%TO.N,Net-(Q1-B)*%
X105334600Y-157252241D02*
X109380600Y-157252241D01*
X115748600Y-157257041D02*
X113485400Y-157257041D01*
X113485400Y-157257041D02*
X111430600Y-155202241D01*
X109380600Y-157252241D02*
X111430600Y-155202241D01*
%TO.N,Net-(Q2-B)*%
X88570600Y-155710241D02*
X86774600Y-157506241D01*
X92634600Y-157765041D02*
X90625400Y-157765041D01*
X90625400Y-157765041D02*
X88570600Y-155710241D01*
X86774600Y-157506241D02*
X82728600Y-157506241D01*
%TO.N,Net-(Q3-B)*%
X69774600Y-157511041D02*
X67511400Y-157511041D01*
X67511400Y-157511041D02*
X65710600Y-155710241D01*
X59614600Y-157506241D02*
X63914600Y-157506241D01*
X63914600Y-157506241D02*
X65710600Y-155710241D01*
%TO.N,Net-(Q4-B)*%
X61623800Y-115245441D02*
X63424600Y-117046241D01*
X59614600Y-115245441D02*
X61623800Y-115245441D01*
X65220600Y-115250241D02*
X69520600Y-115250241D01*
X63424600Y-117046241D02*
X65220600Y-115250241D01*
%TO.N,Net-(Q5-B)*%
X84483800Y-114991441D02*
X82474600Y-114991441D01*
X86284600Y-116792241D02*
X84483800Y-114991441D01*
X88080600Y-114996241D02*
X92380600Y-114996241D01*
X86284600Y-116792241D02*
X88080600Y-114996241D01*
%TO.N,Net-(Q6-B)*%
X107597800Y-115245441D02*
X109652600Y-117300241D01*
X105588600Y-115245441D02*
X107597800Y-115245441D01*
X115748600Y-115250241D02*
X111702600Y-115250241D01*
X111702600Y-115250241D02*
X109652600Y-117300241D01*
%TD*%
%TA.AperFunction,Conductor*%
%TO.N,GND*%
G36*
X124442539Y-50520185D02*
G01*
X124488294Y-50572989D01*
X124499500Y-50624500D01*
X124499500Y-174375500D01*
X124479815Y-174442539D01*
X124427011Y-174488294D01*
X124375500Y-174499500D01*
X50624500Y-174499500D01*
X50557461Y-174479815D01*
X50511706Y-174427011D01*
X50500500Y-174375500D01*
X50500500Y-165000000D01*
X55664567Y-165000000D01*
X55684289Y-165414014D01*
X55743275Y-165824272D01*
X55840993Y-166227068D01*
X55840996Y-166227079D01*
X55976550Y-166618735D01*
X55976560Y-166618760D01*
X56148739Y-166995779D01*
X56355980Y-167354730D01*
X56355986Y-167354739D01*
X56596397Y-167692349D01*
X56596398Y-167692350D01*
X56867825Y-168005593D01*
X57167798Y-168291617D01*
X57493601Y-168547831D01*
X57842284Y-168771916D01*
X58210688Y-168961841D01*
X58210693Y-168961843D01*
X58210697Y-168961845D01*
X58466848Y-169064392D01*
X58595477Y-169115888D01*
X58993168Y-169232660D01*
X59400157Y-169311101D01*
X59812760Y-169350500D01*
X59812766Y-169350500D01*
X60227234Y-169350500D01*
X60227240Y-169350500D01*
X60639843Y-169311101D01*
X61046832Y-169232660D01*
X61444523Y-169115888D01*
X61829312Y-168961841D01*
X62197717Y-168771916D01*
X62333149Y-168684878D01*
X62546380Y-168547844D01*
X62546388Y-168547838D01*
X62546399Y-168547831D01*
X62872202Y-168291617D01*
X63172175Y-168005593D01*
X63443602Y-167692350D01*
X63684023Y-167354725D01*
X63891263Y-166995775D01*
X64063444Y-166618751D01*
X64199007Y-166227067D01*
X64296725Y-165824271D01*
X64355711Y-165414010D01*
X64375433Y-165000000D01*
X110664567Y-165000000D01*
X110684289Y-165414014D01*
X110743275Y-165824272D01*
X110840993Y-166227068D01*
X110840996Y-166227079D01*
X110976550Y-166618735D01*
X110976560Y-166618760D01*
X111148739Y-166995779D01*
X111355980Y-167354730D01*
X111355986Y-167354739D01*
X111596397Y-167692349D01*
X111596398Y-167692350D01*
X111867825Y-168005593D01*
X112167798Y-168291617D01*
X112493601Y-168547831D01*
X112842284Y-168771916D01*
X113210688Y-168961841D01*
X113210693Y-168961843D01*
X113210697Y-168961845D01*
X113466848Y-169064392D01*
X113595477Y-169115888D01*
X113993168Y-169232660D01*
X114400157Y-169311101D01*
X114812760Y-169350500D01*
X114812766Y-169350500D01*
X115227234Y-169350500D01*
X115227240Y-169350500D01*
X115639843Y-169311101D01*
X116046832Y-169232660D01*
X116444523Y-169115888D01*
X116829312Y-168961841D01*
X117197717Y-168771916D01*
X117333149Y-168684878D01*
X117546380Y-168547844D01*
X117546388Y-168547838D01*
X117546399Y-168547831D01*
X117872202Y-168291617D01*
X118172175Y-168005593D01*
X118443602Y-167692350D01*
X118684023Y-167354725D01*
X118891263Y-166995775D01*
X119063444Y-166618751D01*
X119199007Y-166227067D01*
X119296725Y-165824271D01*
X119355711Y-165414010D01*
X119375433Y-165000000D01*
X119355711Y-164585990D01*
X119296725Y-164175729D01*
X119199007Y-163772933D01*
X119063444Y-163381249D01*
X118891263Y-163004225D01*
X118684023Y-162645275D01*
X118684019Y-162645269D01*
X118684013Y-162645260D01*
X118443602Y-162307650D01*
X118172177Y-161994409D01*
X117872211Y-161708392D01*
X117872202Y-161708383D01*
X117546399Y-161452169D01*
X117546392Y-161452164D01*
X117546380Y-161452155D01*
X117197724Y-161228088D01*
X117197717Y-161228084D01*
X116829302Y-161038154D01*
X116444524Y-160884112D01*
X116444512Y-160884108D01*
X116046837Y-160767341D01*
X116046820Y-160767337D01*
X115639858Y-160688901D01*
X115639846Y-160688899D01*
X115502308Y-160675766D01*
X115227240Y-160649500D01*
X114812760Y-160649500D01*
X114565198Y-160673139D01*
X114400153Y-160688899D01*
X114400141Y-160688901D01*
X113993179Y-160767337D01*
X113993162Y-160767341D01*
X113595487Y-160884108D01*
X113595475Y-160884112D01*
X113210697Y-161038154D01*
X112842287Y-161228082D01*
X112493612Y-161452161D01*
X112493605Y-161452166D01*
X112493601Y-161452169D01*
X112346114Y-161568153D01*
X112167797Y-161708383D01*
X112167788Y-161708392D01*
X111867822Y-161994409D01*
X111596397Y-162307650D01*
X111355986Y-162645260D01*
X111355980Y-162645269D01*
X111148739Y-163004220D01*
X110976560Y-163381239D01*
X110976550Y-163381264D01*
X110840996Y-163772920D01*
X110840993Y-163772931D01*
X110743275Y-164175727D01*
X110684289Y-164585985D01*
X110664567Y-165000000D01*
X64375433Y-165000000D01*
X64355711Y-164585990D01*
X64296725Y-164175729D01*
X64199007Y-163772933D01*
X64063444Y-163381249D01*
X63891263Y-163004225D01*
X63684023Y-162645275D01*
X63684019Y-162645269D01*
X63684013Y-162645260D01*
X63443602Y-162307650D01*
X63172177Y-161994409D01*
X62872211Y-161708392D01*
X62872202Y-161708383D01*
X62546399Y-161452169D01*
X62546392Y-161452164D01*
X62546380Y-161452155D01*
X62197724Y-161228088D01*
X62197717Y-161228084D01*
X61829302Y-161038154D01*
X61444524Y-160884112D01*
X61444512Y-160884108D01*
X61046837Y-160767341D01*
X61046820Y-160767337D01*
X60639858Y-160688901D01*
X60639846Y-160688899D01*
X60502308Y-160675766D01*
X60227240Y-160649500D01*
X59812760Y-160649500D01*
X59565198Y-160673139D01*
X59400153Y-160688899D01*
X59400141Y-160688901D01*
X58993179Y-160767337D01*
X58993162Y-160767341D01*
X58595487Y-160884108D01*
X58595475Y-160884112D01*
X58210697Y-161038154D01*
X57842287Y-161228082D01*
X57493612Y-161452161D01*
X57493605Y-161452166D01*
X57493601Y-161452169D01*
X57346114Y-161568153D01*
X57167797Y-161708383D01*
X57167788Y-161708392D01*
X56867822Y-161994409D01*
X56596397Y-162307650D01*
X56355986Y-162645260D01*
X56355980Y-162645269D01*
X56148739Y-163004220D01*
X55976560Y-163381239D01*
X55976550Y-163381264D01*
X55840996Y-163772920D01*
X55840993Y-163772931D01*
X55743275Y-164175727D01*
X55684289Y-164585985D01*
X55664567Y-165000000D01*
X50500500Y-165000000D01*
X50500500Y-150881790D01*
X55884100Y-150881790D01*
X55884100Y-152354691D01*
X55899404Y-152568674D01*
X55960228Y-152848278D01*
X55960230Y-152848284D01*
X55960231Y-152848287D01*
X56059172Y-153113558D01*
X56060235Y-153116407D01*
X56197370Y-153367550D01*
X56197375Y-153367558D01*
X56368854Y-153596628D01*
X56368870Y-153596646D01*
X56571194Y-153798970D01*
X56571212Y-153798986D01*
X56800282Y-153970465D01*
X56800290Y-153970470D01*
X57051433Y-154107605D01*
X57051432Y-154107605D01*
X57051436Y-154107606D01*
X57051439Y-154107608D01*
X57319554Y-154207610D01*
X57319560Y-154207611D01*
X57319562Y-154207612D01*
X57599166Y-154268436D01*
X57599168Y-154268436D01*
X57599172Y-154268437D01*
X57813152Y-154283741D01*
X58515721Y-154283741D01*
X58582760Y-154303426D01*
X58603402Y-154320060D01*
X58912402Y-154629060D01*
X58945887Y-154690383D01*
X58940903Y-154760075D01*
X58899031Y-154816008D01*
X58833567Y-154840425D01*
X58824721Y-154840741D01*
X57813149Y-154840741D01*
X57599166Y-154856045D01*
X57319562Y-154916869D01*
X57051433Y-155016876D01*
X56800290Y-155154011D01*
X56800282Y-155154016D01*
X56571212Y-155325495D01*
X56571194Y-155325511D01*
X56368870Y-155527835D01*
X56368854Y-155527853D01*
X56197375Y-155756923D01*
X56197370Y-155756931D01*
X56060235Y-156008074D01*
X55960228Y-156276203D01*
X55899404Y-156555807D01*
X55884100Y-156769790D01*
X55884100Y-158242691D01*
X55899404Y-158456674D01*
X55960228Y-158736278D01*
X55960230Y-158736284D01*
X55960231Y-158736287D01*
X56059172Y-159001558D01*
X56060235Y-159004407D01*
X56197370Y-159255550D01*
X56197375Y-159255558D01*
X56368854Y-159484628D01*
X56368870Y-159484646D01*
X56571194Y-159686970D01*
X56571212Y-159686986D01*
X56800282Y-159858465D01*
X56800290Y-159858470D01*
X57051433Y-159995605D01*
X57051432Y-159995605D01*
X57051436Y-159995606D01*
X57051439Y-159995608D01*
X57319554Y-160095610D01*
X57319560Y-160095611D01*
X57319562Y-160095612D01*
X57599166Y-160156436D01*
X57599168Y-160156436D01*
X57599172Y-160156437D01*
X57813152Y-160171741D01*
X61416048Y-160171741D01*
X61630028Y-160156437D01*
X61730526Y-160134574D01*
X61756885Y-160131741D01*
X64062048Y-160131741D01*
X64062049Y-160131740D01*
X64231333Y-160112667D01*
X64355066Y-160098726D01*
X64355071Y-160098725D01*
X64355081Y-160098724D01*
X64642577Y-160033105D01*
X64920919Y-159935709D01*
X65186605Y-159807761D01*
X65436295Y-159650870D01*
X65632679Y-159494258D01*
X65697364Y-159467852D01*
X65766059Y-159480608D01*
X65787303Y-159494260D01*
X65806734Y-159509756D01*
X65816182Y-159517290D01*
X65989705Y-159655671D01*
X66186150Y-159779105D01*
X66239395Y-159812561D01*
X66505081Y-159940509D01*
X66662545Y-159995608D01*
X66783411Y-160037901D01*
X66783423Y-160037905D01*
X67070919Y-160103524D01*
X67070925Y-160103524D01*
X67070933Y-160103526D01*
X67266276Y-160125535D01*
X67363949Y-160136540D01*
X67363952Y-160136541D01*
X67363955Y-160136541D01*
X67363956Y-160136541D01*
X67656261Y-160136541D01*
X67682619Y-160139374D01*
X67761967Y-160156636D01*
X67761968Y-160156636D01*
X67761972Y-160156637D01*
X67975952Y-160171941D01*
X71573248Y-160171941D01*
X71787228Y-160156637D01*
X71788148Y-160156437D01*
X72066837Y-160095812D01*
X72066837Y-160095811D01*
X72066846Y-160095810D01*
X72334961Y-159995808D01*
X72586115Y-159858667D01*
X72815195Y-159687180D01*
X73017539Y-159484836D01*
X73189026Y-159255756D01*
X73326167Y-159004602D01*
X73426169Y-158736487D01*
X73426213Y-158736287D01*
X73486995Y-158456874D01*
X73486995Y-158456873D01*
X73486996Y-158456869D01*
X73502300Y-158242889D01*
X73502300Y-156779193D01*
X73486996Y-156565213D01*
X73478290Y-156525193D01*
X73426171Y-156285603D01*
X73426170Y-156285601D01*
X73426169Y-156285595D01*
X73326167Y-156017480D01*
X73202633Y-155791246D01*
X73189029Y-155766331D01*
X73189024Y-155766323D01*
X73017545Y-155537253D01*
X73017529Y-155537235D01*
X72815205Y-155334911D01*
X72815187Y-155334895D01*
X72586117Y-155163416D01*
X72586109Y-155163411D01*
X72334966Y-155026276D01*
X72334967Y-155026276D01*
X72211274Y-154980141D01*
X72066846Y-154926272D01*
X72066843Y-154926271D01*
X72066837Y-154926269D01*
X71787233Y-154865445D01*
X71573250Y-154850141D01*
X71571036Y-154850062D01*
X71571074Y-154848988D01*
X71507961Y-154830456D01*
X71462206Y-154777652D01*
X71451000Y-154726141D01*
X71451000Y-154403141D01*
X71470685Y-154336102D01*
X71523489Y-154290347D01*
X71571063Y-154279997D01*
X71571036Y-154279220D01*
X71573222Y-154279141D01*
X71573248Y-154279141D01*
X71787228Y-154263837D01*
X71989356Y-154219867D01*
X72066837Y-154203012D01*
X72066837Y-154203011D01*
X72066846Y-154203010D01*
X72334961Y-154103008D01*
X72586115Y-153965867D01*
X72815195Y-153794380D01*
X73017539Y-153592036D01*
X73189026Y-153362956D01*
X73326167Y-153111802D01*
X73426169Y-152843687D01*
X73478290Y-152604089D01*
X73486995Y-152564074D01*
X73486995Y-152564073D01*
X73486996Y-152564069D01*
X73502300Y-152350089D01*
X73502300Y-150886393D01*
X73501971Y-150881790D01*
X78998100Y-150881790D01*
X78998100Y-152354691D01*
X79013404Y-152568674D01*
X79074228Y-152848278D01*
X79074230Y-152848284D01*
X79074231Y-152848287D01*
X79173172Y-153113558D01*
X79174235Y-153116407D01*
X79311370Y-153367550D01*
X79311375Y-153367558D01*
X79482854Y-153596628D01*
X79482870Y-153596646D01*
X79685194Y-153798970D01*
X79685212Y-153798986D01*
X79914282Y-153970465D01*
X79914290Y-153970470D01*
X80165433Y-154107605D01*
X80165432Y-154107605D01*
X80165436Y-154107606D01*
X80165439Y-154107608D01*
X80433554Y-154207610D01*
X80433560Y-154207611D01*
X80433562Y-154207612D01*
X80713166Y-154268436D01*
X80713168Y-154268436D01*
X80713172Y-154268437D01*
X80927152Y-154283741D01*
X81629721Y-154283741D01*
X81696760Y-154303426D01*
X81717402Y-154320060D01*
X82026402Y-154629060D01*
X82059887Y-154690383D01*
X82054903Y-154760075D01*
X82013031Y-154816008D01*
X81947567Y-154840425D01*
X81938721Y-154840741D01*
X80927149Y-154840741D01*
X80713166Y-154856045D01*
X80433562Y-154916869D01*
X80165433Y-155016876D01*
X79914290Y-155154011D01*
X79914282Y-155154016D01*
X79685212Y-155325495D01*
X79685194Y-155325511D01*
X79482870Y-155527835D01*
X79482854Y-155527853D01*
X79311375Y-155756923D01*
X79311370Y-155756931D01*
X79174235Y-156008074D01*
X79074228Y-156276203D01*
X79013404Y-156555807D01*
X78998100Y-156769790D01*
X78998100Y-158242691D01*
X79013404Y-158456674D01*
X79074228Y-158736278D01*
X79074230Y-158736284D01*
X79074231Y-158736287D01*
X79173172Y-159001558D01*
X79174235Y-159004407D01*
X79311370Y-159255550D01*
X79311375Y-159255558D01*
X79482854Y-159484628D01*
X79482870Y-159484646D01*
X79685194Y-159686970D01*
X79685212Y-159686986D01*
X79914282Y-159858465D01*
X79914290Y-159858470D01*
X80165433Y-159995605D01*
X80165432Y-159995605D01*
X80165436Y-159995606D01*
X80165439Y-159995608D01*
X80433554Y-160095610D01*
X80433560Y-160095611D01*
X80433562Y-160095612D01*
X80713166Y-160156436D01*
X80713168Y-160156436D01*
X80713172Y-160156437D01*
X80927152Y-160171741D01*
X84530048Y-160171741D01*
X84744028Y-160156437D01*
X84844526Y-160134574D01*
X84870885Y-160131741D01*
X86922048Y-160131741D01*
X86922049Y-160131740D01*
X87091333Y-160112667D01*
X87215066Y-160098726D01*
X87215071Y-160098725D01*
X87215081Y-160098724D01*
X87502577Y-160033105D01*
X87780919Y-159935709D01*
X88046605Y-159807761D01*
X88296295Y-159650870D01*
X88488893Y-159497278D01*
X88553579Y-159470870D01*
X88622274Y-159483627D01*
X88653886Y-159506545D01*
X88664631Y-159517290D01*
X88664632Y-159517291D01*
X88873150Y-159725809D01*
X89103705Y-159909670D01*
X89353395Y-160066561D01*
X89619081Y-160194509D01*
X89777117Y-160249808D01*
X89897423Y-160291905D01*
X90184919Y-160357524D01*
X90184925Y-160357524D01*
X90184933Y-160357526D01*
X90380276Y-160379535D01*
X90477949Y-160390540D01*
X90477952Y-160390541D01*
X90477955Y-160390541D01*
X90516261Y-160390541D01*
X90542619Y-160393374D01*
X90621967Y-160410636D01*
X90621968Y-160410636D01*
X90621972Y-160410637D01*
X90835952Y-160425941D01*
X94433248Y-160425941D01*
X94647228Y-160410637D01*
X94726581Y-160393375D01*
X94926837Y-160349812D01*
X94926837Y-160349811D01*
X94926846Y-160349810D01*
X95194961Y-160249808D01*
X95446115Y-160112667D01*
X95675195Y-159941180D01*
X95877539Y-159738836D01*
X96049026Y-159509756D01*
X96186167Y-159258602D01*
X96286169Y-158990487D01*
X96346996Y-158710869D01*
X96362300Y-158496889D01*
X96362300Y-157033193D01*
X96346996Y-156819213D01*
X96338290Y-156779193D01*
X96286171Y-156539603D01*
X96286170Y-156539601D01*
X96286169Y-156539595D01*
X96186167Y-156271480D01*
X96055179Y-156031595D01*
X96049029Y-156020331D01*
X96049024Y-156020323D01*
X95877545Y-155791253D01*
X95877529Y-155791235D01*
X95675205Y-155588911D01*
X95675187Y-155588895D01*
X95446117Y-155417416D01*
X95446109Y-155417411D01*
X95194966Y-155280276D01*
X95194967Y-155280276D01*
X95087715Y-155240273D01*
X94926846Y-155180272D01*
X94926843Y-155180271D01*
X94926837Y-155180269D01*
X94647233Y-155119445D01*
X94433250Y-155104141D01*
X94431036Y-155104062D01*
X94431074Y-155102988D01*
X94367961Y-155084456D01*
X94322206Y-155031652D01*
X94311000Y-154980141D01*
X94311000Y-154657141D01*
X94330685Y-154590102D01*
X94383489Y-154544347D01*
X94431063Y-154533997D01*
X94431036Y-154533220D01*
X94433222Y-154533141D01*
X94433248Y-154533141D01*
X94647228Y-154517837D01*
X94701298Y-154506075D01*
X94926837Y-154457012D01*
X94926837Y-154457011D01*
X94926846Y-154457010D01*
X95194961Y-154357008D01*
X95446115Y-154219867D01*
X95675195Y-154048380D01*
X95877539Y-153846036D01*
X96049026Y-153616956D01*
X96186167Y-153365802D01*
X96286169Y-153097687D01*
X96338353Y-152857802D01*
X96346995Y-152818074D01*
X96346995Y-152818073D01*
X96346996Y-152818069D01*
X96362300Y-152604089D01*
X96362300Y-151140393D01*
X96346996Y-150926413D01*
X96338290Y-150886393D01*
X96286171Y-150646803D01*
X96286170Y-150646801D01*
X96286169Y-150646795D01*
X96279080Y-150627790D01*
X101604100Y-150627790D01*
X101604100Y-152100691D01*
X101619404Y-152314674D01*
X101680228Y-152594278D01*
X101680230Y-152594284D01*
X101680231Y-152594287D01*
X101778517Y-152857802D01*
X101780235Y-152862407D01*
X101917370Y-153113550D01*
X101917375Y-153113558D01*
X102088854Y-153342628D01*
X102088870Y-153342646D01*
X102291194Y-153544970D01*
X102291212Y-153544986D01*
X102520282Y-153716465D01*
X102520290Y-153716470D01*
X102771433Y-153853605D01*
X102771432Y-153853605D01*
X102771436Y-153853606D01*
X102771439Y-153853608D01*
X103039554Y-153953610D01*
X103039560Y-153953611D01*
X103039562Y-153953612D01*
X103319166Y-154014436D01*
X103319168Y-154014436D01*
X103319172Y-154014437D01*
X103533152Y-154029741D01*
X104235721Y-154029741D01*
X104302760Y-154049426D01*
X104323402Y-154066060D01*
X104632402Y-154375060D01*
X104665887Y-154436383D01*
X104660903Y-154506075D01*
X104619031Y-154562008D01*
X104553567Y-154586425D01*
X104544721Y-154586741D01*
X103533149Y-154586741D01*
X103319166Y-154602045D01*
X103039562Y-154662869D01*
X102771433Y-154762876D01*
X102520290Y-154900011D01*
X102520282Y-154900016D01*
X102291212Y-155071495D01*
X102291194Y-155071511D01*
X102088870Y-155273835D01*
X102088854Y-155273853D01*
X101917375Y-155502923D01*
X101917370Y-155502931D01*
X101780235Y-155754074D01*
X101680228Y-156022203D01*
X101619404Y-156301807D01*
X101604100Y-156515790D01*
X101604100Y-157988691D01*
X101619404Y-158202674D01*
X101680228Y-158482278D01*
X101680230Y-158482284D01*
X101680231Y-158482287D01*
X101775040Y-158736478D01*
X101780235Y-158750407D01*
X101917370Y-159001550D01*
X101917375Y-159001558D01*
X102088854Y-159230628D01*
X102088870Y-159230646D01*
X102291194Y-159432970D01*
X102291212Y-159432986D01*
X102520282Y-159604465D01*
X102520290Y-159604470D01*
X102771433Y-159741605D01*
X102771432Y-159741605D01*
X102771436Y-159741606D01*
X102771439Y-159741608D01*
X103039554Y-159841610D01*
X103039560Y-159841611D01*
X103039562Y-159841612D01*
X103319166Y-159902436D01*
X103319168Y-159902436D01*
X103319172Y-159902437D01*
X103533152Y-159917741D01*
X107136048Y-159917741D01*
X107350028Y-159902437D01*
X107450526Y-159880574D01*
X107476885Y-159877741D01*
X109528048Y-159877741D01*
X109528049Y-159877740D01*
X109697333Y-159858667D01*
X109821066Y-159844726D01*
X109821071Y-159844725D01*
X109821081Y-159844724D01*
X110108577Y-159779105D01*
X110386919Y-159681709D01*
X110652605Y-159553761D01*
X110902295Y-159396870D01*
X111132850Y-159213009D01*
X111341368Y-159004491D01*
X111341368Y-159004490D01*
X111342919Y-159002940D01*
X111404242Y-158969455D01*
X111473934Y-158974439D01*
X111518281Y-159002940D01*
X111524631Y-159009290D01*
X111524632Y-159009291D01*
X111733150Y-159217809D01*
X111963705Y-159401670D01*
X112213395Y-159558561D01*
X112479081Y-159686509D01*
X112551785Y-159711949D01*
X112636543Y-159741608D01*
X112636544Y-159741608D01*
X112701607Y-159764374D01*
X112757423Y-159783905D01*
X113044919Y-159849524D01*
X113044925Y-159849524D01*
X113044933Y-159849526D01*
X113240276Y-159871535D01*
X113337949Y-159882540D01*
X113337952Y-159882541D01*
X113337955Y-159882541D01*
X113630261Y-159882541D01*
X113656619Y-159885374D01*
X113735967Y-159902636D01*
X113735968Y-159902636D01*
X113735972Y-159902637D01*
X113949952Y-159917941D01*
X117547248Y-159917941D01*
X117761228Y-159902637D01*
X117762148Y-159902437D01*
X118040837Y-159841812D01*
X118040837Y-159841811D01*
X118040846Y-159841810D01*
X118308961Y-159741808D01*
X118560115Y-159604667D01*
X118789195Y-159433180D01*
X118991539Y-159230836D01*
X119163026Y-159001756D01*
X119300167Y-158750602D01*
X119400169Y-158482487D01*
X119400213Y-158482287D01*
X119460995Y-158202874D01*
X119460995Y-158202873D01*
X119460996Y-158202869D01*
X119476300Y-157988889D01*
X119476300Y-156525193D01*
X119460996Y-156311213D01*
X119453378Y-156276195D01*
X119400171Y-156031603D01*
X119400170Y-156031601D01*
X119400169Y-156031595D01*
X119300167Y-155763480D01*
X119296588Y-155756926D01*
X119163029Y-155512331D01*
X119163024Y-155512323D01*
X118991545Y-155283253D01*
X118991529Y-155283235D01*
X118789205Y-155080911D01*
X118789187Y-155080895D01*
X118560117Y-154909416D01*
X118560109Y-154909411D01*
X118308966Y-154772276D01*
X118308967Y-154772276D01*
X118089403Y-154690383D01*
X118040846Y-154672272D01*
X118040843Y-154672271D01*
X118040837Y-154672269D01*
X117761233Y-154611445D01*
X117547250Y-154596141D01*
X117545036Y-154596062D01*
X117545074Y-154594988D01*
X117481961Y-154576456D01*
X117436206Y-154523652D01*
X117425000Y-154472141D01*
X117425000Y-154149141D01*
X117444685Y-154082102D01*
X117497489Y-154036347D01*
X117545063Y-154025997D01*
X117545036Y-154025220D01*
X117547222Y-154025141D01*
X117547248Y-154025141D01*
X117761228Y-154009837D01*
X117942210Y-153970467D01*
X118040837Y-153949012D01*
X118040837Y-153949011D01*
X118040846Y-153949010D01*
X118308961Y-153849008D01*
X118560115Y-153711867D01*
X118789195Y-153540380D01*
X118991539Y-153338036D01*
X119163026Y-153108956D01*
X119300167Y-152857802D01*
X119400169Y-152589687D01*
X119460996Y-152310069D01*
X119476300Y-152096089D01*
X119476300Y-150632393D01*
X119460996Y-150418413D01*
X119459995Y-150413813D01*
X119400171Y-150138803D01*
X119400170Y-150138801D01*
X119400169Y-150138795D01*
X119300167Y-149870680D01*
X119299209Y-149868926D01*
X119163029Y-149619531D01*
X119163024Y-149619523D01*
X118991545Y-149390453D01*
X118991529Y-149390435D01*
X118836919Y-149235825D01*
X118803434Y-149174502D01*
X118800600Y-149148144D01*
X118800600Y-146500493D01*
X118785296Y-146286513D01*
X118774912Y-146238780D01*
X118724471Y-146006903D01*
X118724470Y-146006901D01*
X118724469Y-146006895D01*
X118624467Y-145738780D01*
X118524776Y-145556211D01*
X118487329Y-145487631D01*
X118487324Y-145487623D01*
X118315845Y-145258553D01*
X118315829Y-145258535D01*
X118113505Y-145056211D01*
X118113487Y-145056195D01*
X117884417Y-144884716D01*
X117884409Y-144884711D01*
X117633266Y-144747576D01*
X117633267Y-144747576D01*
X117526015Y-144707573D01*
X117365146Y-144647572D01*
X117365143Y-144647571D01*
X117365137Y-144647569D01*
X117085533Y-144586745D01*
X116871550Y-144571441D01*
X116871548Y-144571441D01*
X114128452Y-144571441D01*
X114128449Y-144571441D01*
X113914466Y-144586745D01*
X113634862Y-144647569D01*
X113366733Y-144747576D01*
X113115590Y-144884711D01*
X113115582Y-144884716D01*
X112899187Y-145046708D01*
X112833723Y-145071125D01*
X112824877Y-145071441D01*
X112628449Y-145071441D01*
X112414466Y-145086745D01*
X112134862Y-145147569D01*
X111866733Y-145247576D01*
X111615590Y-145384711D01*
X111615582Y-145384716D01*
X111386512Y-145556195D01*
X111386494Y-145556211D01*
X111184170Y-145758535D01*
X111184154Y-145758553D01*
X111012675Y-145987623D01*
X111012670Y-145987631D01*
X110875535Y-146238774D01*
X110775528Y-146506903D01*
X110714704Y-146786507D01*
X110699400Y-147000490D01*
X110699400Y-148743591D01*
X110714704Y-148957574D01*
X110775528Y-149237178D01*
X110775530Y-149237184D01*
X110775531Y-149237187D01*
X110797754Y-149296769D01*
X110875535Y-149505308D01*
X111000218Y-149733647D01*
X111015070Y-149801920D01*
X110990653Y-149867385D01*
X110979067Y-149880755D01*
X109469829Y-151389994D01*
X109469825Y-151389998D01*
X109382061Y-151500053D01*
X109324873Y-151540194D01*
X109285114Y-151546741D01*
X109281479Y-151546741D01*
X109214440Y-151527056D01*
X109193798Y-151510422D01*
X109101419Y-151418043D01*
X109067934Y-151356720D01*
X109065100Y-151330362D01*
X109065100Y-150627793D01*
X109049796Y-150413813D01*
X109042153Y-150378680D01*
X108988971Y-150134203D01*
X108988970Y-150134201D01*
X108988969Y-150134195D01*
X108888967Y-149866080D01*
X108829104Y-149756450D01*
X108751829Y-149614931D01*
X108751824Y-149614923D01*
X108580345Y-149385853D01*
X108580329Y-149385835D01*
X108544715Y-149350221D01*
X108511230Y-149288898D01*
X108516214Y-149219206D01*
X108517203Y-149216643D01*
X108530409Y-149183498D01*
X108632418Y-148927476D01*
X108728168Y-148582615D01*
X108786071Y-148229423D01*
X108805448Y-147872041D01*
X108786071Y-147514659D01*
X108728168Y-147161467D01*
X108632418Y-146816606D01*
X108499943Y-146484119D01*
X108332297Y-146167905D01*
X108332293Y-146167899D01*
X108332292Y-146167896D01*
X108131445Y-145871670D01*
X108131437Y-145871660D01*
X107899740Y-145598886D01*
X107639902Y-145352754D01*
X107639895Y-145352748D01*
X107639892Y-145352746D01*
X107515983Y-145258553D01*
X107354975Y-145136158D01*
X107354969Y-145136154D01*
X107354954Y-145136144D01*
X107048304Y-144951640D01*
X107048291Y-144951633D01*
X106723482Y-144801361D01*
X106723477Y-144801359D01*
X106723472Y-144801357D01*
X106558145Y-144745651D01*
X106384300Y-144687076D01*
X106034759Y-144610136D01*
X105678956Y-144571441D01*
X105678953Y-144571441D01*
X105321047Y-144571441D01*
X105321043Y-144571441D01*
X104965240Y-144610136D01*
X104615699Y-144687076D01*
X104353512Y-144775417D01*
X104276528Y-144801357D01*
X104276525Y-144801358D01*
X104276517Y-144801361D01*
X103951708Y-144951633D01*
X103951695Y-144951640D01*
X103645045Y-145136144D01*
X103645029Y-145136155D01*
X103360107Y-145352746D01*
X103360098Y-145352754D01*
X103100259Y-145598886D01*
X102868562Y-145871660D01*
X102868554Y-145871670D01*
X102667707Y-146167896D01*
X102667706Y-146167899D01*
X102500061Y-146484110D01*
X102500052Y-146484128D01*
X102367580Y-146816609D01*
X102367578Y-146816616D01*
X102271835Y-147161453D01*
X102271829Y-147161479D01*
X102213930Y-147514644D01*
X102213928Y-147514661D01*
X102194552Y-147872038D01*
X102194552Y-147872043D01*
X102213928Y-148229420D01*
X102213930Y-148229437D01*
X102271829Y-148582602D01*
X102271835Y-148582628D01*
X102367578Y-148927465D01*
X102367582Y-148927478D01*
X102393450Y-148992402D01*
X102399977Y-149061966D01*
X102367859Y-149124016D01*
X102352569Y-149137564D01*
X102291209Y-149183498D01*
X102291194Y-149183511D01*
X102088870Y-149385835D01*
X102088854Y-149385853D01*
X101917375Y-149614923D01*
X101917370Y-149614931D01*
X101780235Y-149866074D01*
X101680228Y-150134203D01*
X101619404Y-150413807D01*
X101604100Y-150627790D01*
X96279080Y-150627790D01*
X96186167Y-150378680D01*
X96125694Y-150267933D01*
X96049029Y-150127531D01*
X96049024Y-150127523D01*
X95877545Y-149898453D01*
X95877536Y-149898443D01*
X95845167Y-149866074D01*
X95770881Y-149791788D01*
X95737398Y-149730468D01*
X95737398Y-149677753D01*
X95785296Y-149457569D01*
X95800600Y-149243589D01*
X95800600Y-146500493D01*
X95785296Y-146286513D01*
X95774912Y-146238780D01*
X95724471Y-146006903D01*
X95724470Y-146006901D01*
X95724469Y-146006895D01*
X95624467Y-145738780D01*
X95524776Y-145556211D01*
X95487329Y-145487631D01*
X95487324Y-145487623D01*
X95315845Y-145258553D01*
X95315829Y-145258535D01*
X95113505Y-145056211D01*
X95113487Y-145056195D01*
X94884417Y-144884716D01*
X94884409Y-144884711D01*
X94633266Y-144747576D01*
X94633267Y-144747576D01*
X94526015Y-144707573D01*
X94365146Y-144647572D01*
X94365143Y-144647571D01*
X94365137Y-144647569D01*
X94085533Y-144586745D01*
X93871550Y-144571441D01*
X93871548Y-144571441D01*
X91128452Y-144571441D01*
X91128449Y-144571441D01*
X90914466Y-144586745D01*
X90634862Y-144647569D01*
X90366733Y-144747576D01*
X90115590Y-144884711D01*
X90115582Y-144884716D01*
X89899187Y-145046708D01*
X89833723Y-145071125D01*
X89824877Y-145071441D01*
X89628449Y-145071441D01*
X89414466Y-145086745D01*
X89134862Y-145147569D01*
X88866733Y-145247576D01*
X88615590Y-145384711D01*
X88615582Y-145384716D01*
X88386512Y-145556195D01*
X88386494Y-145556211D01*
X88184170Y-145758535D01*
X88184154Y-145758553D01*
X88012675Y-145987623D01*
X88012670Y-145987631D01*
X87875535Y-146238774D01*
X87775528Y-146506903D01*
X87714704Y-146786507D01*
X87699400Y-147000490D01*
X87699400Y-148743591D01*
X87714704Y-148957574D01*
X87775528Y-149237178D01*
X87775530Y-149237184D01*
X87775531Y-149237187D01*
X87867764Y-149484473D01*
X87875535Y-149505307D01*
X88012670Y-149756450D01*
X88012675Y-149756458D01*
X88184154Y-149985528D01*
X88184170Y-149985546D01*
X88265542Y-150066918D01*
X88299027Y-150128241D01*
X88294043Y-150197933D01*
X88265542Y-150242280D01*
X86753280Y-151754542D01*
X86691957Y-151788027D01*
X86622265Y-151783043D01*
X86577918Y-151754542D01*
X86495419Y-151672043D01*
X86461934Y-151610720D01*
X86459100Y-151584362D01*
X86459100Y-150881793D01*
X86443796Y-150667813D01*
X86436090Y-150632390D01*
X86382971Y-150388203D01*
X86382970Y-150388201D01*
X86382969Y-150388195D01*
X86282967Y-150120080D01*
X86253938Y-150066918D01*
X86145829Y-149868931D01*
X86145824Y-149868923D01*
X85974345Y-149639853D01*
X85974329Y-149639835D01*
X85772005Y-149437511D01*
X85771999Y-149437506D01*
X85771995Y-149437502D01*
X85583998Y-149296769D01*
X85542127Y-149240835D01*
X85537143Y-149171144D01*
X85543116Y-149151605D01*
X85544495Y-149148144D01*
X85632418Y-148927476D01*
X85728168Y-148582615D01*
X85786071Y-148229423D01*
X85805448Y-147872041D01*
X85786071Y-147514659D01*
X85728168Y-147161467D01*
X85632418Y-146816606D01*
X85499943Y-146484119D01*
X85332297Y-146167905D01*
X85332293Y-146167899D01*
X85332292Y-146167896D01*
X85131445Y-145871670D01*
X85131437Y-145871660D01*
X84899740Y-145598886D01*
X84639902Y-145352754D01*
X84639895Y-145352748D01*
X84639892Y-145352746D01*
X84515983Y-145258553D01*
X84354975Y-145136158D01*
X84354969Y-145136154D01*
X84354954Y-145136144D01*
X84048304Y-144951640D01*
X84048291Y-144951633D01*
X83723482Y-144801361D01*
X83723477Y-144801359D01*
X83723472Y-144801357D01*
X83558145Y-144745651D01*
X83384300Y-144687076D01*
X83034759Y-144610136D01*
X82678956Y-144571441D01*
X82678953Y-144571441D01*
X82321047Y-144571441D01*
X82321043Y-144571441D01*
X81965240Y-144610136D01*
X81615699Y-144687076D01*
X81353512Y-144775417D01*
X81276528Y-144801357D01*
X81276525Y-144801358D01*
X81276517Y-144801361D01*
X80951708Y-144951633D01*
X80951695Y-144951640D01*
X80645045Y-145136144D01*
X80645029Y-145136155D01*
X80360107Y-145352746D01*
X80360098Y-145352754D01*
X80100259Y-145598886D01*
X79868562Y-145871660D01*
X79868554Y-145871670D01*
X79667707Y-146167896D01*
X79667706Y-146167899D01*
X79500061Y-146484110D01*
X79500052Y-146484128D01*
X79367580Y-146816609D01*
X79367578Y-146816616D01*
X79271835Y-147161453D01*
X79271829Y-147161479D01*
X79213930Y-147514644D01*
X79213928Y-147514661D01*
X79194552Y-147872038D01*
X79194552Y-147872043D01*
X79213928Y-148229420D01*
X79213930Y-148229437D01*
X79271829Y-148582602D01*
X79271835Y-148582628D01*
X79367578Y-148927465D01*
X79367580Y-148927472D01*
X79500052Y-149259953D01*
X79500055Y-149259959D01*
X79500057Y-149259963D01*
X79515817Y-149289689D01*
X79582794Y-149416023D01*
X79596804Y-149484473D01*
X79571583Y-149549632D01*
X79560920Y-149561785D01*
X79482868Y-149639838D01*
X79482851Y-149639857D01*
X79311375Y-149868923D01*
X79311370Y-149868931D01*
X79174235Y-150120074D01*
X79074228Y-150388203D01*
X79013404Y-150667807D01*
X78998100Y-150881790D01*
X73501971Y-150881790D01*
X73486996Y-150672413D01*
X73485995Y-150667813D01*
X73426171Y-150392803D01*
X73426170Y-150392801D01*
X73426169Y-150392795D01*
X73326167Y-150124680D01*
X73294626Y-150066918D01*
X73189029Y-149873531D01*
X73189024Y-149873523D01*
X73017545Y-149644453D01*
X73017529Y-149644435D01*
X72828366Y-149455272D01*
X72794881Y-149393949D01*
X72792363Y-149358749D01*
X72800600Y-149243589D01*
X72800600Y-146500493D01*
X72785296Y-146286513D01*
X72774912Y-146238780D01*
X72724471Y-146006903D01*
X72724470Y-146006901D01*
X72724469Y-146006895D01*
X72624467Y-145738780D01*
X72524776Y-145556211D01*
X72487329Y-145487631D01*
X72487324Y-145487623D01*
X72315845Y-145258553D01*
X72315829Y-145258535D01*
X72113505Y-145056211D01*
X72113487Y-145056195D01*
X71884417Y-144884716D01*
X71884409Y-144884711D01*
X71633266Y-144747576D01*
X71633267Y-144747576D01*
X71526015Y-144707573D01*
X71365146Y-144647572D01*
X71365143Y-144647571D01*
X71365137Y-144647569D01*
X71085533Y-144586745D01*
X70871550Y-144571441D01*
X70871548Y-144571441D01*
X68128452Y-144571441D01*
X68128449Y-144571441D01*
X67914466Y-144586745D01*
X67634862Y-144647569D01*
X67366733Y-144747576D01*
X67115590Y-144884711D01*
X67115582Y-144884716D01*
X66899187Y-145046708D01*
X66833723Y-145071125D01*
X66824877Y-145071441D01*
X66628449Y-145071441D01*
X66414466Y-145086745D01*
X66134862Y-145147569D01*
X65866733Y-145247576D01*
X65615590Y-145384711D01*
X65615582Y-145384716D01*
X65386512Y-145556195D01*
X65386494Y-145556211D01*
X65184170Y-145758535D01*
X65184154Y-145758553D01*
X65012675Y-145987623D01*
X65012670Y-145987631D01*
X64875535Y-146238774D01*
X64775528Y-146506903D01*
X64714704Y-146786507D01*
X64699400Y-147000490D01*
X64699400Y-148743591D01*
X64714704Y-148957574D01*
X64775528Y-149237178D01*
X64775530Y-149237184D01*
X64775531Y-149237187D01*
X64867764Y-149484473D01*
X64875535Y-149505307D01*
X65012670Y-149756450D01*
X65012675Y-149756458D01*
X65184154Y-149985528D01*
X65184170Y-149985546D01*
X65335542Y-150136918D01*
X65369027Y-150198241D01*
X65364043Y-150267933D01*
X65335542Y-150312280D01*
X63766280Y-151881542D01*
X63704957Y-151915027D01*
X63635265Y-151910043D01*
X63590918Y-151881542D01*
X63381419Y-151672043D01*
X63347934Y-151610720D01*
X63345100Y-151584362D01*
X63345100Y-150881793D01*
X63329796Y-150667813D01*
X63322090Y-150632390D01*
X63268971Y-150388203D01*
X63268970Y-150388201D01*
X63268969Y-150388195D01*
X63168967Y-150120080D01*
X63139938Y-150066918D01*
X63031829Y-149868931D01*
X63031824Y-149868923D01*
X62860345Y-149639853D01*
X62860329Y-149639835D01*
X62658005Y-149437511D01*
X62657999Y-149437506D01*
X62657995Y-149437502D01*
X62557807Y-149362502D01*
X62515937Y-149306569D01*
X62510953Y-149236878D01*
X62516926Y-149217339D01*
X62606549Y-148992402D01*
X62632418Y-148927476D01*
X62728168Y-148582615D01*
X62786071Y-148229423D01*
X62805448Y-147872041D01*
X62786071Y-147514659D01*
X62728168Y-147161467D01*
X62632418Y-146816606D01*
X62499943Y-146484119D01*
X62332297Y-146167905D01*
X62332293Y-146167899D01*
X62332292Y-146167896D01*
X62131445Y-145871670D01*
X62131437Y-145871660D01*
X61899740Y-145598886D01*
X61639902Y-145352754D01*
X61639895Y-145352748D01*
X61639892Y-145352746D01*
X61515983Y-145258553D01*
X61354975Y-145136158D01*
X61354969Y-145136154D01*
X61354954Y-145136144D01*
X61048304Y-144951640D01*
X61048291Y-144951633D01*
X60723482Y-144801361D01*
X60723477Y-144801359D01*
X60723472Y-144801357D01*
X60558145Y-144745651D01*
X60384300Y-144687076D01*
X60034759Y-144610136D01*
X59678956Y-144571441D01*
X59678953Y-144571441D01*
X59321047Y-144571441D01*
X59321043Y-144571441D01*
X58965240Y-144610136D01*
X58615699Y-144687076D01*
X58353512Y-144775417D01*
X58276528Y-144801357D01*
X58276525Y-144801358D01*
X58276517Y-144801361D01*
X57951708Y-144951633D01*
X57951695Y-144951640D01*
X57645045Y-145136144D01*
X57645029Y-145136155D01*
X57360107Y-145352746D01*
X57360098Y-145352754D01*
X57100259Y-145598886D01*
X56868562Y-145871660D01*
X56868554Y-145871670D01*
X56667707Y-146167896D01*
X56667706Y-146167899D01*
X56500061Y-146484110D01*
X56500052Y-146484128D01*
X56367580Y-146816609D01*
X56367578Y-146816616D01*
X56271835Y-147161453D01*
X56271829Y-147161479D01*
X56213930Y-147514644D01*
X56213928Y-147514661D01*
X56194552Y-147872038D01*
X56194552Y-147872043D01*
X56213928Y-148229420D01*
X56213930Y-148229437D01*
X56271829Y-148582602D01*
X56271835Y-148582628D01*
X56367578Y-148927465D01*
X56367580Y-148927472D01*
X56500052Y-149259953D01*
X56500057Y-149259964D01*
X56543296Y-149341521D01*
X56557306Y-149409971D01*
X56532085Y-149475130D01*
X56521422Y-149487284D01*
X56368864Y-149639842D01*
X56368854Y-149639853D01*
X56197375Y-149868923D01*
X56197370Y-149868931D01*
X56060235Y-150120074D01*
X55960228Y-150388203D01*
X55899404Y-150667807D01*
X55884100Y-150881790D01*
X50500500Y-150881790D01*
X50500500Y-136372041D01*
X71664567Y-136372041D01*
X71684289Y-136786055D01*
X71743275Y-137196313D01*
X71840993Y-137599109D01*
X71840996Y-137599120D01*
X71976550Y-137990776D01*
X71976560Y-137990801D01*
X72148739Y-138367820D01*
X72355980Y-138726771D01*
X72355986Y-138726780D01*
X72596397Y-139064390D01*
X72596398Y-139064391D01*
X72867825Y-139377634D01*
X73167798Y-139663658D01*
X73493601Y-139919872D01*
X73842284Y-140143957D01*
X74210688Y-140333882D01*
X74210693Y-140333884D01*
X74210697Y-140333886D01*
X74466848Y-140436433D01*
X74595477Y-140487929D01*
X74993168Y-140604701D01*
X75400157Y-140683142D01*
X75812760Y-140722541D01*
X75812766Y-140722541D01*
X76227234Y-140722541D01*
X76227240Y-140722541D01*
X76639843Y-140683142D01*
X77046832Y-140604701D01*
X77444523Y-140487929D01*
X77829312Y-140333882D01*
X78197717Y-140143957D01*
X78333149Y-140056919D01*
X78546380Y-139919885D01*
X78546388Y-139919879D01*
X78546399Y-139919872D01*
X78872202Y-139663658D01*
X79172175Y-139377634D01*
X79443602Y-139064391D01*
X79684023Y-138726766D01*
X79891263Y-138367816D01*
X80063444Y-137990792D01*
X80199007Y-137599108D01*
X80296725Y-137196312D01*
X80355711Y-136786051D01*
X80375433Y-136372041D01*
X94664567Y-136372041D01*
X94684289Y-136786055D01*
X94743275Y-137196313D01*
X94840993Y-137599109D01*
X94840996Y-137599120D01*
X94976550Y-137990776D01*
X94976560Y-137990801D01*
X95148739Y-138367820D01*
X95355980Y-138726771D01*
X95355986Y-138726780D01*
X95596397Y-139064390D01*
X95596398Y-139064391D01*
X95867825Y-139377634D01*
X96167798Y-139663658D01*
X96493601Y-139919872D01*
X96842284Y-140143957D01*
X97210688Y-140333882D01*
X97210693Y-140333884D01*
X97210697Y-140333886D01*
X97466848Y-140436433D01*
X97595477Y-140487929D01*
X97993168Y-140604701D01*
X98400157Y-140683142D01*
X98812760Y-140722541D01*
X98812766Y-140722541D01*
X99227234Y-140722541D01*
X99227240Y-140722541D01*
X99639843Y-140683142D01*
X100046832Y-140604701D01*
X100444523Y-140487929D01*
X100829312Y-140333882D01*
X101197717Y-140143957D01*
X101333149Y-140056919D01*
X101546380Y-139919885D01*
X101546388Y-139919879D01*
X101546399Y-139919872D01*
X101872202Y-139663658D01*
X102172175Y-139377634D01*
X102443602Y-139064391D01*
X102684023Y-138726766D01*
X102891263Y-138367816D01*
X103063444Y-137990792D01*
X103199007Y-137599108D01*
X103296725Y-137196312D01*
X103355711Y-136786051D01*
X103375433Y-136372041D01*
X103355711Y-135958031D01*
X103296725Y-135547770D01*
X103199007Y-135144974D01*
X103063444Y-134753290D01*
X102891263Y-134376266D01*
X102684023Y-134017316D01*
X102684019Y-134017310D01*
X102684013Y-134017301D01*
X102443602Y-133679691D01*
X102172177Y-133366450D01*
X101872211Y-133080433D01*
X101872202Y-133080424D01*
X101546399Y-132824210D01*
X101546392Y-132824205D01*
X101546380Y-132824196D01*
X101197724Y-132600129D01*
X101197717Y-132600125D01*
X100829302Y-132410195D01*
X100444524Y-132256153D01*
X100444512Y-132256149D01*
X100046837Y-132139382D01*
X100046820Y-132139378D01*
X99639858Y-132060942D01*
X99639846Y-132060940D01*
X99502308Y-132047807D01*
X99227240Y-132021541D01*
X98812760Y-132021541D01*
X98565198Y-132045180D01*
X98400153Y-132060940D01*
X98400141Y-132060942D01*
X97993179Y-132139378D01*
X97993162Y-132139382D01*
X97595487Y-132256149D01*
X97595475Y-132256153D01*
X97210697Y-132410195D01*
X96842287Y-132600123D01*
X96493612Y-132824202D01*
X96493605Y-132824207D01*
X96493601Y-132824210D01*
X96346114Y-132940194D01*
X96167797Y-133080424D01*
X96167788Y-133080433D01*
X95867822Y-133366450D01*
X95596397Y-133679691D01*
X95355986Y-134017301D01*
X95355980Y-134017310D01*
X95148739Y-134376261D01*
X94976560Y-134753280D01*
X94976550Y-134753305D01*
X94840996Y-135144961D01*
X94840993Y-135144972D01*
X94743275Y-135547768D01*
X94684289Y-135958026D01*
X94664567Y-136372041D01*
X80375433Y-136372041D01*
X80355711Y-135958031D01*
X80296725Y-135547770D01*
X80199007Y-135144974D01*
X80063444Y-134753290D01*
X79891263Y-134376266D01*
X79684023Y-134017316D01*
X79684019Y-134017310D01*
X79684013Y-134017301D01*
X79443602Y-133679691D01*
X79172177Y-133366450D01*
X78872211Y-133080433D01*
X78872202Y-133080424D01*
X78546399Y-132824210D01*
X78546392Y-132824205D01*
X78546380Y-132824196D01*
X78197724Y-132600129D01*
X78197717Y-132600125D01*
X77829302Y-132410195D01*
X77444524Y-132256153D01*
X77444512Y-132256149D01*
X77046837Y-132139382D01*
X77046820Y-132139378D01*
X76639858Y-132060942D01*
X76639846Y-132060940D01*
X76502308Y-132047807D01*
X76227240Y-132021541D01*
X75812760Y-132021541D01*
X75565198Y-132045180D01*
X75400153Y-132060940D01*
X75400141Y-132060942D01*
X74993179Y-132139378D01*
X74993162Y-132139382D01*
X74595487Y-132256149D01*
X74595475Y-132256153D01*
X74210697Y-132410195D01*
X73842287Y-132600123D01*
X73493612Y-132824202D01*
X73493605Y-132824207D01*
X73493601Y-132824210D01*
X73346114Y-132940194D01*
X73167797Y-133080424D01*
X73167788Y-133080433D01*
X72867822Y-133366450D01*
X72596397Y-133679691D01*
X72355986Y-134017301D01*
X72355980Y-134017310D01*
X72148739Y-134376261D01*
X71976560Y-134753280D01*
X71976550Y-134753305D01*
X71840996Y-135144961D01*
X71840993Y-135144972D01*
X71743275Y-135547768D01*
X71684289Y-135958026D01*
X71664567Y-136372041D01*
X50500500Y-136372041D01*
X50500500Y-114513590D01*
X55886900Y-114513590D01*
X55886900Y-115977291D01*
X55902204Y-116191274D01*
X55963028Y-116470878D01*
X55963030Y-116470884D01*
X55963031Y-116470887D01*
X56061972Y-116736158D01*
X56063035Y-116739007D01*
X56200170Y-116990150D01*
X56200175Y-116990158D01*
X56371654Y-117219228D01*
X56371670Y-117219246D01*
X56573994Y-117421570D01*
X56574012Y-117421586D01*
X56803082Y-117593065D01*
X56803090Y-117593070D01*
X57054233Y-117730205D01*
X57054232Y-117730205D01*
X57054236Y-117730206D01*
X57054239Y-117730208D01*
X57322354Y-117830210D01*
X57322360Y-117830211D01*
X57322362Y-117830212D01*
X57601966Y-117891036D01*
X57601968Y-117891036D01*
X57601972Y-117891037D01*
X57815952Y-117906341D01*
X57815977Y-117906341D01*
X57818164Y-117906420D01*
X57818125Y-117907493D01*
X57881239Y-117926026D01*
X57926994Y-117978830D01*
X57938200Y-118030341D01*
X57938200Y-118353341D01*
X57918515Y-118420380D01*
X57865711Y-118466135D01*
X57818136Y-118476484D01*
X57818164Y-118477262D01*
X57815949Y-118477341D01*
X57601966Y-118492645D01*
X57322362Y-118553469D01*
X57054233Y-118653476D01*
X56803090Y-118790611D01*
X56803082Y-118790616D01*
X56574012Y-118962095D01*
X56573994Y-118962111D01*
X56371670Y-119164435D01*
X56371654Y-119164453D01*
X56200175Y-119393523D01*
X56200170Y-119393531D01*
X56063035Y-119644674D01*
X55963028Y-119912803D01*
X55902204Y-120192407D01*
X55886900Y-120406390D01*
X55886900Y-121870091D01*
X55902204Y-122084074D01*
X55963028Y-122363678D01*
X55963030Y-122363684D01*
X55963031Y-122363687D01*
X56061972Y-122628958D01*
X56063035Y-122631807D01*
X56200170Y-122882950D01*
X56200175Y-122882958D01*
X56245517Y-122943528D01*
X56269934Y-123008992D01*
X56267416Y-123044196D01*
X56214704Y-123286507D01*
X56199400Y-123500490D01*
X56199400Y-126243591D01*
X56214704Y-126457574D01*
X56275528Y-126737178D01*
X56275530Y-126737184D01*
X56275531Y-126737187D01*
X56375533Y-127005302D01*
X56375535Y-127005307D01*
X56512670Y-127256450D01*
X56512675Y-127256458D01*
X56684154Y-127485528D01*
X56684170Y-127485546D01*
X56886494Y-127687870D01*
X56886512Y-127687886D01*
X57115582Y-127859365D01*
X57115590Y-127859370D01*
X57366733Y-127996505D01*
X57366732Y-127996505D01*
X57366736Y-127996506D01*
X57366739Y-127996508D01*
X57634854Y-128096510D01*
X57634860Y-128096511D01*
X57634862Y-128096512D01*
X57914466Y-128157336D01*
X57914468Y-128157336D01*
X57914472Y-128157337D01*
X58128452Y-128172641D01*
X60871548Y-128172641D01*
X61085528Y-128157337D01*
X61365146Y-128096510D01*
X61633261Y-127996508D01*
X61884415Y-127859367D01*
X62007463Y-127767254D01*
X62100813Y-127697374D01*
X62166277Y-127672957D01*
X62175123Y-127672641D01*
X62371548Y-127672641D01*
X62585528Y-127657337D01*
X62812668Y-127607926D01*
X62865137Y-127596512D01*
X62865137Y-127596511D01*
X62865146Y-127596510D01*
X63133261Y-127496508D01*
X63384415Y-127359367D01*
X63613495Y-127187880D01*
X63815839Y-126985536D01*
X63987326Y-126756456D01*
X64124467Y-126505302D01*
X64224469Y-126237187D01*
X64285296Y-125957569D01*
X64300600Y-125743589D01*
X64300600Y-124000493D01*
X64285296Y-123786513D01*
X64224469Y-123506895D01*
X64166042Y-123350247D01*
X64161058Y-123280556D01*
X64194543Y-123219233D01*
X64204900Y-123209976D01*
X64344050Y-123099009D01*
X64552568Y-122890491D01*
X64552568Y-122890490D01*
X64555665Y-122887394D01*
X64555678Y-122887379D01*
X65385368Y-122057691D01*
X65395223Y-122045334D01*
X65502658Y-121910613D01*
X65569229Y-121827136D01*
X65569231Y-121827132D01*
X65570821Y-121825139D01*
X65628009Y-121784998D01*
X65697820Y-121782148D01*
X65758090Y-121817493D01*
X65789684Y-121879812D01*
X65791452Y-121893604D01*
X65805404Y-122088674D01*
X65866228Y-122368278D01*
X65866230Y-122368284D01*
X65866231Y-122368287D01*
X65965172Y-122633558D01*
X65966235Y-122636407D01*
X66103370Y-122887550D01*
X66103375Y-122887558D01*
X66274854Y-123116628D01*
X66274870Y-123116646D01*
X66477200Y-123318976D01*
X66478279Y-123319911D01*
X66478538Y-123320314D01*
X66480336Y-123322112D01*
X66479944Y-123322503D01*
X66516056Y-123378688D01*
X66516058Y-123448557D01*
X66506638Y-123471705D01*
X66500059Y-123484113D01*
X66500052Y-123484129D01*
X66367580Y-123816609D01*
X66367578Y-123816616D01*
X66271835Y-124161453D01*
X66271829Y-124161479D01*
X66213930Y-124514644D01*
X66213928Y-124514661D01*
X66194552Y-124872038D01*
X66194552Y-124872043D01*
X66213928Y-125229420D01*
X66213930Y-125229437D01*
X66271829Y-125582602D01*
X66271835Y-125582628D01*
X66367578Y-125927465D01*
X66367580Y-125927472D01*
X66500052Y-126259953D01*
X66500061Y-126259971D01*
X66568575Y-126389202D01*
X66630127Y-126505302D01*
X66667706Y-126576182D01*
X66667707Y-126576185D01*
X66868554Y-126872411D01*
X66868562Y-126872421D01*
X66981437Y-127005307D01*
X67100260Y-127145196D01*
X67360098Y-127391328D01*
X67645025Y-127607924D01*
X67645033Y-127607929D01*
X67645045Y-127607937D01*
X67951695Y-127792441D01*
X67951700Y-127792444D01*
X67951704Y-127792445D01*
X67951708Y-127792448D01*
X68276517Y-127942720D01*
X68276528Y-127942725D01*
X68615699Y-128057005D01*
X68965238Y-128133945D01*
X69321047Y-128172641D01*
X69321053Y-128172641D01*
X69678947Y-128172641D01*
X69678953Y-128172641D01*
X70034762Y-128133945D01*
X70384301Y-128057005D01*
X70723472Y-127942725D01*
X71048300Y-127792444D01*
X71272852Y-127657336D01*
X71354954Y-127607937D01*
X71354958Y-127607934D01*
X71354975Y-127607924D01*
X71639902Y-127391328D01*
X71899740Y-127145196D01*
X72131444Y-126872413D01*
X72267232Y-126672141D01*
X72332292Y-126576185D01*
X72332292Y-126576183D01*
X72332297Y-126576177D01*
X72499943Y-126259963D01*
X72632418Y-125927476D01*
X72728168Y-125582615D01*
X72757430Y-125404123D01*
X72786069Y-125229437D01*
X72786071Y-125229420D01*
X72786279Y-125225594D01*
X72805448Y-124872041D01*
X72786071Y-124514659D01*
X72767005Y-124398363D01*
X72728170Y-124161479D01*
X72728169Y-124161478D01*
X72728168Y-124161467D01*
X72658479Y-123910470D01*
X72632421Y-123816616D01*
X72632419Y-123816609D01*
X72499136Y-123482092D01*
X72492609Y-123412528D01*
X72524727Y-123350478D01*
X72540017Y-123336928D01*
X72563995Y-123318980D01*
X72766339Y-123116636D01*
X72937826Y-122887556D01*
X73074967Y-122636402D01*
X73174969Y-122368287D01*
X73235796Y-122088669D01*
X73251100Y-121874689D01*
X73251100Y-120401793D01*
X73235796Y-120187813D01*
X73228090Y-120152390D01*
X73174971Y-119908203D01*
X73174970Y-119908201D01*
X73174969Y-119908195D01*
X73074967Y-119640080D01*
X72938780Y-119390674D01*
X72937829Y-119388931D01*
X72937824Y-119388923D01*
X72766345Y-119159853D01*
X72766329Y-119159835D01*
X72564005Y-118957511D01*
X72563987Y-118957495D01*
X72334917Y-118786016D01*
X72334909Y-118786011D01*
X72083766Y-118648876D01*
X72083767Y-118648876D01*
X71976515Y-118608873D01*
X71815646Y-118548872D01*
X71815643Y-118548871D01*
X71815637Y-118548869D01*
X71536033Y-118488045D01*
X71322050Y-118472741D01*
X71322048Y-118472741D01*
X70619479Y-118472741D01*
X70552440Y-118453056D01*
X70531798Y-118436422D01*
X70222798Y-118127422D01*
X70189313Y-118066099D01*
X70194297Y-117996407D01*
X70236169Y-117940474D01*
X70301633Y-117916057D01*
X70310479Y-117915741D01*
X71322048Y-117915741D01*
X71536028Y-117900437D01*
X71579240Y-117891037D01*
X71815637Y-117839612D01*
X71815637Y-117839611D01*
X71815646Y-117839610D01*
X72083761Y-117739608D01*
X72334915Y-117602467D01*
X72563995Y-117430980D01*
X72766339Y-117228636D01*
X72937826Y-116999556D01*
X73074967Y-116748402D01*
X73174969Y-116480287D01*
X73235796Y-116200669D01*
X73251100Y-115986689D01*
X73251100Y-114513793D01*
X73235796Y-114299813D01*
X73235752Y-114299613D01*
X73227046Y-114259590D01*
X78746900Y-114259590D01*
X78746900Y-115723291D01*
X78762204Y-115937274D01*
X78823028Y-116216878D01*
X78823030Y-116216884D01*
X78823031Y-116216887D01*
X78923033Y-116485002D01*
X78923035Y-116485007D01*
X79060170Y-116736150D01*
X79060175Y-116736158D01*
X79231654Y-116965228D01*
X79231670Y-116965246D01*
X79433994Y-117167570D01*
X79434012Y-117167586D01*
X79663082Y-117339065D01*
X79663090Y-117339070D01*
X79914233Y-117476205D01*
X79914232Y-117476205D01*
X79914236Y-117476206D01*
X79914239Y-117476208D01*
X80182354Y-117576210D01*
X80182360Y-117576211D01*
X80182362Y-117576212D01*
X80461966Y-117637036D01*
X80461968Y-117637036D01*
X80461972Y-117637037D01*
X80675952Y-117652341D01*
X80675977Y-117652341D01*
X80678164Y-117652420D01*
X80678125Y-117653493D01*
X80741239Y-117672026D01*
X80786994Y-117724830D01*
X80798200Y-117776341D01*
X80798200Y-118099341D01*
X80778515Y-118166380D01*
X80725711Y-118212135D01*
X80678136Y-118222484D01*
X80678164Y-118223262D01*
X80675949Y-118223341D01*
X80461966Y-118238645D01*
X80182362Y-118299469D01*
X79914233Y-118399476D01*
X79663090Y-118536611D01*
X79663082Y-118536616D01*
X79434012Y-118708095D01*
X79433994Y-118708111D01*
X79231670Y-118910435D01*
X79231654Y-118910453D01*
X79060175Y-119139523D01*
X79060170Y-119139531D01*
X78923035Y-119390674D01*
X78823028Y-119658803D01*
X78762204Y-119938407D01*
X78746900Y-120152390D01*
X78746900Y-121616091D01*
X78762204Y-121830074D01*
X78823028Y-122109678D01*
X78823030Y-122109684D01*
X78823031Y-122109687D01*
X78919481Y-122368278D01*
X78923035Y-122377807D01*
X79060170Y-122628950D01*
X79060175Y-122628958D01*
X79231654Y-122858028D01*
X79231670Y-122858046D01*
X79247702Y-122874078D01*
X79281187Y-122935401D01*
X79276390Y-123002538D01*
X79276777Y-123002652D01*
X79276255Y-123004428D01*
X79276209Y-123005076D01*
X79275531Y-123006894D01*
X79275530Y-123006897D01*
X79214704Y-123286507D01*
X79199400Y-123500490D01*
X79199400Y-126243591D01*
X79214704Y-126457574D01*
X79275528Y-126737178D01*
X79275530Y-126737184D01*
X79275531Y-126737187D01*
X79375533Y-127005302D01*
X79375535Y-127005307D01*
X79512670Y-127256450D01*
X79512675Y-127256458D01*
X79684154Y-127485528D01*
X79684170Y-127485546D01*
X79886494Y-127687870D01*
X79886512Y-127687886D01*
X80115582Y-127859365D01*
X80115590Y-127859370D01*
X80366733Y-127996505D01*
X80366732Y-127996505D01*
X80366736Y-127996506D01*
X80366739Y-127996508D01*
X80634854Y-128096510D01*
X80634860Y-128096511D01*
X80634862Y-128096512D01*
X80914466Y-128157336D01*
X80914468Y-128157336D01*
X80914472Y-128157337D01*
X81128452Y-128172641D01*
X83871548Y-128172641D01*
X84085528Y-128157337D01*
X84365146Y-128096510D01*
X84633261Y-127996508D01*
X84884415Y-127859367D01*
X85007463Y-127767254D01*
X85100813Y-127697374D01*
X85166277Y-127672957D01*
X85175123Y-127672641D01*
X85371548Y-127672641D01*
X85585528Y-127657337D01*
X85812668Y-127607926D01*
X85865137Y-127596512D01*
X85865137Y-127596511D01*
X85865146Y-127596510D01*
X86133261Y-127496508D01*
X86384415Y-127359367D01*
X86613495Y-127187880D01*
X86815839Y-126985536D01*
X86987326Y-126756456D01*
X87124467Y-126505302D01*
X87224469Y-126237187D01*
X87285296Y-125957569D01*
X87300600Y-125743589D01*
X87300600Y-124000493D01*
X87285296Y-123786513D01*
X87224469Y-123506895D01*
X87124467Y-123238780D01*
X87048740Y-123100097D01*
X87033889Y-123031828D01*
X87058305Y-122966363D01*
X87080253Y-122943732D01*
X87204050Y-122845009D01*
X87412568Y-122636491D01*
X87412568Y-122636490D01*
X87415665Y-122633394D01*
X87415678Y-122633379D01*
X88245368Y-121803691D01*
X88429229Y-121573136D01*
X88429231Y-121573132D01*
X88430821Y-121571139D01*
X88488009Y-121530998D01*
X88557820Y-121528148D01*
X88618090Y-121563493D01*
X88649684Y-121625812D01*
X88651452Y-121639604D01*
X88665404Y-121834674D01*
X88726228Y-122114278D01*
X88726230Y-122114284D01*
X88726231Y-122114287D01*
X88824517Y-122377802D01*
X88826235Y-122382407D01*
X88963370Y-122633550D01*
X88963375Y-122633558D01*
X89134854Y-122862628D01*
X89134870Y-122862646D01*
X89337194Y-123064970D01*
X89337212Y-123064986D01*
X89527914Y-123207743D01*
X89569786Y-123263676D01*
X89574770Y-123333368D01*
X89563160Y-123365092D01*
X89500058Y-123484116D01*
X89500052Y-123484128D01*
X89367580Y-123816609D01*
X89367578Y-123816616D01*
X89271835Y-124161453D01*
X89271829Y-124161479D01*
X89213930Y-124514644D01*
X89213928Y-124514661D01*
X89194552Y-124872038D01*
X89194552Y-124872043D01*
X89213928Y-125229420D01*
X89213930Y-125229437D01*
X89271829Y-125582602D01*
X89271835Y-125582628D01*
X89367578Y-125927465D01*
X89367580Y-125927472D01*
X89500052Y-126259953D01*
X89500061Y-126259971D01*
X89568575Y-126389202D01*
X89630127Y-126505302D01*
X89667706Y-126576182D01*
X89667707Y-126576185D01*
X89868554Y-126872411D01*
X89868562Y-126872421D01*
X89981437Y-127005307D01*
X90100260Y-127145196D01*
X90360098Y-127391328D01*
X90645025Y-127607924D01*
X90645033Y-127607929D01*
X90645045Y-127607937D01*
X90951695Y-127792441D01*
X90951700Y-127792444D01*
X90951704Y-127792445D01*
X90951708Y-127792448D01*
X91276517Y-127942720D01*
X91276528Y-127942725D01*
X91615699Y-128057005D01*
X91965238Y-128133945D01*
X92321047Y-128172641D01*
X92321053Y-128172641D01*
X92678947Y-128172641D01*
X92678953Y-128172641D01*
X93034762Y-128133945D01*
X93384301Y-128057005D01*
X93723472Y-127942725D01*
X94048300Y-127792444D01*
X94272852Y-127657336D01*
X94354954Y-127607937D01*
X94354958Y-127607934D01*
X94354975Y-127607924D01*
X94639902Y-127391328D01*
X94899740Y-127145196D01*
X95131444Y-126872413D01*
X95267232Y-126672141D01*
X95332292Y-126576185D01*
X95332292Y-126576183D01*
X95332297Y-126576177D01*
X95499943Y-126259963D01*
X95632418Y-125927476D01*
X95728168Y-125582615D01*
X95757430Y-125404123D01*
X95786069Y-125229437D01*
X95786071Y-125229420D01*
X95786279Y-125225594D01*
X95805448Y-124872041D01*
X95786071Y-124514659D01*
X95767005Y-124398363D01*
X95728170Y-124161479D01*
X95728169Y-124161478D01*
X95728168Y-124161467D01*
X95658479Y-123910470D01*
X95632421Y-123816616D01*
X95632419Y-123816609D01*
X95499947Y-123484128D01*
X95499939Y-123484113D01*
X95368991Y-123237118D01*
X95354981Y-123168669D01*
X95380202Y-123103510D01*
X95404235Y-123079771D01*
X95423995Y-123064980D01*
X95626339Y-122862636D01*
X95797826Y-122633556D01*
X95934967Y-122382402D01*
X96034969Y-122114287D01*
X96079274Y-121910620D01*
X96095795Y-121834674D01*
X96095795Y-121834673D01*
X96095796Y-121834669D01*
X96111100Y-121620689D01*
X96111100Y-120147793D01*
X96095796Y-119933813D01*
X96035971Y-119658803D01*
X96034971Y-119654203D01*
X96034970Y-119654201D01*
X96034969Y-119654195D01*
X95934967Y-119386080D01*
X95840346Y-119212796D01*
X95797829Y-119134931D01*
X95797824Y-119134923D01*
X95626345Y-118905853D01*
X95626329Y-118905835D01*
X95424005Y-118703511D01*
X95423987Y-118703495D01*
X95194917Y-118532016D01*
X95194909Y-118532011D01*
X94943766Y-118394876D01*
X94943767Y-118394876D01*
X94832407Y-118353341D01*
X94675646Y-118294872D01*
X94675643Y-118294871D01*
X94675637Y-118294869D01*
X94396033Y-118234045D01*
X94182050Y-118218741D01*
X94182048Y-118218741D01*
X93479479Y-118218741D01*
X93412440Y-118199056D01*
X93391798Y-118182422D01*
X93082798Y-117873422D01*
X93049313Y-117812099D01*
X93054297Y-117742407D01*
X93096169Y-117686474D01*
X93161633Y-117662057D01*
X93170479Y-117661741D01*
X94182048Y-117661741D01*
X94396028Y-117646437D01*
X94439240Y-117637037D01*
X94675637Y-117585612D01*
X94675637Y-117585611D01*
X94675646Y-117585610D01*
X94943761Y-117485608D01*
X95194915Y-117348467D01*
X95423995Y-117176980D01*
X95626339Y-116974636D01*
X95797826Y-116745556D01*
X95934967Y-116494402D01*
X96034969Y-116226287D01*
X96095796Y-115946669D01*
X96111100Y-115732689D01*
X96111100Y-114513590D01*
X101860900Y-114513590D01*
X101860900Y-115977291D01*
X101876204Y-116191274D01*
X101937028Y-116470878D01*
X101937030Y-116470884D01*
X101937031Y-116470887D01*
X102035972Y-116736158D01*
X102037035Y-116739007D01*
X102174170Y-116990150D01*
X102174175Y-116990158D01*
X102345654Y-117219228D01*
X102345670Y-117219246D01*
X102547994Y-117421570D01*
X102548012Y-117421586D01*
X102777082Y-117593065D01*
X102777090Y-117593070D01*
X103028233Y-117730205D01*
X103028232Y-117730205D01*
X103028236Y-117730206D01*
X103028239Y-117730208D01*
X103296354Y-117830210D01*
X103296360Y-117830211D01*
X103296362Y-117830212D01*
X103575966Y-117891036D01*
X103575968Y-117891036D01*
X103575972Y-117891037D01*
X103789952Y-117906341D01*
X103789977Y-117906341D01*
X103792164Y-117906420D01*
X103792125Y-117907493D01*
X103855239Y-117926026D01*
X103900994Y-117978830D01*
X103912200Y-118030341D01*
X103912200Y-118353341D01*
X103892515Y-118420380D01*
X103839711Y-118466135D01*
X103792136Y-118476484D01*
X103792164Y-118477262D01*
X103789949Y-118477341D01*
X103575966Y-118492645D01*
X103296362Y-118553469D01*
X103028233Y-118653476D01*
X102777090Y-118790611D01*
X102777082Y-118790616D01*
X102548012Y-118962095D01*
X102547994Y-118962111D01*
X102345670Y-119164435D01*
X102345654Y-119164453D01*
X102174175Y-119393523D01*
X102174170Y-119393531D01*
X102037035Y-119644674D01*
X101937028Y-119912803D01*
X101876204Y-120192407D01*
X101860900Y-120406390D01*
X101860900Y-121870091D01*
X101876204Y-122084074D01*
X101937028Y-122363678D01*
X101937030Y-122363684D01*
X101937031Y-122363687D01*
X102035972Y-122628958D01*
X102037035Y-122631807D01*
X102174170Y-122882950D01*
X102174175Y-122882958D01*
X102239662Y-122970439D01*
X102264079Y-123035904D01*
X102261561Y-123071106D01*
X102214705Y-123286502D01*
X102214704Y-123286512D01*
X102199400Y-123500490D01*
X102199400Y-126243591D01*
X102214704Y-126457574D01*
X102275528Y-126737178D01*
X102275530Y-126737184D01*
X102275531Y-126737187D01*
X102375533Y-127005302D01*
X102375535Y-127005307D01*
X102512670Y-127256450D01*
X102512675Y-127256458D01*
X102684154Y-127485528D01*
X102684170Y-127485546D01*
X102886494Y-127687870D01*
X102886512Y-127687886D01*
X103115582Y-127859365D01*
X103115590Y-127859370D01*
X103366733Y-127996505D01*
X103366732Y-127996505D01*
X103366736Y-127996506D01*
X103366739Y-127996508D01*
X103634854Y-128096510D01*
X103634860Y-128096511D01*
X103634862Y-128096512D01*
X103914466Y-128157336D01*
X103914468Y-128157336D01*
X103914472Y-128157337D01*
X104128452Y-128172641D01*
X106871548Y-128172641D01*
X107085528Y-128157337D01*
X107365146Y-128096510D01*
X107633261Y-127996508D01*
X107884415Y-127859367D01*
X108007463Y-127767254D01*
X108100813Y-127697374D01*
X108166277Y-127672957D01*
X108175123Y-127672641D01*
X108371548Y-127672641D01*
X108585528Y-127657337D01*
X108812668Y-127607926D01*
X108865137Y-127596512D01*
X108865137Y-127596511D01*
X108865146Y-127596510D01*
X109133261Y-127496508D01*
X109384415Y-127359367D01*
X109613495Y-127187880D01*
X109815839Y-126985536D01*
X109987326Y-126756456D01*
X110124467Y-126505302D01*
X110224469Y-126237187D01*
X110285296Y-125957569D01*
X110300600Y-125743589D01*
X110300600Y-124872036D01*
X113694852Y-124872036D01*
X113694852Y-124872045D01*
X113715012Y-125141074D01*
X113715013Y-125141079D01*
X113775046Y-125404104D01*
X113775052Y-125404123D01*
X113873618Y-125655265D01*
X114008517Y-125888916D01*
X114062223Y-125956263D01*
X114637425Y-125381060D01*
X114723249Y-125509504D01*
X114862537Y-125648792D01*
X114990978Y-125734614D01*
X114414775Y-126310816D01*
X114597425Y-126435344D01*
X114597429Y-126435346D01*
X114840504Y-126552405D01*
X115098315Y-126631929D01*
X115098321Y-126631931D01*
X115365093Y-126672140D01*
X115365102Y-126672141D01*
X115634898Y-126672141D01*
X115634906Y-126672140D01*
X115901678Y-126631931D01*
X115901684Y-126631929D01*
X116159495Y-126552405D01*
X116402569Y-126435347D01*
X116585223Y-126310816D01*
X116009020Y-125734614D01*
X116137463Y-125648792D01*
X116276751Y-125509504D01*
X116362573Y-125381061D01*
X116937774Y-125956263D01*
X116937775Y-125956262D01*
X116991483Y-125888916D01*
X117126381Y-125655265D01*
X117224947Y-125404123D01*
X117224953Y-125404104D01*
X117284986Y-125141079D01*
X117284987Y-125141074D01*
X117305148Y-124872045D01*
X117305148Y-124872036D01*
X117284987Y-124603007D01*
X117284986Y-124603002D01*
X117224953Y-124339977D01*
X117224947Y-124339958D01*
X117126381Y-124088816D01*
X116991483Y-123855166D01*
X116991476Y-123855155D01*
X116937775Y-123787818D01*
X116937774Y-123787817D01*
X116362572Y-124363019D01*
X116276751Y-124234578D01*
X116137463Y-124095290D01*
X116009019Y-124009466D01*
X116585223Y-123433264D01*
X116402574Y-123308737D01*
X116402570Y-123308735D01*
X116159495Y-123191676D01*
X115901684Y-123112152D01*
X115901678Y-123112150D01*
X115634906Y-123071941D01*
X115365093Y-123071941D01*
X115098321Y-123112150D01*
X115098315Y-123112152D01*
X114840504Y-123191676D01*
X114597426Y-123308736D01*
X114597418Y-123308741D01*
X114414775Y-123433264D01*
X114990979Y-124009467D01*
X114862537Y-124095290D01*
X114723249Y-124234578D01*
X114637426Y-124363020D01*
X114062223Y-123787817D01*
X114008519Y-123855161D01*
X113873618Y-124088816D01*
X113775052Y-124339958D01*
X113775046Y-124339977D01*
X113715013Y-124603002D01*
X113715012Y-124603007D01*
X113694852Y-124872036D01*
X110300600Y-124872036D01*
X110300600Y-124000493D01*
X110285296Y-123786513D01*
X110224469Y-123506895D01*
X110124467Y-123238780D01*
X110113793Y-123219233D01*
X109987329Y-122987631D01*
X109987323Y-122987621D01*
X109945076Y-122931187D01*
X109920658Y-122865723D01*
X109935509Y-122797450D01*
X109956657Y-122769199D01*
X110874772Y-121851085D01*
X113518600Y-121851085D01*
X113525001Y-121910613D01*
X113525003Y-121910620D01*
X113575245Y-122045327D01*
X113575249Y-122045334D01*
X113661409Y-122160428D01*
X113661412Y-122160431D01*
X113776506Y-122246591D01*
X113776513Y-122246595D01*
X113911220Y-122296837D01*
X113911227Y-122296839D01*
X113970755Y-122303240D01*
X113970772Y-122303241D01*
X115498600Y-122303241D01*
X115998600Y-122303241D01*
X117526428Y-122303241D01*
X117526444Y-122303240D01*
X117585972Y-122296839D01*
X117585979Y-122296837D01*
X117720686Y-122246595D01*
X117720693Y-122246591D01*
X117835787Y-122160431D01*
X117835790Y-122160428D01*
X117921950Y-122045334D01*
X117921954Y-122045327D01*
X117972196Y-121910620D01*
X117972198Y-121910613D01*
X117978599Y-121851085D01*
X117978600Y-121851068D01*
X117978600Y-121388241D01*
X115998600Y-121388241D01*
X115998600Y-122303241D01*
X115498600Y-122303241D01*
X115498600Y-121388241D01*
X113518600Y-121388241D01*
X113518600Y-121851085D01*
X110874772Y-121851085D01*
X111613368Y-121112490D01*
X111797230Y-120881936D01*
X111954120Y-120632246D01*
X112053734Y-120425396D01*
X113518600Y-120425396D01*
X113518600Y-120888241D01*
X115498600Y-120888241D01*
X115998600Y-120888241D01*
X117978600Y-120888241D01*
X117978600Y-120425413D01*
X117978599Y-120425396D01*
X117972198Y-120365868D01*
X117972196Y-120365861D01*
X117921954Y-120231154D01*
X117921950Y-120231147D01*
X117835790Y-120116053D01*
X117835787Y-120116050D01*
X117720693Y-120029890D01*
X117720686Y-120029886D01*
X117585979Y-119979644D01*
X117585972Y-119979642D01*
X117526444Y-119973241D01*
X115998600Y-119973241D01*
X115998600Y-120888241D01*
X115498600Y-120888241D01*
X115498600Y-119973241D01*
X113970755Y-119973241D01*
X113911227Y-119979642D01*
X113911220Y-119979644D01*
X113776513Y-120029886D01*
X113776506Y-120029890D01*
X113661412Y-120116050D01*
X113661409Y-120116053D01*
X113575249Y-120231147D01*
X113575245Y-120231154D01*
X113525003Y-120365861D01*
X113525001Y-120365868D01*
X113518600Y-120425396D01*
X112053734Y-120425396D01*
X112082068Y-120366559D01*
X112179464Y-120088218D01*
X112245083Y-119800722D01*
X112278100Y-119507685D01*
X112278100Y-119228284D01*
X112297785Y-119161245D01*
X112350589Y-119115490D01*
X112367506Y-119109207D01*
X112462797Y-119081522D01*
X112604152Y-118997926D01*
X112604161Y-118997919D01*
X112720278Y-118881802D01*
X112720285Y-118881793D01*
X112803881Y-118740439D01*
X112849700Y-118582727D01*
X112849895Y-118580242D01*
X112849895Y-118580241D01*
X112384978Y-118580241D01*
X112317939Y-118560556D01*
X112272184Y-118507752D01*
X112262240Y-118438594D01*
X112291265Y-118375038D01*
X112297297Y-118368560D01*
X112549298Y-118116560D01*
X112610621Y-118083075D01*
X112636979Y-118080241D01*
X112849895Y-118080241D01*
X112849895Y-118080239D01*
X112849700Y-118077752D01*
X112849699Y-118077746D01*
X112837087Y-118034336D01*
X112837286Y-117964467D01*
X112875228Y-117905797D01*
X112938866Y-117876953D01*
X112956163Y-117875741D01*
X113606315Y-117875741D01*
X113632673Y-117878574D01*
X113733167Y-117900436D01*
X113733168Y-117900436D01*
X113733172Y-117900437D01*
X113947152Y-117915741D01*
X117550048Y-117915741D01*
X117764028Y-117900437D01*
X117807240Y-117891037D01*
X118043637Y-117839612D01*
X118043637Y-117839611D01*
X118043646Y-117839610D01*
X118311761Y-117739608D01*
X118562915Y-117602467D01*
X118791995Y-117430980D01*
X118994339Y-117228636D01*
X119165826Y-116999556D01*
X119302967Y-116748402D01*
X119402969Y-116480287D01*
X119463796Y-116200669D01*
X119479100Y-115986689D01*
X119479100Y-114513793D01*
X119463796Y-114299813D01*
X119463752Y-114299613D01*
X119402971Y-114020203D01*
X119402970Y-114020201D01*
X119402969Y-114020195D01*
X119302967Y-113752080D01*
X119165826Y-113500926D01*
X119165680Y-113500731D01*
X118994345Y-113271853D01*
X118994329Y-113271835D01*
X118792005Y-113069511D01*
X118791987Y-113069495D01*
X118562917Y-112898016D01*
X118562909Y-112898011D01*
X118311766Y-112760876D01*
X118311767Y-112760876D01*
X118121529Y-112689921D01*
X118043646Y-112660872D01*
X118043643Y-112660871D01*
X118043637Y-112660869D01*
X117764033Y-112600045D01*
X117550050Y-112584741D01*
X117550048Y-112584741D01*
X113947152Y-112584741D01*
X113947149Y-112584741D01*
X113733168Y-112600045D01*
X113632674Y-112621907D01*
X113606315Y-112624741D01*
X111555148Y-112624741D01*
X111262133Y-112657755D01*
X111262115Y-112657758D01*
X110974623Y-112723376D01*
X110974611Y-112723380D01*
X110696277Y-112820774D01*
X110536302Y-112897815D01*
X110430597Y-112948719D01*
X110180906Y-113105610D01*
X110052639Y-113207900D01*
X109950350Y-113289472D01*
X109746632Y-113493191D01*
X109741832Y-113497991D01*
X109741828Y-113497995D01*
X109740268Y-113499555D01*
X109740253Y-113499570D01*
X109678919Y-113533035D01*
X109609229Y-113528028D01*
X109564932Y-113499555D01*
X109561699Y-113496323D01*
X109561680Y-113496302D01*
X109350049Y-113284672D01*
X109253779Y-113207900D01*
X109119495Y-113100812D01*
X108869805Y-112943921D01*
X108869802Y-112943919D01*
X108604122Y-112815974D01*
X108325788Y-112718580D01*
X108325776Y-112718576D01*
X108038284Y-112652958D01*
X108038266Y-112652955D01*
X107745251Y-112619941D01*
X107745245Y-112619941D01*
X107706939Y-112619941D01*
X107680580Y-112617107D01*
X107601230Y-112599845D01*
X107601233Y-112599845D01*
X107387250Y-112584541D01*
X107387248Y-112584541D01*
X103789952Y-112584541D01*
X103789949Y-112584541D01*
X103575966Y-112599845D01*
X103296362Y-112660669D01*
X103028233Y-112760676D01*
X102777090Y-112897811D01*
X102777085Y-112897815D01*
X102548012Y-113069295D01*
X102547994Y-113069311D01*
X102345670Y-113271635D01*
X102345654Y-113271653D01*
X102174175Y-113500723D01*
X102174170Y-113500731D01*
X102037035Y-113751874D01*
X101937028Y-114020003D01*
X101876204Y-114299607D01*
X101860900Y-114513590D01*
X96111100Y-114513590D01*
X96111100Y-114259793D01*
X96095796Y-114045813D01*
X96095752Y-114045613D01*
X96034971Y-113766203D01*
X96034970Y-113766201D01*
X96034969Y-113766195D01*
X95934967Y-113498080D01*
X95934936Y-113498024D01*
X95797829Y-113246931D01*
X95797824Y-113246923D01*
X95626345Y-113017853D01*
X95626329Y-113017835D01*
X95424005Y-112815511D01*
X95423987Y-112815495D01*
X95194917Y-112644016D01*
X95194909Y-112644011D01*
X94943766Y-112506876D01*
X94943767Y-112506876D01*
X94830356Y-112464576D01*
X94675646Y-112406872D01*
X94675643Y-112406871D01*
X94675637Y-112406869D01*
X94396033Y-112346045D01*
X94182050Y-112330741D01*
X94182048Y-112330741D01*
X90579152Y-112330741D01*
X90579149Y-112330741D01*
X90365168Y-112346045D01*
X90264674Y-112367907D01*
X90238315Y-112370741D01*
X88231494Y-112370741D01*
X88231458Y-112370740D01*
X88228045Y-112370740D01*
X87933156Y-112370740D01*
X87933152Y-112370740D01*
X87640131Y-112403756D01*
X87640115Y-112403758D01*
X87352623Y-112469376D01*
X87352621Y-112469377D01*
X87074280Y-112566772D01*
X86808597Y-112694719D01*
X86558906Y-112851610D01*
X86362522Y-113008221D01*
X86297835Y-113034630D01*
X86229140Y-113021873D01*
X86207896Y-113008221D01*
X86133285Y-112948721D01*
X86005495Y-112846812D01*
X85809048Y-112723376D01*
X85755802Y-112689919D01*
X85490122Y-112561974D01*
X85211788Y-112464580D01*
X85211776Y-112464576D01*
X84924284Y-112398958D01*
X84924266Y-112398955D01*
X84631251Y-112365941D01*
X84631245Y-112365941D01*
X84592939Y-112365941D01*
X84566580Y-112363107D01*
X84487230Y-112345845D01*
X84487233Y-112345845D01*
X84273250Y-112330541D01*
X84273248Y-112330541D01*
X80675952Y-112330541D01*
X80675949Y-112330541D01*
X80461966Y-112345845D01*
X80182362Y-112406669D01*
X79914233Y-112506676D01*
X79663090Y-112643811D01*
X79663082Y-112643816D01*
X79434012Y-112815295D01*
X79433994Y-112815311D01*
X79231670Y-113017635D01*
X79231654Y-113017653D01*
X79060175Y-113246723D01*
X79060170Y-113246731D01*
X78923035Y-113497874D01*
X78823028Y-113766003D01*
X78762204Y-114045607D01*
X78746900Y-114259590D01*
X73227046Y-114259590D01*
X73174971Y-114020203D01*
X73174970Y-114020201D01*
X73174969Y-114020195D01*
X73074967Y-113752080D01*
X72937826Y-113500926D01*
X72937680Y-113500731D01*
X72766345Y-113271853D01*
X72766329Y-113271835D01*
X72564005Y-113069511D01*
X72563987Y-113069495D01*
X72334917Y-112898016D01*
X72334909Y-112898011D01*
X72083766Y-112760876D01*
X72083767Y-112760876D01*
X71893529Y-112689921D01*
X71815646Y-112660872D01*
X71815643Y-112660871D01*
X71815637Y-112660869D01*
X71536033Y-112600045D01*
X71322050Y-112584741D01*
X71322048Y-112584741D01*
X67719152Y-112584741D01*
X67719149Y-112584741D01*
X67505168Y-112600045D01*
X67404674Y-112621907D01*
X67378315Y-112624741D01*
X65371494Y-112624741D01*
X65371458Y-112624740D01*
X65368045Y-112624740D01*
X65073156Y-112624740D01*
X65073152Y-112624740D01*
X64780131Y-112657756D01*
X64780115Y-112657758D01*
X64492623Y-112723376D01*
X64492621Y-112723377D01*
X64214280Y-112820772D01*
X63948597Y-112948719D01*
X63698906Y-113105610D01*
X63502522Y-113262221D01*
X63437835Y-113288630D01*
X63369140Y-113275873D01*
X63347896Y-113262221D01*
X63279779Y-113207900D01*
X63145495Y-113100812D01*
X62895805Y-112943921D01*
X62895802Y-112943919D01*
X62630122Y-112815974D01*
X62351788Y-112718580D01*
X62351776Y-112718576D01*
X62064284Y-112652958D01*
X62064266Y-112652955D01*
X61771251Y-112619941D01*
X61771245Y-112619941D01*
X61732939Y-112619941D01*
X61706580Y-112617107D01*
X61627230Y-112599845D01*
X61627233Y-112599845D01*
X61413250Y-112584541D01*
X61413248Y-112584541D01*
X57815952Y-112584541D01*
X57815949Y-112584541D01*
X57601966Y-112599845D01*
X57322362Y-112660669D01*
X57054233Y-112760676D01*
X56803090Y-112897811D01*
X56803085Y-112897815D01*
X56574012Y-113069295D01*
X56573994Y-113069311D01*
X56371670Y-113271635D01*
X56371654Y-113271653D01*
X56200175Y-113500723D01*
X56200170Y-113500731D01*
X56063035Y-113751874D01*
X55963028Y-114020003D01*
X55902204Y-114299607D01*
X55886900Y-114513590D01*
X50500500Y-114513590D01*
X50500500Y-107500000D01*
X55684567Y-107500000D01*
X55704289Y-107914014D01*
X55763275Y-108324272D01*
X55860993Y-108727068D01*
X55860996Y-108727079D01*
X55996550Y-109118735D01*
X55996560Y-109118760D01*
X56168739Y-109495779D01*
X56375980Y-109854730D01*
X56375986Y-109854739D01*
X56616397Y-110192349D01*
X56616398Y-110192350D01*
X56887825Y-110505593D01*
X57187798Y-110791617D01*
X57513601Y-111047831D01*
X57862284Y-111271916D01*
X58230688Y-111461841D01*
X58230693Y-111461843D01*
X58230697Y-111461845D01*
X58486848Y-111564392D01*
X58615477Y-111615888D01*
X59013168Y-111732660D01*
X59420157Y-111811101D01*
X59832760Y-111850500D01*
X59832766Y-111850500D01*
X60247234Y-111850500D01*
X60247240Y-111850500D01*
X60659843Y-111811101D01*
X61066832Y-111732660D01*
X61464523Y-111615888D01*
X61849312Y-111461841D01*
X62217717Y-111271916D01*
X62353149Y-111184878D01*
X62566380Y-111047844D01*
X62566388Y-111047838D01*
X62566399Y-111047831D01*
X62892202Y-110791617D01*
X63192175Y-110505593D01*
X63463602Y-110192350D01*
X63704023Y-109854725D01*
X63911263Y-109495775D01*
X64083444Y-109118751D01*
X64219007Y-108727067D01*
X64316725Y-108324271D01*
X64375711Y-107914010D01*
X64395433Y-107500000D01*
X110664567Y-107500000D01*
X110684289Y-107914014D01*
X110743275Y-108324272D01*
X110840993Y-108727068D01*
X110840996Y-108727079D01*
X110976550Y-109118735D01*
X110976560Y-109118760D01*
X111148739Y-109495779D01*
X111355980Y-109854730D01*
X111355986Y-109854739D01*
X111596397Y-110192349D01*
X111596398Y-110192350D01*
X111867825Y-110505593D01*
X112167798Y-110791617D01*
X112493601Y-111047831D01*
X112842284Y-111271916D01*
X113210688Y-111461841D01*
X113210693Y-111461843D01*
X113210697Y-111461845D01*
X113466848Y-111564392D01*
X113595477Y-111615888D01*
X113993168Y-111732660D01*
X114400157Y-111811101D01*
X114812760Y-111850500D01*
X114812766Y-111850500D01*
X115227234Y-111850500D01*
X115227240Y-111850500D01*
X115639843Y-111811101D01*
X116046832Y-111732660D01*
X116444523Y-111615888D01*
X116829312Y-111461841D01*
X117197717Y-111271916D01*
X117333149Y-111184878D01*
X117546380Y-111047844D01*
X117546388Y-111047838D01*
X117546399Y-111047831D01*
X117872202Y-110791617D01*
X118172175Y-110505593D01*
X118443602Y-110192350D01*
X118684023Y-109854725D01*
X118891263Y-109495775D01*
X119063444Y-109118751D01*
X119199007Y-108727067D01*
X119296725Y-108324271D01*
X119355711Y-107914010D01*
X119375433Y-107500000D01*
X119355711Y-107085990D01*
X119296725Y-106675729D01*
X119199007Y-106272933D01*
X119194558Y-106260079D01*
X119063449Y-105881264D01*
X119063444Y-105881249D01*
X118891263Y-105504225D01*
X118684023Y-105145275D01*
X118684019Y-105145269D01*
X118684013Y-105145260D01*
X118443602Y-104807650D01*
X118172177Y-104494409D01*
X118073409Y-104400234D01*
X118038474Y-104339725D01*
X118041799Y-104269934D01*
X118082327Y-104213020D01*
X118136623Y-104188523D01*
X118350400Y-104149348D01*
X118668545Y-104050210D01*
X118972420Y-103913447D01*
X119257595Y-103741053D01*
X119519910Y-103535542D01*
X119755542Y-103299910D01*
X119961053Y-103037595D01*
X120133447Y-102752420D01*
X120270210Y-102448545D01*
X120369348Y-102130400D01*
X120429415Y-101802625D01*
X120449535Y-101470000D01*
X120429415Y-101137375D01*
X120369348Y-100809600D01*
X120270210Y-100491455D01*
X120133447Y-100187580D01*
X119961053Y-99902405D01*
X119951891Y-99890711D01*
X119755539Y-99640086D01*
X119519913Y-99404460D01*
X119257602Y-99198952D01*
X119257597Y-99198949D01*
X119257595Y-99198947D01*
X118972420Y-99026553D01*
X118668545Y-98889790D01*
X118668540Y-98889788D01*
X118668537Y-98889787D01*
X118668526Y-98889783D01*
X118350408Y-98790654D01*
X118350404Y-98790653D01*
X118350400Y-98790652D01*
X118022625Y-98730585D01*
X118022624Y-98730584D01*
X118022619Y-98730584D01*
X117690000Y-98710465D01*
X117357380Y-98730584D01*
X117294210Y-98742160D01*
X117029600Y-98790652D01*
X117029597Y-98790652D01*
X117029591Y-98790654D01*
X116711473Y-98889783D01*
X116711462Y-98889787D01*
X116407584Y-99026551D01*
X116407582Y-99026552D01*
X116122406Y-99198946D01*
X116122397Y-99198952D01*
X115860086Y-99404460D01*
X115624460Y-99640086D01*
X115418952Y-99902397D01*
X115418946Y-99902406D01*
X115246552Y-100187582D01*
X115246551Y-100187584D01*
X115109787Y-100491462D01*
X115109783Y-100491473D01*
X115010654Y-100809591D01*
X114950584Y-101137380D01*
X114930465Y-101470000D01*
X114950584Y-101802619D01*
X114950584Y-101802624D01*
X114950585Y-101802625D01*
X115010652Y-102130400D01*
X115010653Y-102130404D01*
X115010654Y-102130408D01*
X115109783Y-102448526D01*
X115109787Y-102448537D01*
X115109788Y-102448540D01*
X115109790Y-102448545D01*
X115246553Y-102752420D01*
X115354217Y-102930519D01*
X115374913Y-102964754D01*
X115392749Y-103032309D01*
X115371231Y-103098783D01*
X115317191Y-103143070D01*
X115257011Y-103152342D01*
X115227240Y-103149500D01*
X114812760Y-103149500D01*
X114565198Y-103173139D01*
X114400153Y-103188899D01*
X114400141Y-103188901D01*
X113993179Y-103267337D01*
X113993162Y-103267341D01*
X113595487Y-103384108D01*
X113595475Y-103384112D01*
X113210697Y-103538154D01*
X112842287Y-103728082D01*
X112493612Y-103952161D01*
X112493605Y-103952166D01*
X112493601Y-103952169D01*
X112368932Y-104050210D01*
X112167797Y-104208383D01*
X112167788Y-104208392D01*
X111867822Y-104494409D01*
X111596397Y-104807650D01*
X111355986Y-105145260D01*
X111355980Y-105145269D01*
X111148739Y-105504220D01*
X110976560Y-105881239D01*
X110976550Y-105881264D01*
X110840996Y-106272920D01*
X110840993Y-106272931D01*
X110743275Y-106675727D01*
X110684289Y-107085985D01*
X110664567Y-107500000D01*
X64395433Y-107500000D01*
X64375711Y-107085990D01*
X64316725Y-106675729D01*
X64219007Y-106272933D01*
X64214558Y-106260079D01*
X64083449Y-105881264D01*
X64083444Y-105881249D01*
X63925317Y-105535000D01*
X89394877Y-105535000D01*
X89414539Y-105784840D01*
X89473048Y-106028545D01*
X89568952Y-106260079D01*
X89699817Y-106473629D01*
X90246916Y-105926530D01*
X90249197Y-105932037D01*
X90340927Y-106069322D01*
X90457678Y-106186073D01*
X90594963Y-106277803D01*
X90600468Y-106280083D01*
X90053369Y-106827181D01*
X90266920Y-106958047D01*
X90498455Y-107053951D01*
X90498452Y-107053951D01*
X90742159Y-107112460D01*
X90992000Y-107132122D01*
X91241840Y-107112460D01*
X91485545Y-107053951D01*
X91717079Y-106958047D01*
X91930629Y-106827182D01*
X91930629Y-106827181D01*
X91383531Y-106280083D01*
X91389037Y-106277803D01*
X91526322Y-106186073D01*
X91643073Y-106069322D01*
X91734803Y-105932037D01*
X91737083Y-105926531D01*
X92284181Y-106473629D01*
X92284182Y-106473629D01*
X92415047Y-106260079D01*
X92510951Y-106028545D01*
X92569460Y-105784840D01*
X92589122Y-105535000D01*
X92569460Y-105285159D01*
X92510951Y-105041454D01*
X92415047Y-104809920D01*
X92284181Y-104596369D01*
X91737083Y-105143467D01*
X91734803Y-105137963D01*
X91643073Y-105000678D01*
X91526322Y-104883927D01*
X91389037Y-104792197D01*
X91383529Y-104789915D01*
X91930629Y-104242817D01*
X91717079Y-104111952D01*
X91485544Y-104016048D01*
X91485547Y-104016048D01*
X91241840Y-103957539D01*
X90992000Y-103937877D01*
X90742159Y-103957539D01*
X90498454Y-104016048D01*
X90266920Y-104111952D01*
X90053369Y-104242817D01*
X90600468Y-104789916D01*
X90594963Y-104792197D01*
X90457678Y-104883927D01*
X90340927Y-105000678D01*
X90249197Y-105137963D01*
X90246916Y-105143468D01*
X89699817Y-104596369D01*
X89568952Y-104809920D01*
X89473048Y-105041454D01*
X89414539Y-105285159D01*
X89394877Y-105535000D01*
X63925317Y-105535000D01*
X63911263Y-105504225D01*
X63704023Y-105145275D01*
X63704019Y-105145269D01*
X63704013Y-105145260D01*
X63463602Y-104807650D01*
X63192177Y-104494409D01*
X63029949Y-104339725D01*
X62892202Y-104208383D01*
X62566399Y-103952169D01*
X62566392Y-103952164D01*
X62566380Y-103952155D01*
X62217724Y-103728088D01*
X62217717Y-103728084D01*
X61849302Y-103538154D01*
X61464524Y-103384112D01*
X61464512Y-103384108D01*
X61066837Y-103267341D01*
X61066820Y-103267337D01*
X60659858Y-103188901D01*
X60659846Y-103188899D01*
X60522308Y-103175766D01*
X60247240Y-103149500D01*
X59832760Y-103149500D01*
X59585198Y-103173139D01*
X59420153Y-103188899D01*
X59420141Y-103188901D01*
X59013179Y-103267337D01*
X59013162Y-103267341D01*
X58615487Y-103384108D01*
X58615475Y-103384112D01*
X58230697Y-103538154D01*
X57862287Y-103728082D01*
X57513612Y-103952161D01*
X57513605Y-103952166D01*
X57513601Y-103952169D01*
X57388932Y-104050210D01*
X57187797Y-104208383D01*
X57187788Y-104208392D01*
X56887822Y-104494409D01*
X56616397Y-104807650D01*
X56375986Y-105145260D01*
X56375980Y-105145269D01*
X56168739Y-105504220D01*
X55996560Y-105881239D01*
X55996550Y-105881264D01*
X55860996Y-106272920D01*
X55860993Y-106272931D01*
X55763275Y-106675727D01*
X55704289Y-107085985D01*
X55684567Y-107500000D01*
X50500500Y-107500000D01*
X50500500Y-100456000D01*
X68986564Y-100456000D01*
X69006287Y-100756918D01*
X69006288Y-100756930D01*
X69065118Y-101052683D01*
X69065122Y-101052698D01*
X69162053Y-101338247D01*
X69162062Y-101338268D01*
X69295431Y-101608713D01*
X69295435Y-101608720D01*
X69462973Y-101859459D01*
X69661810Y-102086189D01*
X69888540Y-102285026D01*
X70139279Y-102452564D01*
X70139286Y-102452568D01*
X70409731Y-102585937D01*
X70409736Y-102585939D01*
X70409748Y-102585945D01*
X70695309Y-102682880D01*
X70895251Y-102722651D01*
X70991069Y-102741711D01*
X70991070Y-102741711D01*
X70991080Y-102741713D01*
X71292000Y-102761436D01*
X71592920Y-102741713D01*
X71888691Y-102682880D01*
X72174252Y-102585945D01*
X72444718Y-102452566D01*
X72695461Y-102285025D01*
X72922189Y-102086189D01*
X73121025Y-101859461D01*
X73288566Y-101608718D01*
X73421945Y-101338252D01*
X73518880Y-101052691D01*
X73577713Y-100756920D01*
X73597436Y-100456000D01*
X73577713Y-100155080D01*
X73518880Y-99859309D01*
X73421945Y-99573748D01*
X73403507Y-99536360D01*
X73288568Y-99303286D01*
X73288564Y-99303279D01*
X73121026Y-99052540D01*
X72922189Y-98825810D01*
X72695459Y-98626973D01*
X72444720Y-98459435D01*
X72444713Y-98459431D01*
X72174268Y-98326062D01*
X72174247Y-98326053D01*
X71888698Y-98229122D01*
X71888692Y-98229120D01*
X71888691Y-98229120D01*
X71888689Y-98229119D01*
X71888683Y-98229118D01*
X71592930Y-98170288D01*
X71592921Y-98170287D01*
X71592920Y-98170287D01*
X71292000Y-98150564D01*
X70991080Y-98170287D01*
X70991079Y-98170287D01*
X70991069Y-98170288D01*
X70695316Y-98229118D01*
X70695301Y-98229122D01*
X70409752Y-98326053D01*
X70409731Y-98326062D01*
X70139286Y-98459431D01*
X70139279Y-98459435D01*
X69888540Y-98626973D01*
X69661810Y-98825810D01*
X69462973Y-99052540D01*
X69295435Y-99303279D01*
X69295431Y-99303286D01*
X69162062Y-99573731D01*
X69162053Y-99573752D01*
X69065122Y-99859301D01*
X69065118Y-99859316D01*
X69006288Y-100155069D01*
X69006287Y-100155079D01*
X69006287Y-100155080D01*
X69000393Y-100245000D01*
X68986564Y-100456000D01*
X50500500Y-100456000D01*
X50500500Y-95437996D01*
X57740415Y-95437996D01*
X57740415Y-95438003D01*
X57760738Y-95786927D01*
X57760739Y-95786938D01*
X57821428Y-96131127D01*
X57821430Y-96131134D01*
X57921674Y-96465972D01*
X58060107Y-96786895D01*
X58060113Y-96786908D01*
X58234870Y-97089597D01*
X58443584Y-97369949D01*
X58443589Y-97369955D01*
X58475367Y-97403637D01*
X58683442Y-97624183D01*
X58859903Y-97772251D01*
X58951186Y-97848847D01*
X58951194Y-97848853D01*
X59243203Y-98040911D01*
X59243207Y-98040913D01*
X59555549Y-98197777D01*
X59883989Y-98317319D01*
X60224086Y-98397923D01*
X60571241Y-98438500D01*
X60571248Y-98438500D01*
X60920752Y-98438500D01*
X60920759Y-98438500D01*
X61267914Y-98397923D01*
X61608011Y-98317319D01*
X61936451Y-98197777D01*
X62248793Y-98040913D01*
X62540811Y-97848849D01*
X62808558Y-97624183D01*
X63048412Y-97369953D01*
X63257130Y-97089596D01*
X63431889Y-96786904D01*
X63570326Y-96465971D01*
X63670569Y-96131136D01*
X63682358Y-96064280D01*
X63731260Y-95786938D01*
X63731259Y-95786938D01*
X63731262Y-95786927D01*
X63751585Y-95438000D01*
X63747916Y-95375000D01*
X87894427Y-95375000D01*
X87913903Y-95721813D01*
X87913905Y-95721825D01*
X87972089Y-96064271D01*
X87972091Y-96064280D01*
X88068249Y-96398055D01*
X88068252Y-96398064D01*
X88201183Y-96718987D01*
X88207378Y-96730196D01*
X88369212Y-97023012D01*
X88369215Y-97023017D01*
X88570216Y-97306300D01*
X88570220Y-97306305D01*
X88801685Y-97565315D01*
X89060695Y-97796780D01*
X89060698Y-97796782D01*
X89060699Y-97796783D01*
X89343982Y-97997784D01*
X89343987Y-97997787D01*
X89343990Y-97997788D01*
X89343992Y-97997790D01*
X89648013Y-98165817D01*
X89968936Y-98298748D01*
X90302725Y-98394910D01*
X90645182Y-98453096D01*
X90992000Y-98472573D01*
X91338818Y-98453096D01*
X91681275Y-98394910D01*
X92015064Y-98298748D01*
X92335987Y-98165817D01*
X92640008Y-97997790D01*
X92640013Y-97997786D01*
X92640017Y-97997784D01*
X92849915Y-97848853D01*
X92923305Y-97796780D01*
X93182315Y-97565315D01*
X93413780Y-97306305D01*
X93531707Y-97140101D01*
X93614784Y-97023017D01*
X93614787Y-97023012D01*
X93614790Y-97023008D01*
X93782817Y-96718987D01*
X93915748Y-96398064D01*
X94011910Y-96064275D01*
X94070096Y-95721818D01*
X94086035Y-95437996D01*
X95740415Y-95437996D01*
X95740415Y-95438003D01*
X95760738Y-95786927D01*
X95760739Y-95786938D01*
X95821428Y-96131127D01*
X95821430Y-96131134D01*
X95921674Y-96465972D01*
X96060107Y-96786895D01*
X96060113Y-96786908D01*
X96234870Y-97089597D01*
X96443584Y-97369949D01*
X96443589Y-97369955D01*
X96475367Y-97403637D01*
X96683442Y-97624183D01*
X96859903Y-97772251D01*
X96951186Y-97848847D01*
X96951194Y-97848853D01*
X97243203Y-98040911D01*
X97243207Y-98040913D01*
X97555549Y-98197777D01*
X97883989Y-98317319D01*
X98224086Y-98397923D01*
X98571241Y-98438500D01*
X98571248Y-98438500D01*
X98920752Y-98438500D01*
X98920759Y-98438500D01*
X99267914Y-98397923D01*
X99608011Y-98317319D01*
X99936451Y-98197777D01*
X100248793Y-98040913D01*
X100540811Y-97848849D01*
X100808558Y-97624183D01*
X101048412Y-97369953D01*
X101257130Y-97089596D01*
X101431889Y-96786904D01*
X101570326Y-96465971D01*
X101670569Y-96131136D01*
X101682358Y-96064280D01*
X101731260Y-95786938D01*
X101731259Y-95786938D01*
X101731262Y-95786927D01*
X101751585Y-95438000D01*
X101731262Y-95089073D01*
X101720922Y-95030433D01*
X101670571Y-94744872D01*
X101670569Y-94744865D01*
X101570325Y-94410027D01*
X101547447Y-94356989D01*
X101431889Y-94089096D01*
X101257130Y-93786404D01*
X101257129Y-93786402D01*
X101048415Y-93506050D01*
X101048410Y-93506044D01*
X100932433Y-93383117D01*
X100808558Y-93251817D01*
X100568299Y-93050216D01*
X100540813Y-93027152D01*
X100540805Y-93027146D01*
X100248796Y-92835088D01*
X99936458Y-92678226D01*
X99936452Y-92678223D01*
X99608012Y-92558681D01*
X99608009Y-92558680D01*
X99267915Y-92478077D01*
X99224519Y-92473004D01*
X98920759Y-92437500D01*
X98571241Y-92437500D01*
X98267480Y-92473004D01*
X98224085Y-92478077D01*
X98224083Y-92478077D01*
X97883990Y-92558680D01*
X97883987Y-92558681D01*
X97555547Y-92678223D01*
X97555541Y-92678226D01*
X97243203Y-92835088D01*
X96951194Y-93027146D01*
X96951186Y-93027152D01*
X96683442Y-93251817D01*
X96683440Y-93251819D01*
X96443589Y-93506044D01*
X96443584Y-93506050D01*
X96234870Y-93786402D01*
X96060113Y-94089091D01*
X96060107Y-94089104D01*
X95921674Y-94410027D01*
X95821430Y-94744865D01*
X95821428Y-94744872D01*
X95760739Y-95089061D01*
X95760738Y-95089072D01*
X95740415Y-95437996D01*
X94086035Y-95437996D01*
X94089573Y-95375000D01*
X94070096Y-95028182D01*
X94011910Y-94685725D01*
X93915748Y-94351936D01*
X93782817Y-94031013D01*
X93614790Y-93726992D01*
X93614788Y-93726990D01*
X93614787Y-93726987D01*
X93614784Y-93726982D01*
X93413783Y-93443699D01*
X93413782Y-93443698D01*
X93413780Y-93443695D01*
X93182315Y-93184685D01*
X92923305Y-92953220D01*
X92923302Y-92953218D01*
X92923300Y-92953216D01*
X92640017Y-92752215D01*
X92640012Y-92752212D01*
X92335985Y-92584182D01*
X92274417Y-92558680D01*
X92015064Y-92451252D01*
X92015058Y-92451250D01*
X92015055Y-92451249D01*
X91681280Y-92355091D01*
X91681271Y-92355089D01*
X91338825Y-92296905D01*
X91338813Y-92296903D01*
X90992000Y-92277427D01*
X90645186Y-92296903D01*
X90645174Y-92296905D01*
X90302728Y-92355089D01*
X90302719Y-92355091D01*
X89968944Y-92451249D01*
X89968938Y-92451251D01*
X89968936Y-92451252D01*
X89904175Y-92478077D01*
X89648014Y-92584182D01*
X89343987Y-92752212D01*
X89343982Y-92752215D01*
X89060699Y-92953216D01*
X88801685Y-93184685D01*
X88570216Y-93443699D01*
X88369215Y-93726982D01*
X88369212Y-93726987D01*
X88201182Y-94031014D01*
X88068249Y-94351944D01*
X87972091Y-94685719D01*
X87972089Y-94685728D01*
X87913905Y-95028174D01*
X87913903Y-95028186D01*
X87894427Y-95375000D01*
X63747916Y-95375000D01*
X63731262Y-95089073D01*
X63720922Y-95030433D01*
X63670571Y-94744872D01*
X63670569Y-94744865D01*
X63570325Y-94410027D01*
X63547447Y-94356989D01*
X63431889Y-94089096D01*
X63257130Y-93786404D01*
X63257129Y-93786402D01*
X63048415Y-93506050D01*
X63048410Y-93506044D01*
X62932433Y-93383117D01*
X62808558Y-93251817D01*
X62568299Y-93050216D01*
X62540813Y-93027152D01*
X62540805Y-93027146D01*
X62248796Y-92835088D01*
X61936458Y-92678226D01*
X61936452Y-92678223D01*
X61608012Y-92558681D01*
X61608009Y-92558680D01*
X61267915Y-92478077D01*
X61224519Y-92473004D01*
X60920759Y-92437500D01*
X60571241Y-92437500D01*
X60267480Y-92473004D01*
X60224085Y-92478077D01*
X60224083Y-92478077D01*
X59883990Y-92558680D01*
X59883987Y-92558681D01*
X59555547Y-92678223D01*
X59555541Y-92678226D01*
X59243203Y-92835088D01*
X58951194Y-93027146D01*
X58951186Y-93027152D01*
X58683442Y-93251817D01*
X58683440Y-93251819D01*
X58443589Y-93506044D01*
X58443584Y-93506050D01*
X58234870Y-93786402D01*
X58060113Y-94089091D01*
X58060107Y-94089104D01*
X57921674Y-94410027D01*
X57821430Y-94744865D01*
X57821428Y-94744872D01*
X57760739Y-95089061D01*
X57760738Y-95089072D01*
X57740415Y-95437996D01*
X50500500Y-95437996D01*
X50500500Y-92123549D01*
X104414500Y-92123549D01*
X104414500Y-94816450D01*
X104429804Y-95030433D01*
X104490628Y-95310037D01*
X104590635Y-95578166D01*
X104727770Y-95829309D01*
X104727775Y-95829317D01*
X104899254Y-96058387D01*
X104899270Y-96058405D01*
X105101594Y-96260729D01*
X105101612Y-96260745D01*
X105330682Y-96432224D01*
X105330690Y-96432229D01*
X105581833Y-96569364D01*
X105581832Y-96569364D01*
X105581836Y-96569365D01*
X105581839Y-96569367D01*
X105849954Y-96669369D01*
X105849960Y-96669370D01*
X105849962Y-96669371D01*
X106129566Y-96730195D01*
X106129568Y-96730195D01*
X106129572Y-96730196D01*
X106343552Y-96745500D01*
X106666417Y-96745500D01*
X106733456Y-96765185D01*
X106779211Y-96817989D01*
X106789155Y-96887147D01*
X106760130Y-96950703D01*
X106736268Y-96971954D01*
X106622840Y-97049287D01*
X107289438Y-97715884D01*
X107287374Y-97716740D01*
X107148156Y-97809762D01*
X107029762Y-97928156D01*
X106936740Y-98067374D01*
X106935885Y-98069438D01*
X106270084Y-97403637D01*
X106219316Y-97467299D01*
X106086296Y-97697696D01*
X105989104Y-97945337D01*
X105989098Y-97945356D01*
X105929903Y-98204707D01*
X105929903Y-98204709D01*
X105910023Y-98469995D01*
X105910023Y-98470004D01*
X105929903Y-98735290D01*
X105929903Y-98735292D01*
X105989098Y-98994643D01*
X105989104Y-98994662D01*
X106086296Y-99242303D01*
X106219313Y-99472695D01*
X106219320Y-99472706D01*
X106270084Y-99536360D01*
X106270085Y-99536361D01*
X106935884Y-98870561D01*
X106936740Y-98872626D01*
X107029762Y-99011844D01*
X107148156Y-99130238D01*
X107287374Y-99223260D01*
X107289437Y-99224114D01*
X106622839Y-99890711D01*
X106800011Y-100011504D01*
X106800015Y-100011506D01*
X107039695Y-100126931D01*
X107039699Y-100126932D01*
X107293909Y-100205346D01*
X107293915Y-100205347D01*
X107556976Y-100244999D01*
X107556983Y-100245000D01*
X107823017Y-100245000D01*
X107823023Y-100244999D01*
X108086084Y-100205347D01*
X108086090Y-100205346D01*
X108340299Y-100126933D01*
X108579984Y-100011507D01*
X108757159Y-99890711D01*
X108090562Y-99224114D01*
X108092626Y-99223260D01*
X108231844Y-99130238D01*
X108350238Y-99011844D01*
X108443260Y-98872626D01*
X108444114Y-98870562D01*
X109109913Y-99536361D01*
X109109913Y-99536360D01*
X109160688Y-99472693D01*
X109293703Y-99242303D01*
X109390895Y-98994662D01*
X109390901Y-98994643D01*
X109450096Y-98735292D01*
X109450096Y-98735290D01*
X109469977Y-98470004D01*
X109469977Y-98469995D01*
X109450096Y-98204709D01*
X109450096Y-98204707D01*
X109390901Y-97945356D01*
X109390895Y-97945337D01*
X109293703Y-97697696D01*
X109160686Y-97467304D01*
X109109913Y-97403637D01*
X108444114Y-98069436D01*
X108443260Y-98067374D01*
X108350238Y-97928156D01*
X108231844Y-97809762D01*
X108092626Y-97716740D01*
X108090561Y-97715884D01*
X108757159Y-97049287D01*
X108643732Y-96971954D01*
X108599430Y-96917925D01*
X108591370Y-96848522D01*
X108622113Y-96785779D01*
X108681897Y-96749617D01*
X108713583Y-96745500D01*
X109036448Y-96745500D01*
X109250428Y-96730196D01*
X109301965Y-96718985D01*
X109530037Y-96669371D01*
X109530037Y-96669370D01*
X109530046Y-96669369D01*
X109798161Y-96569367D01*
X110049315Y-96432226D01*
X110278395Y-96260739D01*
X110480739Y-96058395D01*
X110652226Y-95829315D01*
X110789367Y-95578161D01*
X110889369Y-95310046D01*
X110950196Y-95030428D01*
X110965500Y-94816448D01*
X110965500Y-92123552D01*
X110950196Y-91909572D01*
X110889369Y-91629954D01*
X110789367Y-91361839D01*
X110662991Y-91130400D01*
X110652229Y-91110690D01*
X110652224Y-91110682D01*
X110480745Y-90881612D01*
X110480729Y-90881594D01*
X110278405Y-90679270D01*
X110278387Y-90679254D01*
X110049317Y-90507775D01*
X110049309Y-90507770D01*
X109980139Y-90470000D01*
X114930465Y-90470000D01*
X114950584Y-90802619D01*
X114950584Y-90802624D01*
X114950585Y-90802625D01*
X115010652Y-91130400D01*
X115010653Y-91130404D01*
X115010654Y-91130408D01*
X115109783Y-91448526D01*
X115109787Y-91448537D01*
X115109788Y-91448540D01*
X115109790Y-91448545D01*
X115246553Y-91752420D01*
X115341551Y-91909566D01*
X115418946Y-92037593D01*
X115418952Y-92037602D01*
X115624460Y-92299913D01*
X115860086Y-92535539D01*
X116042208Y-92678223D01*
X116122405Y-92741053D01*
X116407580Y-92913447D01*
X116711455Y-93050210D01*
X116711465Y-93050213D01*
X116711473Y-93050216D01*
X116923551Y-93116302D01*
X117029600Y-93149348D01*
X117357375Y-93209415D01*
X117690000Y-93229535D01*
X118022625Y-93209415D01*
X118350400Y-93149348D01*
X118668545Y-93050210D01*
X118972420Y-92913447D01*
X119257595Y-92741053D01*
X119519910Y-92535542D01*
X119755542Y-92299910D01*
X119961053Y-92037595D01*
X120133447Y-91752420D01*
X120270210Y-91448545D01*
X120369348Y-91130400D01*
X120429415Y-90802625D01*
X120449535Y-90470000D01*
X120429415Y-90137375D01*
X120369348Y-89809600D01*
X120270210Y-89491455D01*
X120133447Y-89187580D01*
X119961053Y-88902405D01*
X119755542Y-88640090D01*
X119755539Y-88640086D01*
X119519913Y-88404460D01*
X119257602Y-88198952D01*
X119257597Y-88198949D01*
X119257595Y-88198947D01*
X118972420Y-88026553D01*
X118668545Y-87889790D01*
X118668540Y-87889788D01*
X118668537Y-87889787D01*
X118668526Y-87889783D01*
X118350408Y-87790654D01*
X118350404Y-87790653D01*
X118350400Y-87790652D01*
X118022625Y-87730585D01*
X118022624Y-87730584D01*
X118022619Y-87730584D01*
X117690000Y-87710465D01*
X117357380Y-87730584D01*
X117357375Y-87730585D01*
X117029600Y-87790652D01*
X117029597Y-87790652D01*
X117029591Y-87790654D01*
X116711473Y-87889783D01*
X116711462Y-87889787D01*
X116407584Y-88026551D01*
X116407582Y-88026552D01*
X116122406Y-88198946D01*
X116122397Y-88198952D01*
X115860086Y-88404460D01*
X115624460Y-88640086D01*
X115418952Y-88902397D01*
X115418946Y-88902406D01*
X115246552Y-89187582D01*
X115246551Y-89187584D01*
X115109787Y-89491462D01*
X115109783Y-89491473D01*
X115010654Y-89809591D01*
X114950584Y-90137380D01*
X114930465Y-90470000D01*
X109980139Y-90470000D01*
X109798166Y-90370635D01*
X109798167Y-90370635D01*
X109690915Y-90330632D01*
X109530046Y-90270631D01*
X109530043Y-90270630D01*
X109530037Y-90270628D01*
X109250433Y-90209804D01*
X109036450Y-90194500D01*
X109036448Y-90194500D01*
X106343552Y-90194500D01*
X106343549Y-90194500D01*
X106129566Y-90209804D01*
X105849962Y-90270628D01*
X105581833Y-90370635D01*
X105330690Y-90507770D01*
X105330682Y-90507775D01*
X105101612Y-90679254D01*
X105101594Y-90679270D01*
X104899270Y-90881594D01*
X104899254Y-90881612D01*
X104727775Y-91110682D01*
X104727770Y-91110690D01*
X104590635Y-91361833D01*
X104490628Y-91629962D01*
X104429804Y-91909566D01*
X104414500Y-92123549D01*
X50500500Y-92123549D01*
X50500500Y-85438000D01*
X66140551Y-85438000D01*
X66160317Y-85689151D01*
X66219126Y-85934110D01*
X66315533Y-86166859D01*
X66447160Y-86381653D01*
X66447161Y-86381656D01*
X66447164Y-86381659D01*
X66610776Y-86573224D01*
X66759066Y-86699875D01*
X66802343Y-86736838D01*
X66802346Y-86736839D01*
X67017140Y-86868466D01*
X67249889Y-86964873D01*
X67494852Y-87023683D01*
X67746000Y-87043449D01*
X67997148Y-87023683D01*
X68242111Y-86964873D01*
X68474859Y-86868466D01*
X68689659Y-86736836D01*
X68881224Y-86573224D01*
X69044836Y-86381659D01*
X69176466Y-86166859D01*
X69272873Y-85934111D01*
X69331683Y-85689148D01*
X69351449Y-85438000D01*
X90140551Y-85438000D01*
X90160317Y-85689151D01*
X90219126Y-85934110D01*
X90315533Y-86166859D01*
X90447160Y-86381653D01*
X90447161Y-86381656D01*
X90447164Y-86381659D01*
X90610776Y-86573224D01*
X90759066Y-86699875D01*
X90802343Y-86736838D01*
X90802346Y-86736839D01*
X91017140Y-86868466D01*
X91249889Y-86964873D01*
X91494852Y-87023683D01*
X91746000Y-87043449D01*
X91997148Y-87023683D01*
X92242111Y-86964873D01*
X92474859Y-86868466D01*
X92689659Y-86736836D01*
X92881224Y-86573224D01*
X93044836Y-86381659D01*
X93176466Y-86166859D01*
X93272873Y-85934111D01*
X93331683Y-85689148D01*
X93351449Y-85438000D01*
X93331683Y-85186852D01*
X93272873Y-84941889D01*
X93176466Y-84709141D01*
X93176466Y-84709140D01*
X93044839Y-84494346D01*
X93044838Y-84494343D01*
X93007875Y-84451066D01*
X92881224Y-84302776D01*
X92754571Y-84194604D01*
X92689656Y-84139161D01*
X92689653Y-84139160D01*
X92474859Y-84007533D01*
X92242110Y-83911126D01*
X91997151Y-83852317D01*
X91746000Y-83832551D01*
X91494848Y-83852317D01*
X91249889Y-83911126D01*
X91017140Y-84007533D01*
X90802346Y-84139160D01*
X90802343Y-84139161D01*
X90610776Y-84302776D01*
X90447161Y-84494343D01*
X90447160Y-84494346D01*
X90315533Y-84709140D01*
X90219126Y-84941889D01*
X90160317Y-85186848D01*
X90140551Y-85438000D01*
X69351449Y-85438000D01*
X69331683Y-85186852D01*
X69272873Y-84941889D01*
X69176466Y-84709141D01*
X69176466Y-84709140D01*
X69044839Y-84494346D01*
X69044838Y-84494343D01*
X69007875Y-84451066D01*
X68881224Y-84302776D01*
X68754571Y-84194604D01*
X68689656Y-84139161D01*
X68689653Y-84139160D01*
X68474859Y-84007533D01*
X68242110Y-83911126D01*
X67997151Y-83852317D01*
X67746000Y-83832551D01*
X67494848Y-83852317D01*
X67249889Y-83911126D01*
X67017140Y-84007533D01*
X66802346Y-84139160D01*
X66802343Y-84139161D01*
X66610776Y-84302776D01*
X66447161Y-84494343D01*
X66447160Y-84494346D01*
X66315533Y-84709140D01*
X66219126Y-84941889D01*
X66160317Y-85186848D01*
X66140551Y-85438000D01*
X50500500Y-85438000D01*
X50500500Y-75437996D01*
X57740415Y-75437996D01*
X57740415Y-75438003D01*
X57760738Y-75786927D01*
X57760739Y-75786938D01*
X57821428Y-76131127D01*
X57821430Y-76131134D01*
X57921674Y-76465972D01*
X58060107Y-76786895D01*
X58060113Y-76786908D01*
X58234870Y-77089597D01*
X58443584Y-77369949D01*
X58443589Y-77369955D01*
X58488114Y-77417148D01*
X58683442Y-77624183D01*
X58859903Y-77772251D01*
X58951186Y-77848847D01*
X58951194Y-77848853D01*
X59243203Y-78040911D01*
X59243207Y-78040913D01*
X59555549Y-78197777D01*
X59883989Y-78317319D01*
X60224086Y-78397923D01*
X60571241Y-78438500D01*
X60571248Y-78438500D01*
X60920752Y-78438500D01*
X60920759Y-78438500D01*
X61267914Y-78397923D01*
X61608011Y-78317319D01*
X61936451Y-78197777D01*
X62248793Y-78040913D01*
X62540811Y-77848849D01*
X62808558Y-77624183D01*
X63048412Y-77369953D01*
X63257130Y-77089596D01*
X63431889Y-76786904D01*
X63570326Y-76465971D01*
X63670569Y-76131136D01*
X63731262Y-75786927D01*
X63751585Y-75438000D01*
X63751585Y-75437996D01*
X95740415Y-75437996D01*
X95740415Y-75438003D01*
X95760738Y-75786927D01*
X95760739Y-75786938D01*
X95821428Y-76131127D01*
X95821430Y-76131134D01*
X95921674Y-76465972D01*
X96060107Y-76786895D01*
X96060113Y-76786908D01*
X96234870Y-77089597D01*
X96443584Y-77369949D01*
X96443589Y-77369955D01*
X96488114Y-77417148D01*
X96683442Y-77624183D01*
X96859903Y-77772251D01*
X96951186Y-77848847D01*
X96951194Y-77848853D01*
X97243203Y-78040911D01*
X97243207Y-78040913D01*
X97555549Y-78197777D01*
X97883989Y-78317319D01*
X98224086Y-78397923D01*
X98571241Y-78438500D01*
X98571248Y-78438500D01*
X98920752Y-78438500D01*
X98920759Y-78438500D01*
X99267914Y-78397923D01*
X99608011Y-78317319D01*
X99936451Y-78197777D01*
X100248793Y-78040913D01*
X100540811Y-77848849D01*
X100808558Y-77624183D01*
X101048412Y-77369953D01*
X101257130Y-77089596D01*
X101431889Y-76786904D01*
X101570326Y-76465971D01*
X101670569Y-76131136D01*
X101731262Y-75786927D01*
X101751585Y-75438000D01*
X101731262Y-75089073D01*
X101731260Y-75089061D01*
X101670571Y-74744872D01*
X101670569Y-74744865D01*
X101570325Y-74410027D01*
X101431892Y-74089104D01*
X101431889Y-74089096D01*
X101257130Y-73786404D01*
X101257129Y-73786402D01*
X101048415Y-73506050D01*
X101048410Y-73506044D01*
X100932433Y-73383117D01*
X100808558Y-73251817D01*
X100660488Y-73127572D01*
X100540813Y-73027152D01*
X100540805Y-73027146D01*
X100248796Y-72835088D01*
X99936458Y-72678226D01*
X99936452Y-72678223D01*
X99608012Y-72558681D01*
X99608009Y-72558680D01*
X99267915Y-72478077D01*
X99224519Y-72473004D01*
X98920759Y-72437500D01*
X98571241Y-72437500D01*
X98267480Y-72473004D01*
X98224085Y-72478077D01*
X98224083Y-72478077D01*
X97883990Y-72558680D01*
X97883987Y-72558681D01*
X97555547Y-72678223D01*
X97555541Y-72678226D01*
X97243203Y-72835088D01*
X96951194Y-73027146D01*
X96951186Y-73027152D01*
X96683442Y-73251817D01*
X96683440Y-73251819D01*
X96443589Y-73506044D01*
X96443584Y-73506050D01*
X96234870Y-73786402D01*
X96060113Y-74089091D01*
X96060107Y-74089104D01*
X95921674Y-74410027D01*
X95821430Y-74744865D01*
X95821428Y-74744872D01*
X95760739Y-75089061D01*
X95760738Y-75089072D01*
X95740415Y-75437996D01*
X63751585Y-75437996D01*
X63731262Y-75089073D01*
X63731260Y-75089061D01*
X63670571Y-74744872D01*
X63670569Y-74744865D01*
X63570325Y-74410027D01*
X63431892Y-74089104D01*
X63431889Y-74089096D01*
X63257130Y-73786404D01*
X63257129Y-73786402D01*
X63048415Y-73506050D01*
X63048410Y-73506044D01*
X62932433Y-73383117D01*
X62808558Y-73251817D01*
X62660488Y-73127572D01*
X62540813Y-73027152D01*
X62540805Y-73027146D01*
X62248796Y-72835088D01*
X61936458Y-72678226D01*
X61936452Y-72678223D01*
X61608012Y-72558681D01*
X61608009Y-72558680D01*
X61267915Y-72478077D01*
X61224519Y-72473004D01*
X60920759Y-72437500D01*
X60571241Y-72437500D01*
X60267480Y-72473004D01*
X60224085Y-72478077D01*
X60224083Y-72478077D01*
X59883990Y-72558680D01*
X59883987Y-72558681D01*
X59555547Y-72678223D01*
X59555541Y-72678226D01*
X59243203Y-72835088D01*
X58951194Y-73027146D01*
X58951186Y-73027152D01*
X58683442Y-73251817D01*
X58683440Y-73251819D01*
X58443589Y-73506044D01*
X58443584Y-73506050D01*
X58234870Y-73786402D01*
X58060113Y-74089091D01*
X58060107Y-74089104D01*
X57921674Y-74410027D01*
X57821430Y-74744865D01*
X57821428Y-74744872D01*
X57760739Y-75089061D01*
X57760738Y-75089072D01*
X57740415Y-75437996D01*
X50500500Y-75437996D01*
X50500500Y-68111549D01*
X62214630Y-68111549D01*
X62214630Y-69651450D01*
X62229934Y-69865433D01*
X62290758Y-70145037D01*
X62390765Y-70413166D01*
X62527900Y-70664309D01*
X62527905Y-70664317D01*
X62699384Y-70893387D01*
X62699400Y-70893405D01*
X62901724Y-71095729D01*
X62901742Y-71095745D01*
X63130812Y-71267224D01*
X63130820Y-71267229D01*
X63381963Y-71404364D01*
X63381962Y-71404364D01*
X63381966Y-71404365D01*
X63381969Y-71404367D01*
X63650084Y-71504369D01*
X63650090Y-71504370D01*
X63650092Y-71504371D01*
X63929696Y-71565195D01*
X63929698Y-71565195D01*
X63929702Y-71565196D01*
X64143682Y-71580500D01*
X65683578Y-71580500D01*
X65897558Y-71565196D01*
X66177176Y-71504369D01*
X66445291Y-71404367D01*
X66696445Y-71267226D01*
X66925525Y-71095739D01*
X67127869Y-70893395D01*
X67299356Y-70664315D01*
X67436497Y-70413161D01*
X67536499Y-70145046D01*
X67597326Y-69865428D01*
X67612630Y-69651448D01*
X67612630Y-68881499D01*
X74812336Y-68881499D01*
X74812336Y-68881500D01*
X74832829Y-69102666D01*
X74832830Y-69102668D01*
X74893613Y-69316298D01*
X74893619Y-69316313D01*
X74992616Y-69515126D01*
X74992621Y-69515134D01*
X75008179Y-69535735D01*
X75578322Y-68965593D01*
X75601762Y-69053071D01*
X75660281Y-69154430D01*
X75743040Y-69237189D01*
X75844399Y-69295708D01*
X75931875Y-69319147D01*
X75363731Y-69887290D01*
X75363732Y-69887291D01*
X75479460Y-69958947D01*
X75479466Y-69958950D01*
X75686577Y-70039184D01*
X75904915Y-70080000D01*
X76127025Y-70080000D01*
X76345362Y-70039184D01*
X76552475Y-69958949D01*
X76552476Y-69958948D01*
X76668207Y-69887290D01*
X76100065Y-69319147D01*
X76187541Y-69295708D01*
X76288900Y-69237189D01*
X76371659Y-69154430D01*
X76430178Y-69053071D01*
X76453617Y-68965594D01*
X77023758Y-69535735D01*
X77023759Y-69535735D01*
X77039319Y-69515132D01*
X77039320Y-69515129D01*
X77138320Y-69316313D01*
X77138326Y-69316298D01*
X77199109Y-69102668D01*
X77199110Y-69102666D01*
X77219604Y-68881500D01*
X77219604Y-68881499D01*
X77199110Y-68660333D01*
X77199109Y-68660331D01*
X77138326Y-68446701D01*
X77138320Y-68446686D01*
X77039321Y-68247870D01*
X77039319Y-68247867D01*
X77023758Y-68227262D01*
X76453617Y-68797404D01*
X76430178Y-68709929D01*
X76371659Y-68608570D01*
X76288900Y-68525811D01*
X76187541Y-68467292D01*
X76100064Y-68443852D01*
X76668207Y-67875708D01*
X76668206Y-67875707D01*
X76552479Y-67804052D01*
X76552473Y-67804049D01*
X76345362Y-67723815D01*
X76127025Y-67683000D01*
X75904915Y-67683000D01*
X75686577Y-67723815D01*
X75479465Y-67804050D01*
X75363731Y-67875708D01*
X75931876Y-68443852D01*
X75844399Y-68467292D01*
X75743040Y-68525811D01*
X75660281Y-68608570D01*
X75601762Y-68709929D01*
X75578322Y-68797405D01*
X75008180Y-68227262D01*
X74992621Y-68247867D01*
X74992616Y-68247874D01*
X74893619Y-68446686D01*
X74893613Y-68446701D01*
X74832830Y-68660331D01*
X74832829Y-68660333D01*
X74812336Y-68881499D01*
X67612630Y-68881499D01*
X67612630Y-68111552D01*
X67597326Y-67897572D01*
X67576981Y-67804049D01*
X67536501Y-67617962D01*
X67536500Y-67617960D01*
X67536499Y-67617954D01*
X67436497Y-67349839D01*
X67374927Y-67237083D01*
X67299359Y-67098690D01*
X67299354Y-67098682D01*
X67127875Y-66869612D01*
X67127859Y-66869594D01*
X66925535Y-66667270D01*
X66925517Y-66667254D01*
X66696447Y-66495775D01*
X66696439Y-66495770D01*
X66445296Y-66358635D01*
X66445297Y-66358635D01*
X66338045Y-66318632D01*
X66177176Y-66258631D01*
X66177173Y-66258630D01*
X66177167Y-66258628D01*
X65897563Y-66197804D01*
X65683580Y-66182500D01*
X65683578Y-66182500D01*
X64143682Y-66182500D01*
X64143679Y-66182500D01*
X63929696Y-66197804D01*
X63650092Y-66258628D01*
X63381963Y-66358635D01*
X63130820Y-66495770D01*
X63130812Y-66495775D01*
X62901742Y-66667254D01*
X62901724Y-66667270D01*
X62699400Y-66869594D01*
X62699384Y-66869612D01*
X62527905Y-67098682D01*
X62527900Y-67098690D01*
X62390765Y-67349833D01*
X62290758Y-67617962D01*
X62229934Y-67897566D01*
X62214630Y-68111549D01*
X50500500Y-68111549D01*
X50500500Y-60000000D01*
X55664567Y-60000000D01*
X55684289Y-60414014D01*
X55743275Y-60824272D01*
X55840993Y-61227068D01*
X55840996Y-61227079D01*
X55976550Y-61618735D01*
X55976560Y-61618760D01*
X56043482Y-61765299D01*
X56115341Y-61922649D01*
X56148739Y-61995779D01*
X56355980Y-62354730D01*
X56355986Y-62354739D01*
X56596397Y-62692349D01*
X56796418Y-62923186D01*
X56867825Y-63005593D01*
X57167798Y-63291617D01*
X57493601Y-63547831D01*
X57842284Y-63771916D01*
X58210688Y-63961841D01*
X58210693Y-63961843D01*
X58210697Y-63961845D01*
X58466848Y-64064392D01*
X58595477Y-64115888D01*
X58993168Y-64232660D01*
X59400157Y-64311101D01*
X59812760Y-64350500D01*
X59812766Y-64350500D01*
X60227234Y-64350500D01*
X60227240Y-64350500D01*
X60639843Y-64311101D01*
X61046832Y-64232660D01*
X61444523Y-64115888D01*
X61829312Y-63961841D01*
X62197717Y-63771916D01*
X62333149Y-63684878D01*
X62546380Y-63547844D01*
X62546388Y-63547838D01*
X62546399Y-63547831D01*
X62872202Y-63291617D01*
X63172175Y-63005593D01*
X63443602Y-62692350D01*
X63684023Y-62354725D01*
X63891263Y-61995775D01*
X64063444Y-61618751D01*
X64199007Y-61227067D01*
X64296725Y-60824271D01*
X64355711Y-60414010D01*
X64375433Y-60000000D01*
X64357381Y-59621037D01*
X66327988Y-59621037D01*
X66327988Y-61160938D01*
X66343292Y-61374921D01*
X66404116Y-61654525D01*
X66504123Y-61922654D01*
X66641258Y-62173797D01*
X66641263Y-62173805D01*
X66812742Y-62402875D01*
X66812758Y-62402893D01*
X67015082Y-62605217D01*
X67015100Y-62605233D01*
X67244170Y-62776712D01*
X67244178Y-62776717D01*
X67495321Y-62913852D01*
X67495320Y-62913852D01*
X67495324Y-62913853D01*
X67495327Y-62913855D01*
X67763442Y-63013857D01*
X67763448Y-63013858D01*
X67763450Y-63013859D01*
X68043054Y-63074683D01*
X68043056Y-63074683D01*
X68043060Y-63074684D01*
X68257040Y-63089988D01*
X69796936Y-63089988D01*
X70010916Y-63074684D01*
X70290534Y-63013857D01*
X70533632Y-62923185D01*
X70603322Y-62918202D01*
X70613841Y-62920979D01*
X70885364Y-63005590D01*
X70919897Y-63016351D01*
X71042105Y-63038745D01*
X71241065Y-63075206D01*
X71566988Y-63094921D01*
X71892911Y-63075206D01*
X72214082Y-63016350D01*
X72462553Y-62938922D01*
X72525797Y-62919215D01*
X72525798Y-62919214D01*
X72525816Y-62919209D01*
X72823568Y-62785202D01*
X73102997Y-62616281D01*
X73117107Y-62605227D01*
X73177988Y-62557528D01*
X73360027Y-62414911D01*
X73590911Y-62184027D01*
X73792281Y-61926997D01*
X73961202Y-61647568D01*
X74048969Y-61452558D01*
X89879500Y-61452558D01*
X89879500Y-66055441D01*
X89918988Y-66456383D01*
X89918991Y-66456400D01*
X89997588Y-66851536D01*
X90114543Y-67237084D01*
X90161248Y-67349839D01*
X90268722Y-67609304D01*
X90273350Y-67617962D01*
X90458635Y-67964609D01*
X90458646Y-67964627D01*
X90682470Y-68299602D01*
X90682480Y-68299616D01*
X90938070Y-68611053D01*
X91222946Y-68895929D01*
X91222951Y-68895933D01*
X91222952Y-68895934D01*
X91534389Y-69151524D01*
X91869379Y-69375358D01*
X92224696Y-69565278D01*
X92596917Y-69719457D01*
X92982458Y-69836410D01*
X93377606Y-69915010D01*
X93778555Y-69954500D01*
X93778558Y-69954500D01*
X94181442Y-69954500D01*
X94181445Y-69954500D01*
X94582394Y-69915010D01*
X94977542Y-69836410D01*
X95363083Y-69719457D01*
X95735304Y-69565278D01*
X96090621Y-69375358D01*
X96425611Y-69151524D01*
X96737048Y-68895934D01*
X97021934Y-68611048D01*
X97277524Y-68299611D01*
X97501358Y-67964621D01*
X97691278Y-67609304D01*
X97845457Y-67237083D01*
X97962410Y-66851542D01*
X98041010Y-66456394D01*
X98080500Y-66055445D01*
X98080500Y-61452558D01*
X100379500Y-61452558D01*
X100379500Y-66055441D01*
X100418988Y-66456383D01*
X100418991Y-66456400D01*
X100497588Y-66851536D01*
X100614543Y-67237084D01*
X100661248Y-67349839D01*
X100768722Y-67609304D01*
X100773350Y-67617962D01*
X100958635Y-67964609D01*
X100958646Y-67964627D01*
X101182470Y-68299602D01*
X101182480Y-68299616D01*
X101438070Y-68611053D01*
X101722946Y-68895929D01*
X101722951Y-68895933D01*
X101722952Y-68895934D01*
X102034389Y-69151524D01*
X102369379Y-69375358D01*
X102724696Y-69565278D01*
X103096917Y-69719457D01*
X103482458Y-69836410D01*
X103877606Y-69915010D01*
X104278555Y-69954500D01*
X104278558Y-69954500D01*
X104681442Y-69954500D01*
X104681445Y-69954500D01*
X105082394Y-69915010D01*
X105477542Y-69836410D01*
X105863083Y-69719457D01*
X106235304Y-69565278D01*
X106590621Y-69375358D01*
X106925611Y-69151524D01*
X107237048Y-68895934D01*
X107521934Y-68611048D01*
X107777524Y-68299611D01*
X108001358Y-67964621D01*
X108191278Y-67609304D01*
X108345457Y-67237083D01*
X108462410Y-66851542D01*
X108541010Y-66456394D01*
X108580500Y-66055445D01*
X108580500Y-61452555D01*
X108541010Y-61051606D01*
X108462410Y-60656458D01*
X108345457Y-60270917D01*
X108233239Y-60000000D01*
X110664567Y-60000000D01*
X110684289Y-60414014D01*
X110743275Y-60824272D01*
X110840993Y-61227068D01*
X110840996Y-61227079D01*
X110976550Y-61618735D01*
X110976560Y-61618760D01*
X111043482Y-61765299D01*
X111115341Y-61922649D01*
X111148739Y-61995779D01*
X111355980Y-62354730D01*
X111355986Y-62354739D01*
X111596397Y-62692349D01*
X111796418Y-62923186D01*
X111867825Y-63005593D01*
X112167798Y-63291617D01*
X112493601Y-63547831D01*
X112842284Y-63771916D01*
X113210688Y-63961841D01*
X113210693Y-63961843D01*
X113210697Y-63961845D01*
X113466848Y-64064392D01*
X113595477Y-64115888D01*
X113993168Y-64232660D01*
X114400157Y-64311101D01*
X114812760Y-64350500D01*
X114812766Y-64350500D01*
X115227234Y-64350500D01*
X115227240Y-64350500D01*
X115639843Y-64311101D01*
X116046832Y-64232660D01*
X116444523Y-64115888D01*
X116829312Y-63961841D01*
X117197717Y-63771916D01*
X117333149Y-63684878D01*
X117546380Y-63547844D01*
X117546388Y-63547838D01*
X117546399Y-63547831D01*
X117872202Y-63291617D01*
X118172175Y-63005593D01*
X118443602Y-62692350D01*
X118684023Y-62354725D01*
X118891263Y-61995775D01*
X119063444Y-61618751D01*
X119199007Y-61227067D01*
X119296725Y-60824271D01*
X119355711Y-60414010D01*
X119375433Y-60000000D01*
X119355711Y-59585990D01*
X119296725Y-59175729D01*
X119199007Y-58772933D01*
X119143330Y-58612066D01*
X119063449Y-58381264D01*
X119063444Y-58381249D01*
X118891263Y-58004225D01*
X118684023Y-57645275D01*
X118684019Y-57645269D01*
X118684013Y-57645260D01*
X118443602Y-57307650D01*
X118172177Y-56994409D01*
X117872211Y-56708392D01*
X117872202Y-56708383D01*
X117546399Y-56452169D01*
X117546392Y-56452164D01*
X117546380Y-56452155D01*
X117197724Y-56228088D01*
X117197717Y-56228084D01*
X116829302Y-56038154D01*
X116444524Y-55884112D01*
X116444512Y-55884108D01*
X116046837Y-55767341D01*
X116046820Y-55767337D01*
X115639858Y-55688901D01*
X115639846Y-55688899D01*
X115502308Y-55675766D01*
X115227240Y-55649500D01*
X114812760Y-55649500D01*
X114565198Y-55673139D01*
X114400153Y-55688899D01*
X114400141Y-55688901D01*
X113993179Y-55767337D01*
X113993162Y-55767341D01*
X113595487Y-55884108D01*
X113595475Y-55884112D01*
X113210697Y-56038154D01*
X112842287Y-56228082D01*
X112493612Y-56452161D01*
X112493605Y-56452166D01*
X112493601Y-56452169D01*
X112346114Y-56568153D01*
X112167797Y-56708383D01*
X112167788Y-56708392D01*
X111867822Y-56994409D01*
X111596397Y-57307650D01*
X111355986Y-57645260D01*
X111355980Y-57645269D01*
X111148739Y-58004220D01*
X110976560Y-58381239D01*
X110976550Y-58381264D01*
X110840996Y-58772920D01*
X110840993Y-58772931D01*
X110743275Y-59175727D01*
X110684289Y-59585985D01*
X110664567Y-60000000D01*
X108233239Y-60000000D01*
X108191278Y-59898696D01*
X108001358Y-59543379D01*
X107777524Y-59208389D01*
X107521934Y-58896952D01*
X107521933Y-58896951D01*
X107521929Y-58896946D01*
X107237053Y-58612070D01*
X106925616Y-58356480D01*
X106925615Y-58356479D01*
X106925611Y-58356476D01*
X106590621Y-58132642D01*
X106590616Y-58132639D01*
X106590609Y-58132635D01*
X106235311Y-57942726D01*
X106235304Y-57942722D01*
X106235297Y-57942719D01*
X105863084Y-57788543D01*
X105477536Y-57671588D01*
X105082400Y-57592991D01*
X105082383Y-57592988D01*
X104779181Y-57563126D01*
X104681445Y-57553500D01*
X104278555Y-57553500D01*
X104188163Y-57562402D01*
X103877616Y-57592988D01*
X103877599Y-57592991D01*
X103482463Y-57671588D01*
X103096915Y-57788543D01*
X102724702Y-57942719D01*
X102724688Y-57942726D01*
X102369390Y-58132635D01*
X102369372Y-58132646D01*
X102034397Y-58356470D01*
X102034383Y-58356480D01*
X101722946Y-58612070D01*
X101438070Y-58896946D01*
X101182480Y-59208383D01*
X101182470Y-59208397D01*
X100958646Y-59543372D01*
X100958635Y-59543390D01*
X100768726Y-59898688D01*
X100768719Y-59898702D01*
X100614543Y-60270915D01*
X100497588Y-60656463D01*
X100418991Y-61051599D01*
X100418988Y-61051616D01*
X100379500Y-61452558D01*
X98080500Y-61452558D01*
X98080500Y-61452555D01*
X98041010Y-61051606D01*
X97962410Y-60656458D01*
X97845457Y-60270917D01*
X97691278Y-59898696D01*
X97501358Y-59543379D01*
X97277524Y-59208389D01*
X97021934Y-58896952D01*
X97021933Y-58896951D01*
X97021929Y-58896946D01*
X96737053Y-58612070D01*
X96425616Y-58356480D01*
X96425615Y-58356479D01*
X96425611Y-58356476D01*
X96090621Y-58132642D01*
X96090616Y-58132639D01*
X96090609Y-58132635D01*
X95735311Y-57942726D01*
X95735304Y-57942722D01*
X95735297Y-57942719D01*
X95363084Y-57788543D01*
X94977536Y-57671588D01*
X94582400Y-57592991D01*
X94582383Y-57592988D01*
X94279181Y-57563126D01*
X94181445Y-57553500D01*
X93778555Y-57553500D01*
X93688163Y-57562402D01*
X93377616Y-57592988D01*
X93377599Y-57592991D01*
X92982463Y-57671588D01*
X92596915Y-57788543D01*
X92224702Y-57942719D01*
X92224688Y-57942726D01*
X91869390Y-58132635D01*
X91869372Y-58132646D01*
X91534397Y-58356470D01*
X91534383Y-58356480D01*
X91222946Y-58612070D01*
X90938070Y-58896946D01*
X90682480Y-59208383D01*
X90682470Y-59208397D01*
X90458646Y-59543372D01*
X90458635Y-59543390D01*
X90268726Y-59898688D01*
X90268719Y-59898702D01*
X90114543Y-60270915D01*
X89997588Y-60656463D01*
X89918991Y-61051599D01*
X89918988Y-61051616D01*
X89879500Y-61452558D01*
X74048969Y-61452558D01*
X74095209Y-61349816D01*
X74192350Y-61038082D01*
X74251206Y-60716911D01*
X74270921Y-60390988D01*
X74251206Y-60065065D01*
X74192350Y-59743894D01*
X74129867Y-59543379D01*
X74095215Y-59432178D01*
X74095211Y-59432167D01*
X74095209Y-59432160D01*
X73961202Y-59134408D01*
X73792281Y-58854979D01*
X73792278Y-58854975D01*
X73792275Y-58854970D01*
X73590908Y-58597945D01*
X73360030Y-58367067D01*
X73103005Y-58165700D01*
X73048327Y-58132646D01*
X72823568Y-57996774D01*
X72525816Y-57862767D01*
X72525811Y-57862765D01*
X72525808Y-57862764D01*
X72525797Y-57862760D01*
X72214081Y-57765625D01*
X71892906Y-57706769D01*
X71566988Y-57687055D01*
X71241069Y-57706769D01*
X70919894Y-57765625D01*
X70613852Y-57860992D01*
X70543992Y-57862144D01*
X70533629Y-57858789D01*
X70290534Y-57768119D01*
X70290530Y-57768118D01*
X70290527Y-57768117D01*
X70010921Y-57707292D01*
X69796938Y-57691988D01*
X69796936Y-57691988D01*
X68257040Y-57691988D01*
X68257037Y-57691988D01*
X68043054Y-57707292D01*
X67763450Y-57768116D01*
X67495321Y-57868123D01*
X67244178Y-58005258D01*
X67244170Y-58005263D01*
X67015100Y-58176742D01*
X67015082Y-58176758D01*
X66812758Y-58379082D01*
X66812742Y-58379100D01*
X66641263Y-58608170D01*
X66641258Y-58608178D01*
X66504123Y-58859321D01*
X66404116Y-59127450D01*
X66343292Y-59407054D01*
X66327988Y-59621037D01*
X64357381Y-59621037D01*
X64355711Y-59585990D01*
X64296725Y-59175729D01*
X64199007Y-58772933D01*
X64143330Y-58612066D01*
X64063449Y-58381264D01*
X64063444Y-58381249D01*
X63891263Y-58004225D01*
X63684023Y-57645275D01*
X63684019Y-57645269D01*
X63684013Y-57645260D01*
X63443602Y-57307650D01*
X63172177Y-56994409D01*
X62872211Y-56708392D01*
X62872202Y-56708383D01*
X62546399Y-56452169D01*
X62546392Y-56452164D01*
X62546380Y-56452155D01*
X62197724Y-56228088D01*
X62197717Y-56228084D01*
X61829302Y-56038154D01*
X61444524Y-55884112D01*
X61444512Y-55884108D01*
X61046837Y-55767341D01*
X61046820Y-55767337D01*
X60639858Y-55688901D01*
X60639846Y-55688899D01*
X60502308Y-55675766D01*
X60227240Y-55649500D01*
X59812760Y-55649500D01*
X59565198Y-55673139D01*
X59400153Y-55688899D01*
X59400141Y-55688901D01*
X58993179Y-55767337D01*
X58993162Y-55767341D01*
X58595487Y-55884108D01*
X58595475Y-55884112D01*
X58210697Y-56038154D01*
X57842287Y-56228082D01*
X57493612Y-56452161D01*
X57493605Y-56452166D01*
X57493601Y-56452169D01*
X57346114Y-56568153D01*
X57167797Y-56708383D01*
X57167788Y-56708392D01*
X56867822Y-56994409D01*
X56596397Y-57307650D01*
X56355986Y-57645260D01*
X56355980Y-57645269D01*
X56148739Y-58004220D01*
X55976560Y-58381239D01*
X55976550Y-58381264D01*
X55840996Y-58772920D01*
X55840993Y-58772931D01*
X55743275Y-59175727D01*
X55684289Y-59585985D01*
X55664567Y-60000000D01*
X50500500Y-60000000D01*
X50500500Y-50624500D01*
X50520185Y-50557461D01*
X50572989Y-50511706D01*
X50624500Y-50500500D01*
X124375500Y-50500500D01*
X124442539Y-50520185D01*
G37*
%TD.AperFunction*%
%TD*%
M02*
