%TF.GenerationSoftware,KiCad,Pcbnew,8.0.5*%
%TF.CreationDate,2025-02-03T18:13:47-05:00*%
%TF.ProjectId,Passive Cap Bank V1,50617373-6976-4652-9043-61702042616e,1.0*%
%TF.SameCoordinates,Original*%
%TF.FileFunction,Soldermask,Bot*%
%TF.FilePolarity,Negative*%
%FSLAX46Y46*%
G04 Gerber Fmt 4.6, Leading zero omitted, Abs format (unit mm)*
G04 Created by KiCad (PCBNEW 8.0.5) date 2025-02-03 18:13:47*
%MOMM*%
%LPD*%
G01*
G04 APERTURE LIST*
G04 Aperture macros list*
%AMRoundRect*
0 Rectangle with rounded corners*
0 $1 Rounding radius*
0 $2 $3 $4 $5 $6 $7 $8 $9 X,Y pos of 4 corners*
0 Add a 4 corners polygon primitive as box body*
4,1,4,$2,$3,$4,$5,$6,$7,$8,$9,$2,$3,0*
0 Add four circle primitives for the rounded corners*
1,1,$1+$1,$2,$3*
1,1,$1+$1,$4,$5*
1,1,$1+$1,$6,$7*
1,1,$1+$1,$8,$9*
0 Add four rect primitives between the rounded corners*
20,1,$1+$1,$2,$3,$4,$5,0*
20,1,$1+$1,$4,$5,$6,$7,0*
20,1,$1+$1,$6,$7,$8,$9,0*
20,1,$1+$1,$8,$9,$2,$3,0*%
G04 Aperture macros list end*
%ADD10C,0.050000*%
%ADD11C,4.700000*%
%ADD12R,2.600200X2.600200*%
%ADD13R,1.600200X1.600200*%
%ADD14C,2.600200*%
%ADD15R,1.397000X1.397000*%
%ADD16C,1.397000*%
%ADD17O,4.404000X8.604000*%
%ADD18C,2.754000*%
%ADD19RoundRect,0.102000X-1.275000X1.275000X-1.275000X-1.275000X1.275000X-1.275000X1.275000X1.275000X0*%
%ADD20C,1.712000*%
%ADD21RoundRect,0.150000X0.350000X0.150000X-0.350000X0.150000X-0.350000X-0.150000X0.350000X-0.150000X0*%
%ADD22RoundRect,0.150000X-0.350000X-0.150000X0.350000X-0.150000X0.350000X0.150000X-0.350000X0.150000X0*%
%ADD23R,3.454400X1.320800*%
%ADD24RoundRect,0.102000X-1.730000X0.665000X-1.730000X-0.665000X1.730000X-0.665000X1.730000X0.665000X0*%
%ADD25C,2.184400*%
%ADD26RoundRect,0.102000X1.730000X-0.665000X1.730000X0.665000X-1.730000X0.665000X-1.730000X-0.665000X0*%
G04 APERTURE END LIST*
D10*
X65192000Y-92456000D02*
X86192000Y-92456000D01*
X86192000Y-108456000D01*
X65192000Y-108456000D01*
X65192000Y-92456000D01*
G36*
X65192000Y-92456000D02*
G01*
X86192000Y-92456000D01*
X86192000Y-108456000D01*
X65192000Y-108456000D01*
X65192000Y-92456000D01*
G37*
D11*
%TO.C,REF\u002A\u002A*%
X60020000Y-60000000D03*
%TD*%
%TO.C,REF\u002A\u002A*%
X115020000Y-60000000D03*
%TD*%
D12*
%TO.C,C1*%
X115500000Y-147872041D03*
D13*
X113500000Y-147872041D03*
D14*
X105500000Y-147872041D03*
%TD*%
D15*
%TO.C,R14*%
X64913630Y-68881500D03*
D16*
X76015970Y-68881500D03*
%TD*%
D12*
%TO.C,C5*%
X82500000Y-124872041D03*
D13*
X84500000Y-124872041D03*
D14*
X92500000Y-124872041D03*
%TD*%
D12*
%TO.C,C3*%
X69500000Y-147872041D03*
D13*
X67500000Y-147872041D03*
D14*
X59500000Y-147872041D03*
%TD*%
D15*
%TO.C,D1*%
X69026988Y-60390988D03*
D16*
X71566988Y-60390988D03*
%TD*%
D12*
%TO.C,C2*%
X92500000Y-147872041D03*
D13*
X90500000Y-147872041D03*
D14*
X82500000Y-147872041D03*
%TD*%
D12*
%TO.C,C4*%
X59500000Y-124872041D03*
D13*
X61500000Y-124872041D03*
D14*
X69500000Y-124872041D03*
%TD*%
D11*
%TO.C,REF\u002A\u002A*%
X115020000Y-165000000D03*
%TD*%
%TO.C,REF\u002A\u002A*%
X76020000Y-136372041D03*
%TD*%
D17*
%TO.C,SW1*%
X104480000Y-63754000D03*
X93980000Y-63754000D03*
%TD*%
D12*
%TO.C,C6*%
X105500000Y-124872041D03*
D13*
X107500000Y-124872041D03*
D14*
X115500000Y-124872041D03*
%TD*%
D18*
%TO.C,J1*%
X107690000Y-98470000D03*
D19*
X107690000Y-93470000D03*
D20*
X117690000Y-101470000D03*
X117690000Y-90470000D03*
%TD*%
D11*
%TO.C,REF\u002A\u002A*%
X115020000Y-107500000D03*
%TD*%
%TO.C,REF\u002A\u002A*%
X60040000Y-107500000D03*
%TD*%
%TO.C,REF\u002A\u002A*%
X60020000Y-165000000D03*
%TD*%
%TO.C,REF\u002A\u002A*%
X99020000Y-136372041D03*
%TD*%
D21*
%TO.C,Q3*%
X65710600Y-153650241D03*
X65710600Y-155710241D03*
X63510600Y-154680241D03*
%TD*%
D22*
%TO.C,Q5*%
X86284600Y-118852241D03*
X86284600Y-116792241D03*
X88484600Y-117822241D03*
%TD*%
D23*
%TO.C,R9*%
X82474600Y-120884241D03*
X82474600Y-114991441D03*
%TD*%
%TO.C,R5*%
X69774600Y-151618241D03*
X69774600Y-157511041D03*
%TD*%
%TO.C,R1*%
X115748600Y-151364241D03*
X115748600Y-157257041D03*
%TD*%
%TO.C,R11*%
X105588600Y-121138241D03*
X105588600Y-115245441D03*
%TD*%
D24*
%TO.C,R10*%
X92380600Y-114996241D03*
X92380600Y-120884241D03*
%TD*%
D22*
%TO.C,Q6*%
X109652600Y-119360241D03*
X109652600Y-117300241D03*
X111852600Y-118330241D03*
%TD*%
%TO.C,Q4*%
X63424600Y-119106241D03*
X63424600Y-117046241D03*
X65624600Y-118076241D03*
%TD*%
D21*
%TO.C,Q2*%
X88570600Y-153650241D03*
X88570600Y-155710241D03*
X86370600Y-154680241D03*
%TD*%
D23*
%TO.C,R3*%
X92634600Y-151872241D03*
X92634600Y-157765041D03*
%TD*%
D24*
%TO.C,R8*%
X69520600Y-115250241D03*
X69520600Y-121138241D03*
%TD*%
D25*
%TO.C,R13*%
X90992000Y-95375000D03*
X90992000Y-105535000D03*
%TD*%
D24*
%TO.C,R12*%
X115748600Y-115250241D03*
X115748600Y-121138241D03*
%TD*%
D23*
%TO.C,R7*%
X59614600Y-121138241D03*
X59614600Y-115245441D03*
%TD*%
D26*
%TO.C,R2*%
X105334600Y-157252241D03*
X105334600Y-151364241D03*
%TD*%
%TO.C,R6*%
X59614600Y-157506241D03*
X59614600Y-151618241D03*
%TD*%
%TO.C,R4*%
X82728600Y-157506241D03*
X82728600Y-151618241D03*
%TD*%
D21*
%TO.C,Q1*%
X111430600Y-153142241D03*
X111430600Y-155202241D03*
X109230600Y-154172241D03*
%TD*%
M02*
